M48
; DRILL file {KiCad (5.1.9-0-10_14)} date Tuesday, July 27, 2021 at 12:59:26 PM
; FORMAT={-:-/ absolute / inch / decimal}
; #@! TF.CreationDate,2021-07-27T12:59:26-05:00
; #@! TF.GenerationSoftware,Kicad,Pcbnew,(5.1.9-0-10_14)
; #@! TF.FileFunction,Plated,1,2,PTH
FMAT,2
INCH
T1C0.0394
%
G90
G05
T1
X5.425Y-3.15
X5.425Y-3.25
X5.425Y-3.35
X5.425Y-3.45
X5.425Y-3.55
X5.425Y-3.65
X5.425Y-3.75
X5.425Y-3.85
X5.425Y-3.95
X5.425Y-4.05
X5.425Y-4.15
X5.425Y-4.25
X5.425Y-4.35
X5.425Y-4.45
X7.05Y-3.15
X7.05Y-3.25
X7.05Y-3.35
X7.05Y-3.45
X7.05Y-3.55
X7.05Y-3.65
X7.05Y-3.75
X7.05Y-3.85
X7.05Y-3.95
X7.05Y-4.05
X7.05Y-4.15
X7.05Y-4.25
X7.05Y-4.35
X7.05Y-4.45
T0
M30
