M48
; DRILL file {KiCad (6.0.0-0)} date Wednesday, January 05, 2022 at 02:02:21 PM
; FORMAT={-:-/ absolute / inch / decimal}
; #@! TF.CreationDate,2022-01-05T14:02:21-06:00
; #@! TF.GenerationSoftware,Kicad,Pcbnew,(6.0.0-0)
; #@! TF.FileFunction,Plated,1,2,PTH
FMAT,2
INCH
; #@! TA.AperFunction,Plated,PTH,ViaDrill
T1C0.0157
; #@! TA.AperFunction,Plated,PTH,ComponentDrill
T2C0.0394
%
G90
G05
T1
X5.925Y-3.325
X5.9469Y-3.4272
X6.0069Y-4.2638
X6.2618Y-3.0344
X6.3568Y-2.9621
X6.4262Y-3.126
X6.9341Y-3.0659
T2
X5.425Y-3.15
X5.425Y-3.25
X5.425Y-3.35
X5.425Y-3.45
X5.425Y-3.55
X5.425Y-3.65
X5.425Y-3.75
X5.425Y-3.85
X5.425Y-3.95
X5.425Y-4.05
X5.425Y-4.15
X5.425Y-4.25
X5.425Y-4.35
X5.425Y-4.45
X7.05Y-3.15
X7.05Y-3.25
X7.05Y-3.35
X7.05Y-3.45
X7.05Y-3.55
X7.05Y-3.65
X7.05Y-3.75
X7.05Y-3.85
X7.05Y-3.95
X7.05Y-4.05
X7.05Y-4.15
X7.05Y-4.25
X7.05Y-4.35
X7.05Y-4.45
T0
M30
