G04 #@! TF.GenerationSoftware,KiCad,Pcbnew,(6.0.0-0)*
G04 #@! TF.CreationDate,2022-01-05T14:02:19-06:00*
G04 #@! TF.ProjectId,castellated_breakout,63617374-656c-46c6-9174-65645f627265,rev?*
G04 #@! TF.SameCoordinates,Original*
G04 #@! TF.FileFunction,Copper,L2,Bot*
G04 #@! TF.FilePolarity,Positive*
%FSLAX46Y46*%
G04 Gerber Fmt 4.6, Leading zero omitted, Abs format (unit mm)*
G04 Created by KiCad (PCBNEW (6.0.0-0)) date 2022-01-05 14:02:19*
%MOMM*%
%LPD*%
G01*
G04 APERTURE LIST*
G04 #@! TA.AperFunction,ComponentPad*
%ADD10O,1.700000X1.700000*%
G04 #@! TD*
G04 #@! TA.AperFunction,ComponentPad*
%ADD11R,1.700000X1.700000*%
G04 #@! TD*
G04 #@! TA.AperFunction,ViaPad*
%ADD12C,0.800000*%
G04 #@! TD*
G04 #@! TA.AperFunction,Conductor*
%ADD13C,0.250000*%
G04 #@! TD*
G04 APERTURE END LIST*
D10*
G04 #@! TO.P,J2,14,Pin_14*
G04 #@! TO.N,RST*
X137795000Y-80010000D03*
G04 #@! TO.P,J2,13,Pin_13*
G04 #@! TO.N,BOOT0*
X137795000Y-82550000D03*
G04 #@! TO.P,J2,12,Pin_12*
G04 #@! TO.N,RF3*
X137795000Y-85090000D03*
G04 #@! TO.P,J2,11,Pin_11*
G04 #@! TO.N,RF2*
X137795000Y-87630000D03*
G04 #@! TO.P,J2,10,Pin_10*
G04 #@! TO.N,GND*
X137795000Y-90170000D03*
G04 #@! TO.P,J2,9,Pin_9*
G04 #@! TO.N,RF1V55*
X137795000Y-92710000D03*
G04 #@! TO.P,J2,8,Pin_8*
G04 #@! TO.N,VDD*
X137795000Y-95250000D03*
G04 #@! TO.P,J2,7,Pin_7*
G04 #@! TO.N,PB2*
X137795000Y-97790000D03*
G04 #@! TO.P,J2,6,Pin_6*
G04 #@! TO.N,PB12*
X137795000Y-100330000D03*
G04 #@! TO.P,J2,5,Pin_5*
G04 #@! TO.N,RX_1*
X137795000Y-102870000D03*
G04 #@! TO.P,J2,4,Pin_4*
G04 #@! TO.N,PA11*
X137795000Y-105410000D03*
G04 #@! TO.P,J2,3,Pin_3*
G04 #@! TO.N,PA12*
X137795000Y-107950000D03*
G04 #@! TO.P,J2,2,Pin_2*
G04 #@! TO.N,SWDIO*
X137795000Y-110490000D03*
D11*
G04 #@! TO.P,J2,1,Pin_1*
G04 #@! TO.N,VBAT*
X137795000Y-113030000D03*
G04 #@! TD*
D10*
G04 #@! TO.P,J1,14,Pin_14*
G04 #@! TO.N,SWCLK*
X179070000Y-113030000D03*
G04 #@! TO.P,J1,13,Pin_13*
G04 #@! TO.N,JTDI*
X179070000Y-110490000D03*
G04 #@! TO.P,J1,12,Pin_12*
G04 #@! TO.N,DEBUG_JRST*
X179070000Y-107950000D03*
G04 #@! TO.P,J1,11,Pin_11*
G04 #@! TO.N,TX_1*
X179070000Y-105410000D03*
G04 #@! TO.P,J1,10,Pin_10*
G04 #@! TO.N,SWO*
X179070000Y-102870000D03*
G04 #@! TO.P,J1,9,Pin_9*
G04 #@! TO.N,SPI_MOSI*
X179070000Y-100330000D03*
G04 #@! TO.P,J1,8,Pin_8*
G04 #@! TO.N,SDA*
X179070000Y-97790000D03*
G04 #@! TO.P,J1,7,Pin_7*
G04 #@! TO.N,SCL*
X179070000Y-95250000D03*
G04 #@! TO.P,J1,6,Pin_6*
G04 #@! TO.N,PWR_WKUP*
X179070000Y-92710000D03*
G04 #@! TO.P,J1,5,Pin_5*
G04 #@! TO.N,SPI_CLK*
X179070000Y-90170000D03*
G04 #@! TO.P,J1,4,Pin_4*
G04 #@! TO.N,VCP_TX*
X179070000Y-87630000D03*
G04 #@! TO.P,J1,3,Pin_3*
G04 #@! TO.N,VCP_RX*
X179070000Y-85090000D03*
G04 #@! TO.P,J1,2,Pin_2*
G04 #@! TO.N,PA5*
X179070000Y-82550000D03*
D11*
G04 #@! TO.P,J1,1,Pin_1*
G04 #@! TO.N,SPI_MISO*
X179070000Y-80010000D03*
G04 #@! TD*
D12*
G04 #@! TO.N,SWCLK*
X161463197Y-75238197D03*
G04 #@! TO.N,SWO*
X176125000Y-77875000D03*
G04 #@! TO.N,VDD*
X163225000Y-79400000D03*
G04 #@! TO.N,SWCLK*
X152575000Y-108300000D03*
G04 #@! TO.N,VDD*
X150495000Y-84455000D03*
G04 #@! TO.N,SWDIO*
X159050000Y-77075000D03*
X151050000Y-87050000D03*
G04 #@! TD*
D13*
G04 #@! TO.N,SWCLK*
X161426896Y-77050000D02*
X161426896Y-75273104D01*
G04 #@! TO.N,SWO*
X176125000Y-77875000D02*
X176125000Y-77850000D01*
X177694999Y-79419999D02*
X176125000Y-77875000D01*
X177694999Y-90330045D02*
X177694999Y-79419999D01*
G04 #@! TO.N,VDD*
X163244046Y-80645000D02*
X163244046Y-79419046D01*
X163244046Y-79419046D02*
X163225000Y-79400000D01*
G04 #@! TO.N,SWCLK*
X151494001Y-86124999D02*
X152575000Y-87205998D01*
X150795997Y-86124999D02*
X151494001Y-86124999D01*
X149569999Y-84010999D02*
X149569999Y-84899001D01*
X150050999Y-83529999D02*
X149569999Y-84010999D01*
X161426896Y-77050000D02*
X154946897Y-83529999D01*
X149569999Y-84899001D02*
X150795997Y-86124999D01*
X154946897Y-83529999D02*
X150050999Y-83529999D01*
X152575000Y-87205998D02*
X152575000Y-108300000D01*
X152575000Y-108300000D02*
X152575000Y-108300000D01*
G04 #@! TO.N,SWO*
X177694999Y-101494999D02*
X179070000Y-102870000D01*
X177694999Y-90330045D02*
X177694999Y-101494999D01*
G04 #@! TO.N,VDD*
X159434046Y-84455000D02*
X163244046Y-80645000D01*
X150495000Y-84455000D02*
X159434046Y-84455000D01*
G04 #@! TO.N,SWDIO*
X151050000Y-87050000D02*
X147750000Y-87050000D01*
X147750000Y-87050000D02*
X145750000Y-85050000D01*
X147600000Y-77075000D02*
X159050000Y-77075000D01*
X145750000Y-78925000D02*
X147600000Y-77075000D01*
X145750000Y-85050000D02*
X145750000Y-78925000D01*
G04 #@! TD*
M02*
