%TF.GenerationSoftware,KiCad,Pcbnew,(5.1.9-0-10_14)*%
%TF.CreationDate,2021-07-28T15:37:10-05:00*%
%TF.ProjectId,castellated_breakout,63617374-656c-46c6-9174-65645f627265,rev?*%
%TF.SameCoordinates,Original*%
%TF.FileFunction,Copper,L1,Top*%
%TF.FilePolarity,Positive*%
%FSLAX46Y46*%
G04 Gerber Fmt 4.6, Leading zero omitted, Abs format (unit mm)*
G04 Created by KiCad (PCBNEW (5.1.9-0-10_14)) date 2021-07-28 15:37:10*
%MOMM*%
%LPD*%
G01*
G04 APERTURE LIST*
%TA.AperFunction,ComponentPad*%
%ADD10O,1.700000X1.700000*%
%TD*%
%TA.AperFunction,ComponentPad*%
%ADD11R,1.700000X1.700000*%
%TD*%
%TA.AperFunction,SMDPad,CuDef*%
%ADD12C,1.524000*%
%TD*%
%TA.AperFunction,Conductor*%
%ADD13C,0.250000*%
%TD*%
G04 APERTURE END LIST*
D10*
%TO.P,J2,14*%
%TO.N,RST*%
X137795000Y-80010000D03*
%TO.P,J2,13*%
%TO.N,BOOT0*%
X137795000Y-82550000D03*
%TO.P,J2,12*%
%TO.N,RF3*%
X137795000Y-85090000D03*
%TO.P,J2,11*%
%TO.N,RF2*%
X137795000Y-87630000D03*
%TO.P,J2,10*%
%TO.N,GND*%
X137795000Y-90170000D03*
%TO.P,J2,9*%
%TO.N,RF1V55*%
X137795000Y-92710000D03*
%TO.P,J2,8*%
%TO.N,VDD*%
X137795000Y-95250000D03*
%TO.P,J2,7*%
%TO.N,PB2*%
X137795000Y-97790000D03*
%TO.P,J2,6*%
%TO.N,PB12*%
X137795000Y-100330000D03*
%TO.P,J2,5*%
%TO.N,RX_1*%
X137795000Y-102870000D03*
%TO.P,J2,4*%
%TO.N,PA11*%
X137795000Y-105410000D03*
%TO.P,J2,3*%
%TO.N,PA12*%
X137795000Y-107950000D03*
%TO.P,J2,2*%
%TO.N,SWDIO*%
X137795000Y-110490000D03*
D11*
%TO.P,J2,1*%
%TO.N,VBAT*%
X137795000Y-113030000D03*
%TD*%
D10*
%TO.P,J1,14*%
%TO.N,SWCLK*%
X179070000Y-113030000D03*
%TO.P,J1,13*%
%TO.N,JTDI*%
X179070000Y-110490000D03*
%TO.P,J1,12*%
%TO.N,DEBUG_JRST*%
X179070000Y-107950000D03*
%TO.P,J1,11*%
%TO.N,TX_1*%
X179070000Y-105410000D03*
%TO.P,J1,10*%
%TO.N,SWO*%
X179070000Y-102870000D03*
%TO.P,J1,9*%
%TO.N,SPI_MOSI*%
X179070000Y-100330000D03*
%TO.P,J1,8*%
%TO.N,SDA*%
X179070000Y-97790000D03*
%TO.P,J1,7*%
%TO.N,SCL*%
X179070000Y-95250000D03*
%TO.P,J1,6*%
%TO.N,PWR_WKUP*%
X179070000Y-92710000D03*
%TO.P,J1,5*%
%TO.N,SPI_CLK*%
X179070000Y-90170000D03*
%TO.P,J1,4*%
%TO.N,VCP_TX*%
X179070000Y-87630000D03*
%TO.P,J1,3*%
%TO.N,VCP_RX*%
X179070000Y-85090000D03*
%TO.P,J1,2*%
%TO.N,PA5*%
X179070000Y-82550000D03*
D11*
%TO.P,J1,1*%
%TO.N,SPI_MISO*%
X179070000Y-80010000D03*
%TD*%
D12*
%TO.P,U1,28*%
%TO.N,VBAT*%
X148590000Y-107950000D03*
%TO.P,U1,27*%
%TO.N,SWDIO*%
X148590000Y-105410000D03*
%TO.P,U1,26*%
%TO.N,PA12*%
X148590000Y-102870000D03*
%TO.P,U1,25*%
%TO.N,PA11*%
X148590000Y-100330000D03*
%TO.P,U1,24*%
%TO.N,RX_1*%
X148590000Y-97790000D03*
%TO.P,U1,23*%
%TO.N,PB12*%
X148590000Y-95250000D03*
%TO.P,U1,22*%
%TO.N,PB2*%
X148590000Y-92710000D03*
%TO.P,U1,21*%
%TO.N,VDD*%
X151130000Y-82550000D03*
%TO.P,U1,20*%
%TO.N,RF1V55*%
X153670000Y-82550000D03*
%TO.P,U1,19*%
%TO.N,GND*%
X156210000Y-82550000D03*
%TO.P,U1,18*%
%TO.N,RF2*%
X158750000Y-82550000D03*
%TO.P,U1,17*%
%TO.N,RF3*%
X161290000Y-82550000D03*
%TO.P,U1,16*%
%TO.N,BOOT0*%
X163830000Y-82550000D03*
%TO.P,U1,15*%
%TO.N,RST*%
X166370000Y-82550000D03*
%TO.P,U1,14*%
%TO.N,SPI_MISO*%
X168910000Y-92710000D03*
%TO.P,U1,13*%
%TO.N,PA5*%
X168910000Y-95250000D03*
%TO.P,U1,12*%
%TO.N,VCP_RX*%
X168910000Y-97790000D03*
%TO.P,U1,11*%
%TO.N,VCP_TX*%
X168910000Y-100330000D03*
%TO.P,U1,10*%
%TO.N,SPI_CLK*%
X168910000Y-102870000D03*
%TO.P,U1,9*%
%TO.N,PWR_WKUP*%
X168910000Y-105410000D03*
%TO.P,U1,8*%
%TO.N,SCL*%
X168910000Y-107950000D03*
%TO.P,U1,7*%
%TO.N,SDA*%
X166370000Y-110490000D03*
%TO.P,U1,6*%
%TO.N,SPI_MOSI*%
X163830000Y-110490000D03*
%TO.P,U1,5*%
%TO.N,SWO*%
X161290000Y-110490000D03*
%TO.P,U1,4*%
%TO.N,TX_1*%
X158750000Y-110490000D03*
%TO.P,U1,3*%
%TO.N,DEBUG_JRST*%
X156210000Y-110490000D03*
%TO.P,U1,2*%
%TO.N,JTDI*%
X153670000Y-110490000D03*
%TO.P,U1,1*%
%TO.N,SWCLK*%
X151130000Y-110490000D03*
%TD*%
D13*
%TO.N,SWCLK*%
X155667051Y-115027051D02*
X170822949Y-115027051D01*
X151130000Y-110490000D02*
X155667051Y-115027051D01*
X172820000Y-113030000D02*
X179070000Y-113030000D01*
X170822949Y-115027051D02*
X172820000Y-113030000D01*
%TO.N,JTDI*%
X172871022Y-110490000D02*
X179070000Y-110490000D01*
X168983981Y-114377041D02*
X172871022Y-110490000D01*
X157557041Y-114377041D02*
X168983981Y-114377041D01*
X153670000Y-110490000D02*
X157557041Y-114377041D01*
%TO.N,DEBUG_JRST*%
X174491770Y-107950000D02*
X179070000Y-107950000D01*
X168714739Y-113727031D02*
X174491770Y-107950000D01*
X159447031Y-113727031D02*
X168714739Y-113727031D01*
X156210000Y-110490000D02*
X159447031Y-113727031D01*
%TO.N,TX_1*%
X176112518Y-105410000D02*
X179070000Y-105410000D01*
X168445497Y-113077021D02*
X176112518Y-105410000D01*
X161337021Y-113077021D02*
X168445497Y-113077021D01*
X158750000Y-110490000D02*
X161337021Y-113077021D01*
%TO.N,SWO*%
X168176255Y-112427011D02*
X175675000Y-104928266D01*
X163227011Y-112427011D02*
X168176255Y-112427011D01*
X161290000Y-110490000D02*
X163227011Y-112427011D01*
X175675000Y-104928266D02*
X175675000Y-103925000D01*
X176730000Y-102870000D02*
X179070000Y-102870000D01*
X175675000Y-103925000D02*
X176730000Y-102870000D01*
%TO.N,SPI_MOSI*%
X167907013Y-111777001D02*
X174750030Y-104933984D01*
X165117001Y-111777001D02*
X167907013Y-111777001D01*
X163830000Y-110490000D02*
X165117001Y-111777001D01*
X174750030Y-104933984D02*
X174750030Y-101324970D01*
X175745000Y-100330000D02*
X179070000Y-100330000D01*
X174750030Y-101324970D02*
X175745000Y-100330000D01*
%TO.N,SDA*%
X168274762Y-110490000D02*
X174100020Y-104664742D01*
X166370000Y-110490000D02*
X168274762Y-110490000D01*
X174100020Y-104664742D02*
X174100020Y-99549980D01*
X175860000Y-97790000D02*
X179070000Y-97790000D01*
X174100020Y-99549980D02*
X175860000Y-97790000D01*
%TO.N,SCL*%
X168910000Y-107950000D02*
X173450010Y-103409990D01*
X173450010Y-103409990D02*
X173450010Y-96849990D01*
X175050000Y-95250000D02*
X179070000Y-95250000D01*
X173450010Y-96849990D02*
X175050000Y-95250000D01*
%TO.N,PWR_WKUP*%
X168910000Y-105410000D02*
X172800000Y-101520000D01*
X174090000Y-92710000D02*
X179070000Y-92710000D01*
X172800000Y-94000000D02*
X174090000Y-92710000D01*
X172800000Y-101520000D02*
X172800000Y-94000000D01*
%TO.N,SPI_CLK*%
X168910000Y-102870000D02*
X172147031Y-99632969D01*
X172147031Y-99632969D02*
X172147031Y-92302969D01*
X174280000Y-90170000D02*
X179070000Y-90170000D01*
X172147031Y-92302969D02*
X174280000Y-90170000D01*
%TO.N,VCP_TX*%
X168910000Y-100330000D02*
X171497021Y-97742979D01*
X171497021Y-97742979D02*
X171497021Y-89252979D01*
X173120000Y-87630000D02*
X179070000Y-87630000D01*
X171497021Y-89252979D02*
X173120000Y-87630000D01*
%TO.N,VCP_RX*%
X168910000Y-97790000D02*
X170847011Y-95852989D01*
X170847011Y-95852989D02*
X170847011Y-87327989D01*
X173085000Y-85090000D02*
X179070000Y-85090000D01*
X170847011Y-87327989D02*
X173085000Y-85090000D01*
%TO.N,PA5*%
X170197001Y-93962999D02*
X170197001Y-85122251D01*
X168910000Y-95250000D02*
X170197001Y-93962999D01*
X172769252Y-82550000D02*
X179070000Y-82550000D01*
X170197001Y-85122251D02*
X172769252Y-82550000D01*
%TO.N,SPI_MISO*%
X168910000Y-92710000D02*
X168910000Y-85490000D01*
X174390000Y-80010000D02*
X179070000Y-80010000D01*
X168910000Y-85490000D02*
X174390000Y-80010000D01*
%TO.N,RST*%
X141697051Y-78012949D02*
X139700000Y-80010000D01*
X161832949Y-78012949D02*
X141697051Y-78012949D01*
X166370000Y-82550000D02*
X161832949Y-78012949D01*
X139700000Y-80010000D02*
X137795000Y-80010000D01*
%TO.N,BOOT0*%
X159942959Y-78662959D02*
X143587041Y-78662959D01*
X143587041Y-78662959D02*
X139700000Y-82550000D01*
X163830000Y-82550000D02*
X159942959Y-78662959D01*
X139700000Y-82550000D02*
X137795000Y-82550000D01*
%TO.N,RF3*%
X145477031Y-79312969D02*
X139700000Y-85090000D01*
X158052969Y-79312969D02*
X145477031Y-79312969D01*
X161290000Y-82550000D02*
X158052969Y-79312969D01*
X139700000Y-85090000D02*
X137795000Y-85090000D01*
%TO.N,RF2*%
X147367021Y-79962979D02*
X139700000Y-87630000D01*
X156162979Y-79962979D02*
X147367021Y-79962979D01*
X158750000Y-82550000D02*
X156162979Y-79962979D01*
X139700000Y-87630000D02*
X137795000Y-87630000D01*
%TO.N,GND*%
X149257011Y-80612989D02*
X139700000Y-90170000D01*
X154272989Y-80612989D02*
X149257011Y-80612989D01*
X156210000Y-82550000D02*
X154272989Y-80612989D01*
X139700000Y-90170000D02*
X137795000Y-90170000D01*
%TO.N,RF1V55*%
X150512239Y-81262999D02*
X148775000Y-83000238D01*
X152382999Y-81262999D02*
X150512239Y-81262999D01*
X153670000Y-82550000D02*
X152382999Y-81262999D01*
X148775000Y-83635000D02*
X139700000Y-92710000D01*
X148775000Y-83000238D02*
X148775000Y-83635000D01*
X139700000Y-92710000D02*
X137795000Y-92710000D01*
%TO.N,VDD*%
X151130000Y-83820000D02*
X139700000Y-95250000D01*
X151130000Y-82550000D02*
X151130000Y-83820000D01*
X139700000Y-95250000D02*
X137795000Y-95250000D01*
%TO.N,PB2*%
X148590000Y-92710000D02*
X143525000Y-97775000D01*
X139715000Y-97775000D02*
X139700000Y-97790000D01*
X143525000Y-97775000D02*
X139715000Y-97775000D01*
X137810000Y-97775000D02*
X137795000Y-97790000D01*
X139715000Y-97775000D02*
X137810000Y-97775000D01*
%TO.N,PB12*%
X148590000Y-95250000D02*
X144825000Y-99015000D01*
X144825000Y-99015000D02*
X144825000Y-99825000D01*
X144320000Y-100330000D02*
X139700000Y-100330000D01*
X144825000Y-99825000D02*
X144320000Y-100330000D01*
X139700000Y-100330000D02*
X137795000Y-100330000D01*
%TO.N,RX_1*%
X148590000Y-97790000D02*
X145325000Y-101055000D01*
X145325000Y-101055000D02*
X145325000Y-102075000D01*
X144530000Y-102870000D02*
X139700000Y-102870000D01*
X145325000Y-102075000D02*
X144530000Y-102870000D01*
X139700000Y-102870000D02*
X137795000Y-102870000D01*
%TO.N,PA11*%
X148590000Y-100330000D02*
X146002981Y-102917019D01*
X146002981Y-102917019D02*
X146002981Y-104547019D01*
X145140000Y-105410000D02*
X139700000Y-105410000D01*
X146002981Y-104547019D02*
X145140000Y-105410000D01*
X139700000Y-105410000D02*
X137795000Y-105410000D01*
%TO.N,PA12*%
X148590000Y-102870000D02*
X146652989Y-104807011D01*
X146652989Y-104807011D02*
X146652989Y-107147011D01*
X145850000Y-107950000D02*
X139700000Y-107950000D01*
X146652989Y-107147011D02*
X145850000Y-107950000D01*
X139700000Y-107950000D02*
X137795000Y-107950000D01*
%TO.N,SWDIO*%
X147302999Y-106697001D02*
X147302999Y-109247001D01*
X148590000Y-105410000D02*
X147302999Y-106697001D01*
X146060000Y-110490000D02*
X139700000Y-110490000D01*
X147302999Y-109247001D02*
X146060000Y-110490000D01*
X139700000Y-110490000D02*
X137795000Y-110490000D01*
%TO.N,VBAT*%
X148590000Y-107950000D02*
X148590000Y-110810000D01*
X146370000Y-113030000D02*
X139700000Y-113030000D01*
X148590000Y-110810000D02*
X146370000Y-113030000D01*
X139700000Y-113030000D02*
X137795000Y-113030000D01*
%TD*%
M02*
