M48
; DRILL file {KiCad (5.1.9-0-10_14)} date Wednesday, August 04, 2021 at 10:29:59 AM
; FORMAT={-:-/ absolute / inch / decimal}
; #@! TF.CreationDate,2021-08-04T10:29:59-05:00
; #@! TF.GenerationSoftware,Kicad,Pcbnew,(5.1.9-0-10_14)
; #@! TF.FileFunction,Plated,1,2,PTH
FMAT,2
INCH
T1C0.0157
T2C0.0394
%
G90
G05
T1
X5.925Y-3.325
X5.9469Y-3.4272
X6.0069Y-4.2638
X6.2618Y-3.0344
X6.3714Y-3.0714
X6.475Y-3.175
X6.5226Y-3.0335
X6.55Y-3.175
X6.575Y-3.0382
T2
X5.425Y-3.15
X5.425Y-3.25
X5.425Y-3.35
X5.425Y-3.45
X5.425Y-3.55
X5.425Y-3.65
X5.425Y-3.75
X5.425Y-3.85
X5.425Y-3.95
X5.425Y-4.05
X5.425Y-4.15
X5.425Y-4.25
X5.425Y-4.35
X5.425Y-4.45
X7.05Y-3.15
X7.05Y-3.25
X7.05Y-3.35
X7.05Y-3.45
X7.05Y-3.55
X7.05Y-3.65
X7.05Y-3.75
X7.05Y-3.85
X7.05Y-3.95
X7.05Y-4.05
X7.05Y-4.15
X7.05Y-4.25
X7.05Y-4.35
X7.05Y-4.45
T0
M30
