%TF.GenerationSoftware,KiCad,Pcbnew,(5.1.9-0-10_14)*%
%TF.CreationDate,2021-07-28T15:37:10-05:00*%
%TF.ProjectId,castellated_breakout,63617374-656c-46c6-9174-65645f627265,rev?*%
%TF.SameCoordinates,Original*%
%TF.FileFunction,Soldermask,Top*%
%TF.FilePolarity,Negative*%
%FSLAX46Y46*%
G04 Gerber Fmt 4.6, Leading zero omitted, Abs format (unit mm)*
G04 Created by KiCad (PCBNEW (5.1.9-0-10_14)) date 2021-07-28 15:37:10*
%MOMM*%
%LPD*%
G01*
G04 APERTURE LIST*
%ADD10O,1.700000X1.700000*%
%ADD11R,1.700000X1.700000*%
%ADD12C,1.524000*%
G04 APERTURE END LIST*
D10*
%TO.C,J2*%
X137795000Y-80010000D03*
X137795000Y-82550000D03*
X137795000Y-85090000D03*
X137795000Y-87630000D03*
X137795000Y-90170000D03*
X137795000Y-92710000D03*
X137795000Y-95250000D03*
X137795000Y-97790000D03*
X137795000Y-100330000D03*
X137795000Y-102870000D03*
X137795000Y-105410000D03*
X137795000Y-107950000D03*
X137795000Y-110490000D03*
D11*
X137795000Y-113030000D03*
%TD*%
D10*
%TO.C,J1*%
X179070000Y-113030000D03*
X179070000Y-110490000D03*
X179070000Y-107950000D03*
X179070000Y-105410000D03*
X179070000Y-102870000D03*
X179070000Y-100330000D03*
X179070000Y-97790000D03*
X179070000Y-95250000D03*
X179070000Y-92710000D03*
X179070000Y-90170000D03*
X179070000Y-87630000D03*
X179070000Y-85090000D03*
X179070000Y-82550000D03*
D11*
X179070000Y-80010000D03*
%TD*%
D12*
%TO.C,U1*%
X148590000Y-107950000D03*
X148590000Y-105410000D03*
X148590000Y-102870000D03*
X148590000Y-100330000D03*
X148590000Y-97790000D03*
X148590000Y-95250000D03*
X148590000Y-92710000D03*
X151130000Y-82550000D03*
X153670000Y-82550000D03*
X156210000Y-82550000D03*
X158750000Y-82550000D03*
X161290000Y-82550000D03*
X163830000Y-82550000D03*
X166370000Y-82550000D03*
X168910000Y-92710000D03*
X168910000Y-95250000D03*
X168910000Y-97790000D03*
X168910000Y-100330000D03*
X168910000Y-102870000D03*
X168910000Y-105410000D03*
X168910000Y-107950000D03*
X166370000Y-110490000D03*
X163830000Y-110490000D03*
X161290000Y-110490000D03*
X158750000Y-110490000D03*
X156210000Y-110490000D03*
X153670000Y-110490000D03*
X151130000Y-110490000D03*
%TD*%
M02*
