%TF.GenerationSoftware,KiCad,Pcbnew,(6.0.0-0)*%
%TF.CreationDate,2022-01-05T13:56:10-06:00*%
%TF.ProjectId,castellated_breakout,63617374-656c-46c6-9174-65645f627265,rev?*%
%TF.SameCoordinates,Original*%
%TF.FileFunction,Soldermask,Top*%
%TF.FilePolarity,Negative*%
%FSLAX46Y46*%
G04 Gerber Fmt 4.6, Leading zero omitted, Abs format (unit mm)*
G04 Created by KiCad (PCBNEW (6.0.0-0)) date 2022-01-05 13:56:10*
%MOMM*%
%LPD*%
G01*
G04 APERTURE LIST*
%ADD10C,2.374900*%
%ADD11C,0.990600*%
%ADD12C,0.787400*%
%ADD13O,1.700000X1.700000*%
%ADD14R,1.700000X1.700000*%
%ADD15C,1.524000*%
G04 APERTURE END LIST*
D10*
%TO.C,J3*%
X165300000Y-78655000D03*
X165300000Y-73575000D03*
X168475000Y-73575000D03*
X168475000Y-78655000D03*
D11*
X170380000Y-75099000D03*
X170380000Y-77131000D03*
X165300000Y-76115000D03*
D12*
X166570000Y-76750000D03*
X166570000Y-75480000D03*
X167840000Y-76750000D03*
X167840000Y-75480000D03*
X169110000Y-76750000D03*
X169110000Y-75480000D03*
%TD*%
D13*
%TO.C,J2*%
X137795000Y-80010000D03*
X137795000Y-82550000D03*
X137795000Y-85090000D03*
X137795000Y-87630000D03*
X137795000Y-90170000D03*
X137795000Y-92710000D03*
X137795000Y-95250000D03*
X137795000Y-97790000D03*
X137795000Y-100330000D03*
X137795000Y-102870000D03*
X137795000Y-105410000D03*
X137795000Y-107950000D03*
X137795000Y-110490000D03*
D14*
X137795000Y-113030000D03*
%TD*%
D13*
%TO.C,J1*%
X179070000Y-113030000D03*
X179070000Y-110490000D03*
X179070000Y-107950000D03*
X179070000Y-105410000D03*
X179070000Y-102870000D03*
X179070000Y-100330000D03*
X179070000Y-97790000D03*
X179070000Y-95250000D03*
X179070000Y-92710000D03*
X179070000Y-90170000D03*
X179070000Y-87630000D03*
X179070000Y-85090000D03*
X179070000Y-82550000D03*
D14*
X179070000Y-80010000D03*
%TD*%
D15*
%TO.C,U1*%
X148590000Y-107950000D03*
X148590000Y-105410000D03*
X148590000Y-102870000D03*
X148590000Y-100330000D03*
X148590000Y-97790000D03*
X148590000Y-95250000D03*
X148590000Y-92710000D03*
X151130000Y-82550000D03*
X153670000Y-82550000D03*
X156210000Y-82550000D03*
X158750000Y-82550000D03*
X161290000Y-82550000D03*
X163830000Y-82550000D03*
X166370000Y-82550000D03*
X168910000Y-92710000D03*
X168910000Y-95250000D03*
X168910000Y-97790000D03*
X168910000Y-100330000D03*
X168910000Y-102870000D03*
X168910000Y-105410000D03*
X168910000Y-107950000D03*
X166370000Y-110490000D03*
X163830000Y-110490000D03*
X161290000Y-110490000D03*
X158750000Y-110490000D03*
X156210000Y-110490000D03*
X153670000Y-110490000D03*
X151130000Y-110490000D03*
%TD*%
M02*
