%TF.GenerationSoftware,KiCad,Pcbnew,(5.1.9-0-10_14)*%
%TF.CreationDate,2021-08-04T10:29:57-05:00*%
%TF.ProjectId,castellated_breakout,63617374-656c-46c6-9174-65645f627265,rev?*%
%TF.SameCoordinates,Original*%
%TF.FileFunction,Legend,Top*%
%TF.FilePolarity,Positive*%
%FSLAX46Y46*%
G04 Gerber Fmt 4.6, Leading zero omitted, Abs format (unit mm)*
G04 Created by KiCad (PCBNEW (5.1.9-0-10_14)) date 2021-08-04 10:29:57*
%MOMM*%
%LPD*%
G01*
G04 APERTURE LIST*
%ADD10C,0.150000*%
%ADD11C,0.010000*%
%ADD12C,0.120000*%
G04 APERTURE END LIST*
D10*
X150892142Y-114085714D02*
X151130238Y-114752380D01*
X151368333Y-114085714D01*
X152273095Y-114752380D02*
X151701666Y-114752380D01*
X151987380Y-114752380D02*
X151987380Y-113752380D01*
X151892142Y-113895238D01*
X151796904Y-113990476D01*
X151701666Y-114038095D01*
X152701666Y-114657142D02*
X152749285Y-114704761D01*
X152701666Y-114752380D01*
X152654047Y-114704761D01*
X152701666Y-114657142D01*
X152701666Y-114752380D01*
X153701666Y-114752380D02*
X153130238Y-114752380D01*
X153415952Y-114752380D02*
X153415952Y-113752380D01*
X153320714Y-113895238D01*
X153225476Y-113990476D01*
X153130238Y-114038095D01*
X154130238Y-114657142D02*
X154177857Y-114704761D01*
X154130238Y-114752380D01*
X154082619Y-114704761D01*
X154130238Y-114657142D01*
X154130238Y-114752380D01*
X154796904Y-113752380D02*
X154892142Y-113752380D01*
X154987380Y-113800000D01*
X155035000Y-113847619D01*
X155082619Y-113942857D01*
X155130238Y-114133333D01*
X155130238Y-114371428D01*
X155082619Y-114561904D01*
X155035000Y-114657142D01*
X154987380Y-114704761D01*
X154892142Y-114752380D01*
X154796904Y-114752380D01*
X154701666Y-114704761D01*
X154654047Y-114657142D01*
X154606428Y-114561904D01*
X154558809Y-114371428D01*
X154558809Y-114133333D01*
X154606428Y-113942857D01*
X154654047Y-113847619D01*
X154701666Y-113800000D01*
X154796904Y-113752380D01*
X172353214Y-113434761D02*
X172496071Y-113482380D01*
X172734166Y-113482380D01*
X172829404Y-113434761D01*
X172877023Y-113387142D01*
X172924642Y-113291904D01*
X172924642Y-113196666D01*
X172877023Y-113101428D01*
X172829404Y-113053809D01*
X172734166Y-113006190D01*
X172543690Y-112958571D01*
X172448452Y-112910952D01*
X172400833Y-112863333D01*
X172353214Y-112768095D01*
X172353214Y-112672857D01*
X172400833Y-112577619D01*
X172448452Y-112530000D01*
X172543690Y-112482380D01*
X172781785Y-112482380D01*
X172924642Y-112530000D01*
X173257976Y-112482380D02*
X173496071Y-113482380D01*
X173686547Y-112768095D01*
X173877023Y-113482380D01*
X174115119Y-112482380D01*
X175067500Y-113387142D02*
X175019880Y-113434761D01*
X174877023Y-113482380D01*
X174781785Y-113482380D01*
X174638928Y-113434761D01*
X174543690Y-113339523D01*
X174496071Y-113244285D01*
X174448452Y-113053809D01*
X174448452Y-112910952D01*
X174496071Y-112720476D01*
X174543690Y-112625238D01*
X174638928Y-112530000D01*
X174781785Y-112482380D01*
X174877023Y-112482380D01*
X175019880Y-112530000D01*
X175067500Y-112577619D01*
X175972261Y-113482380D02*
X175496071Y-113482380D01*
X175496071Y-112482380D01*
X176305595Y-113482380D02*
X176305595Y-112482380D01*
X176877023Y-113482380D02*
X176448452Y-112910952D01*
X176877023Y-112482380D02*
X176305595Y-113053809D01*
X174591309Y-109942380D02*
X174591309Y-110656666D01*
X174543690Y-110799523D01*
X174448452Y-110894761D01*
X174305595Y-110942380D01*
X174210357Y-110942380D01*
X174924642Y-109942380D02*
X175496071Y-109942380D01*
X175210357Y-110942380D02*
X175210357Y-109942380D01*
X175829404Y-110942380D02*
X175829404Y-109942380D01*
X176067500Y-109942380D01*
X176210357Y-109990000D01*
X176305595Y-110085238D01*
X176353214Y-110180476D01*
X176400833Y-110370952D01*
X176400833Y-110513809D01*
X176353214Y-110704285D01*
X176305595Y-110799523D01*
X176210357Y-110894761D01*
X176067500Y-110942380D01*
X175829404Y-110942380D01*
X176829404Y-110942380D02*
X176829404Y-109942380D01*
X170067500Y-108402380D02*
X170067500Y-107402380D01*
X170305595Y-107402380D01*
X170448452Y-107450000D01*
X170543690Y-107545238D01*
X170591309Y-107640476D01*
X170638928Y-107830952D01*
X170638928Y-107973809D01*
X170591309Y-108164285D01*
X170543690Y-108259523D01*
X170448452Y-108354761D01*
X170305595Y-108402380D01*
X170067500Y-108402380D01*
X171400833Y-107878571D02*
X171543690Y-107926190D01*
X171591309Y-107973809D01*
X171638928Y-108069047D01*
X171638928Y-108211904D01*
X171591309Y-108307142D01*
X171543690Y-108354761D01*
X171448452Y-108402380D01*
X171067500Y-108402380D01*
X171067500Y-107402380D01*
X171400833Y-107402380D01*
X171496071Y-107450000D01*
X171543690Y-107497619D01*
X171591309Y-107592857D01*
X171591309Y-107688095D01*
X171543690Y-107783333D01*
X171496071Y-107830952D01*
X171400833Y-107878571D01*
X171067500Y-107878571D01*
X172591309Y-107450000D02*
X172496071Y-107402380D01*
X172353214Y-107402380D01*
X172210357Y-107450000D01*
X172115119Y-107545238D01*
X172067500Y-107640476D01*
X172019880Y-107830952D01*
X172019880Y-107973809D01*
X172067500Y-108164285D01*
X172115119Y-108259523D01*
X172210357Y-108354761D01*
X172353214Y-108402380D01*
X172448452Y-108402380D01*
X172591309Y-108354761D01*
X172638928Y-108307142D01*
X172638928Y-107973809D01*
X172448452Y-107973809D01*
X172829404Y-108497619D02*
X173591309Y-108497619D01*
X174115119Y-107402380D02*
X174115119Y-108116666D01*
X174067500Y-108259523D01*
X173972261Y-108354761D01*
X173829404Y-108402380D01*
X173734166Y-108402380D01*
X175162738Y-108402380D02*
X174829404Y-107926190D01*
X174591309Y-108402380D02*
X174591309Y-107402380D01*
X174972261Y-107402380D01*
X175067500Y-107450000D01*
X175115119Y-107497619D01*
X175162738Y-107592857D01*
X175162738Y-107735714D01*
X175115119Y-107830952D01*
X175067500Y-107878571D01*
X174972261Y-107926190D01*
X174591309Y-107926190D01*
X175543690Y-108354761D02*
X175686547Y-108402380D01*
X175924642Y-108402380D01*
X176019880Y-108354761D01*
X176067500Y-108307142D01*
X176115119Y-108211904D01*
X176115119Y-108116666D01*
X176067500Y-108021428D01*
X176019880Y-107973809D01*
X175924642Y-107926190D01*
X175734166Y-107878571D01*
X175638928Y-107830952D01*
X175591309Y-107783333D01*
X175543690Y-107688095D01*
X175543690Y-107592857D01*
X175591309Y-107497619D01*
X175638928Y-107450000D01*
X175734166Y-107402380D01*
X175972261Y-107402380D01*
X176115119Y-107450000D01*
X176400833Y-107402380D02*
X176972261Y-107402380D01*
X176686547Y-108402380D02*
X176686547Y-107402380D01*
X173734166Y-104862380D02*
X174305595Y-104862380D01*
X174019880Y-105862380D02*
X174019880Y-104862380D01*
X174543690Y-104862380D02*
X175210357Y-105862380D01*
X175210357Y-104862380D02*
X174543690Y-105862380D01*
X175353214Y-105957619D02*
X176115119Y-105957619D01*
X176877023Y-105862380D02*
X176305595Y-105862380D01*
X176591309Y-105862380D02*
X176591309Y-104862380D01*
X176496071Y-105005238D01*
X176400833Y-105100476D01*
X176305595Y-105148095D01*
X174115119Y-103274761D02*
X174257976Y-103322380D01*
X174496071Y-103322380D01*
X174591309Y-103274761D01*
X174638928Y-103227142D01*
X174686547Y-103131904D01*
X174686547Y-103036666D01*
X174638928Y-102941428D01*
X174591309Y-102893809D01*
X174496071Y-102846190D01*
X174305595Y-102798571D01*
X174210357Y-102750952D01*
X174162738Y-102703333D01*
X174115119Y-102608095D01*
X174115119Y-102512857D01*
X174162738Y-102417619D01*
X174210357Y-102370000D01*
X174305595Y-102322380D01*
X174543690Y-102322380D01*
X174686547Y-102370000D01*
X175019880Y-102322380D02*
X175257976Y-103322380D01*
X175448452Y-102608095D01*
X175638928Y-103322380D01*
X175877023Y-102322380D01*
X176448452Y-102322380D02*
X176638928Y-102322380D01*
X176734166Y-102370000D01*
X176829404Y-102465238D01*
X176877023Y-102655714D01*
X176877023Y-102989047D01*
X176829404Y-103179523D01*
X176734166Y-103274761D01*
X176638928Y-103322380D01*
X176448452Y-103322380D01*
X176353214Y-103274761D01*
X176257976Y-103179523D01*
X176210357Y-102989047D01*
X176210357Y-102655714D01*
X176257976Y-102465238D01*
X176353214Y-102370000D01*
X176448452Y-102322380D01*
X170448452Y-100734761D02*
X170591309Y-100782380D01*
X170829404Y-100782380D01*
X170924642Y-100734761D01*
X170972261Y-100687142D01*
X171019880Y-100591904D01*
X171019880Y-100496666D01*
X170972261Y-100401428D01*
X170924642Y-100353809D01*
X170829404Y-100306190D01*
X170638928Y-100258571D01*
X170543690Y-100210952D01*
X170496071Y-100163333D01*
X170448452Y-100068095D01*
X170448452Y-99972857D01*
X170496071Y-99877619D01*
X170543690Y-99830000D01*
X170638928Y-99782380D01*
X170877023Y-99782380D01*
X171019880Y-99830000D01*
X171448452Y-100782380D02*
X171448452Y-99782380D01*
X171829404Y-99782380D01*
X171924642Y-99830000D01*
X171972261Y-99877619D01*
X172019880Y-99972857D01*
X172019880Y-100115714D01*
X171972261Y-100210952D01*
X171924642Y-100258571D01*
X171829404Y-100306190D01*
X171448452Y-100306190D01*
X172448452Y-100782380D02*
X172448452Y-99782380D01*
X172686547Y-100877619D02*
X173448452Y-100877619D01*
X173686547Y-100782380D02*
X173686547Y-99782380D01*
X174019880Y-100496666D01*
X174353214Y-99782380D01*
X174353214Y-100782380D01*
X175019880Y-99782380D02*
X175210357Y-99782380D01*
X175305595Y-99830000D01*
X175400833Y-99925238D01*
X175448452Y-100115714D01*
X175448452Y-100449047D01*
X175400833Y-100639523D01*
X175305595Y-100734761D01*
X175210357Y-100782380D01*
X175019880Y-100782380D01*
X174924642Y-100734761D01*
X174829404Y-100639523D01*
X174781785Y-100449047D01*
X174781785Y-100115714D01*
X174829404Y-99925238D01*
X174924642Y-99830000D01*
X175019880Y-99782380D01*
X175829404Y-100734761D02*
X175972261Y-100782380D01*
X176210357Y-100782380D01*
X176305595Y-100734761D01*
X176353214Y-100687142D01*
X176400833Y-100591904D01*
X176400833Y-100496666D01*
X176353214Y-100401428D01*
X176305595Y-100353809D01*
X176210357Y-100306190D01*
X176019880Y-100258571D01*
X175924642Y-100210952D01*
X175877023Y-100163333D01*
X175829404Y-100068095D01*
X175829404Y-99972857D01*
X175877023Y-99877619D01*
X175924642Y-99830000D01*
X176019880Y-99782380D01*
X176257976Y-99782380D01*
X176400833Y-99830000D01*
X176829404Y-100782380D02*
X176829404Y-99782380D01*
X174448452Y-98194761D02*
X174591309Y-98242380D01*
X174829404Y-98242380D01*
X174924642Y-98194761D01*
X174972261Y-98147142D01*
X175019880Y-98051904D01*
X175019880Y-97956666D01*
X174972261Y-97861428D01*
X174924642Y-97813809D01*
X174829404Y-97766190D01*
X174638928Y-97718571D01*
X174543690Y-97670952D01*
X174496071Y-97623333D01*
X174448452Y-97528095D01*
X174448452Y-97432857D01*
X174496071Y-97337619D01*
X174543690Y-97290000D01*
X174638928Y-97242380D01*
X174877023Y-97242380D01*
X175019880Y-97290000D01*
X175448452Y-98242380D02*
X175448452Y-97242380D01*
X175686547Y-97242380D01*
X175829404Y-97290000D01*
X175924642Y-97385238D01*
X175972261Y-97480476D01*
X176019880Y-97670952D01*
X176019880Y-97813809D01*
X175972261Y-98004285D01*
X175924642Y-98099523D01*
X175829404Y-98194761D01*
X175686547Y-98242380D01*
X175448452Y-98242380D01*
X176400833Y-97956666D02*
X176877023Y-97956666D01*
X176305595Y-98242380D02*
X176638928Y-97242380D01*
X176972261Y-98242380D01*
X174496071Y-95654761D02*
X174638928Y-95702380D01*
X174877023Y-95702380D01*
X174972261Y-95654761D01*
X175019880Y-95607142D01*
X175067500Y-95511904D01*
X175067500Y-95416666D01*
X175019880Y-95321428D01*
X174972261Y-95273809D01*
X174877023Y-95226190D01*
X174686547Y-95178571D01*
X174591309Y-95130952D01*
X174543690Y-95083333D01*
X174496071Y-94988095D01*
X174496071Y-94892857D01*
X174543690Y-94797619D01*
X174591309Y-94750000D01*
X174686547Y-94702380D01*
X174924642Y-94702380D01*
X175067500Y-94750000D01*
X176067500Y-95607142D02*
X176019880Y-95654761D01*
X175877023Y-95702380D01*
X175781785Y-95702380D01*
X175638928Y-95654761D01*
X175543690Y-95559523D01*
X175496071Y-95464285D01*
X175448452Y-95273809D01*
X175448452Y-95130952D01*
X175496071Y-94940476D01*
X175543690Y-94845238D01*
X175638928Y-94750000D01*
X175781785Y-94702380D01*
X175877023Y-94702380D01*
X176019880Y-94750000D01*
X176067500Y-94797619D01*
X176972261Y-95702380D02*
X176496071Y-95702380D01*
X176496071Y-94702380D01*
X173019880Y-92162380D02*
X173257976Y-93162380D01*
X173448452Y-92448095D01*
X173638928Y-93162380D01*
X173877023Y-92162380D01*
X174257976Y-93162380D02*
X174257976Y-92162380D01*
X174829404Y-93162380D02*
X174400833Y-92590952D01*
X174829404Y-92162380D02*
X174257976Y-92733809D01*
X175257976Y-92162380D02*
X175257976Y-92971904D01*
X175305595Y-93067142D01*
X175353214Y-93114761D01*
X175448452Y-93162380D01*
X175638928Y-93162380D01*
X175734166Y-93114761D01*
X175781785Y-93067142D01*
X175829404Y-92971904D01*
X175829404Y-92162380D01*
X176305595Y-93162380D02*
X176305595Y-92162380D01*
X176686547Y-92162380D01*
X176781785Y-92210000D01*
X176829404Y-92257619D01*
X176877023Y-92352857D01*
X176877023Y-92495714D01*
X176829404Y-92590952D01*
X176781785Y-92638571D01*
X176686547Y-92686190D01*
X176305595Y-92686190D01*
X171257976Y-90574761D02*
X171400833Y-90622380D01*
X171638928Y-90622380D01*
X171734166Y-90574761D01*
X171781785Y-90527142D01*
X171829404Y-90431904D01*
X171829404Y-90336666D01*
X171781785Y-90241428D01*
X171734166Y-90193809D01*
X171638928Y-90146190D01*
X171448452Y-90098571D01*
X171353214Y-90050952D01*
X171305595Y-90003333D01*
X171257976Y-89908095D01*
X171257976Y-89812857D01*
X171305595Y-89717619D01*
X171353214Y-89670000D01*
X171448452Y-89622380D01*
X171686547Y-89622380D01*
X171829404Y-89670000D01*
X172257976Y-90622380D02*
X172257976Y-89622380D01*
X172638928Y-89622380D01*
X172734166Y-89670000D01*
X172781785Y-89717619D01*
X172829404Y-89812857D01*
X172829404Y-89955714D01*
X172781785Y-90050952D01*
X172734166Y-90098571D01*
X172638928Y-90146190D01*
X172257976Y-90146190D01*
X173257976Y-90622380D02*
X173257976Y-89622380D01*
X173496071Y-90717619D02*
X174257976Y-90717619D01*
X175067500Y-90527142D02*
X175019880Y-90574761D01*
X174877023Y-90622380D01*
X174781785Y-90622380D01*
X174638928Y-90574761D01*
X174543690Y-90479523D01*
X174496071Y-90384285D01*
X174448452Y-90193809D01*
X174448452Y-90050952D01*
X174496071Y-89860476D01*
X174543690Y-89765238D01*
X174638928Y-89670000D01*
X174781785Y-89622380D01*
X174877023Y-89622380D01*
X175019880Y-89670000D01*
X175067500Y-89717619D01*
X175972261Y-90622380D02*
X175496071Y-90622380D01*
X175496071Y-89622380D01*
X176305595Y-90622380D02*
X176305595Y-89622380D01*
X176877023Y-90622380D02*
X176448452Y-90050952D01*
X176877023Y-89622380D02*
X176305595Y-90193809D01*
X171829404Y-87082380D02*
X172162738Y-88082380D01*
X172496071Y-87082380D01*
X173400833Y-87987142D02*
X173353214Y-88034761D01*
X173210357Y-88082380D01*
X173115119Y-88082380D01*
X172972261Y-88034761D01*
X172877023Y-87939523D01*
X172829404Y-87844285D01*
X172781785Y-87653809D01*
X172781785Y-87510952D01*
X172829404Y-87320476D01*
X172877023Y-87225238D01*
X172972261Y-87130000D01*
X173115119Y-87082380D01*
X173210357Y-87082380D01*
X173353214Y-87130000D01*
X173400833Y-87177619D01*
X173829404Y-88082380D02*
X173829404Y-87082380D01*
X174210357Y-87082380D01*
X174305595Y-87130000D01*
X174353214Y-87177619D01*
X174400833Y-87272857D01*
X174400833Y-87415714D01*
X174353214Y-87510952D01*
X174305595Y-87558571D01*
X174210357Y-87606190D01*
X173829404Y-87606190D01*
X174591309Y-88177619D02*
X175353214Y-88177619D01*
X175448452Y-87082380D02*
X176019880Y-87082380D01*
X175734166Y-88082380D02*
X175734166Y-87082380D01*
X176257976Y-87082380D02*
X176924642Y-88082380D01*
X176924642Y-87082380D02*
X176257976Y-88082380D01*
X171591309Y-84542380D02*
X171924642Y-85542380D01*
X172257976Y-84542380D01*
X173162738Y-85447142D02*
X173115119Y-85494761D01*
X172972261Y-85542380D01*
X172877023Y-85542380D01*
X172734166Y-85494761D01*
X172638928Y-85399523D01*
X172591309Y-85304285D01*
X172543690Y-85113809D01*
X172543690Y-84970952D01*
X172591309Y-84780476D01*
X172638928Y-84685238D01*
X172734166Y-84590000D01*
X172877023Y-84542380D01*
X172972261Y-84542380D01*
X173115119Y-84590000D01*
X173162738Y-84637619D01*
X173591309Y-85542380D02*
X173591309Y-84542380D01*
X173972261Y-84542380D01*
X174067500Y-84590000D01*
X174115119Y-84637619D01*
X174162738Y-84732857D01*
X174162738Y-84875714D01*
X174115119Y-84970952D01*
X174067500Y-85018571D01*
X173972261Y-85066190D01*
X173591309Y-85066190D01*
X174353214Y-85637619D02*
X175115119Y-85637619D01*
X175924642Y-85542380D02*
X175591309Y-85066190D01*
X175353214Y-85542380D02*
X175353214Y-84542380D01*
X175734166Y-84542380D01*
X175829404Y-84590000D01*
X175877023Y-84637619D01*
X175924642Y-84732857D01*
X175924642Y-84875714D01*
X175877023Y-84970952D01*
X175829404Y-85018571D01*
X175734166Y-85066190D01*
X175353214Y-85066190D01*
X176257976Y-84542380D02*
X176924642Y-85542380D01*
X176924642Y-84542380D02*
X176257976Y-85542380D01*
X174496071Y-83002380D02*
X174496071Y-82002380D01*
X174877023Y-82002380D01*
X174972261Y-82050000D01*
X175019880Y-82097619D01*
X175067500Y-82192857D01*
X175067500Y-82335714D01*
X175019880Y-82430952D01*
X174972261Y-82478571D01*
X174877023Y-82526190D01*
X174496071Y-82526190D01*
X175448452Y-82716666D02*
X175924642Y-82716666D01*
X175353214Y-83002380D02*
X175686547Y-82002380D01*
X176019880Y-83002380D01*
X176829404Y-82002380D02*
X176353214Y-82002380D01*
X176305595Y-82478571D01*
X176353214Y-82430952D01*
X176448452Y-82383333D01*
X176686547Y-82383333D01*
X176781785Y-82430952D01*
X176829404Y-82478571D01*
X176877023Y-82573809D01*
X176877023Y-82811904D01*
X176829404Y-82907142D01*
X176781785Y-82954761D01*
X176686547Y-83002380D01*
X176448452Y-83002380D01*
X176353214Y-82954761D01*
X176305595Y-82907142D01*
X170448452Y-80414761D02*
X170591309Y-80462380D01*
X170829404Y-80462380D01*
X170924642Y-80414761D01*
X170972261Y-80367142D01*
X171019880Y-80271904D01*
X171019880Y-80176666D01*
X170972261Y-80081428D01*
X170924642Y-80033809D01*
X170829404Y-79986190D01*
X170638928Y-79938571D01*
X170543690Y-79890952D01*
X170496071Y-79843333D01*
X170448452Y-79748095D01*
X170448452Y-79652857D01*
X170496071Y-79557619D01*
X170543690Y-79510000D01*
X170638928Y-79462380D01*
X170877023Y-79462380D01*
X171019880Y-79510000D01*
X171448452Y-80462380D02*
X171448452Y-79462380D01*
X171829404Y-79462380D01*
X171924642Y-79510000D01*
X171972261Y-79557619D01*
X172019880Y-79652857D01*
X172019880Y-79795714D01*
X171972261Y-79890952D01*
X171924642Y-79938571D01*
X171829404Y-79986190D01*
X171448452Y-79986190D01*
X172448452Y-80462380D02*
X172448452Y-79462380D01*
X172686547Y-80557619D02*
X173448452Y-80557619D01*
X173686547Y-80462380D02*
X173686547Y-79462380D01*
X174019880Y-80176666D01*
X174353214Y-79462380D01*
X174353214Y-80462380D01*
X174829404Y-80462380D02*
X174829404Y-79462380D01*
X175257976Y-80414761D02*
X175400833Y-80462380D01*
X175638928Y-80462380D01*
X175734166Y-80414761D01*
X175781785Y-80367142D01*
X175829404Y-80271904D01*
X175829404Y-80176666D01*
X175781785Y-80081428D01*
X175734166Y-80033809D01*
X175638928Y-79986190D01*
X175448452Y-79938571D01*
X175353214Y-79890952D01*
X175305595Y-79843333D01*
X175257976Y-79748095D01*
X175257976Y-79652857D01*
X175305595Y-79557619D01*
X175353214Y-79510000D01*
X175448452Y-79462380D01*
X175686547Y-79462380D01*
X175829404Y-79510000D01*
X176448452Y-79462380D02*
X176638928Y-79462380D01*
X176734166Y-79510000D01*
X176829404Y-79605238D01*
X176877023Y-79795714D01*
X176877023Y-80129047D01*
X176829404Y-80319523D01*
X176734166Y-80414761D01*
X176638928Y-80462380D01*
X176448452Y-80462380D01*
X176353214Y-80414761D01*
X176257976Y-80319523D01*
X176210357Y-80129047D01*
X176210357Y-79795714D01*
X176257976Y-79605238D01*
X176353214Y-79510000D01*
X176448452Y-79462380D01*
X139892738Y-112482380D02*
X140226071Y-113482380D01*
X140559404Y-112482380D01*
X141226071Y-112958571D02*
X141368928Y-113006190D01*
X141416547Y-113053809D01*
X141464166Y-113149047D01*
X141464166Y-113291904D01*
X141416547Y-113387142D01*
X141368928Y-113434761D01*
X141273690Y-113482380D01*
X140892738Y-113482380D01*
X140892738Y-112482380D01*
X141226071Y-112482380D01*
X141321309Y-112530000D01*
X141368928Y-112577619D01*
X141416547Y-112672857D01*
X141416547Y-112768095D01*
X141368928Y-112863333D01*
X141321309Y-112910952D01*
X141226071Y-112958571D01*
X140892738Y-112958571D01*
X141845119Y-113196666D02*
X142321309Y-113196666D01*
X141749880Y-113482380D02*
X142083214Y-112482380D01*
X142416547Y-113482380D01*
X142607023Y-112482380D02*
X143178452Y-112482380D01*
X142892738Y-113482380D02*
X142892738Y-112482380D01*
X139987976Y-110894761D02*
X140130833Y-110942380D01*
X140368928Y-110942380D01*
X140464166Y-110894761D01*
X140511785Y-110847142D01*
X140559404Y-110751904D01*
X140559404Y-110656666D01*
X140511785Y-110561428D01*
X140464166Y-110513809D01*
X140368928Y-110466190D01*
X140178452Y-110418571D01*
X140083214Y-110370952D01*
X140035595Y-110323333D01*
X139987976Y-110228095D01*
X139987976Y-110132857D01*
X140035595Y-110037619D01*
X140083214Y-109990000D01*
X140178452Y-109942380D01*
X140416547Y-109942380D01*
X140559404Y-109990000D01*
X140892738Y-109942380D02*
X141130833Y-110942380D01*
X141321309Y-110228095D01*
X141511785Y-110942380D01*
X141749880Y-109942380D01*
X142130833Y-110942380D02*
X142130833Y-109942380D01*
X142368928Y-109942380D01*
X142511785Y-109990000D01*
X142607023Y-110085238D01*
X142654642Y-110180476D01*
X142702261Y-110370952D01*
X142702261Y-110513809D01*
X142654642Y-110704285D01*
X142607023Y-110799523D01*
X142511785Y-110894761D01*
X142368928Y-110942380D01*
X142130833Y-110942380D01*
X143130833Y-110942380D02*
X143130833Y-109942380D01*
X143797500Y-109942380D02*
X143987976Y-109942380D01*
X144083214Y-109990000D01*
X144178452Y-110085238D01*
X144226071Y-110275714D01*
X144226071Y-110609047D01*
X144178452Y-110799523D01*
X144083214Y-110894761D01*
X143987976Y-110942380D01*
X143797500Y-110942380D01*
X143702261Y-110894761D01*
X143607023Y-110799523D01*
X143559404Y-110609047D01*
X143559404Y-110275714D01*
X143607023Y-110085238D01*
X143702261Y-109990000D01*
X143797500Y-109942380D01*
X140035595Y-108402380D02*
X140035595Y-107402380D01*
X140416547Y-107402380D01*
X140511785Y-107450000D01*
X140559404Y-107497619D01*
X140607023Y-107592857D01*
X140607023Y-107735714D01*
X140559404Y-107830952D01*
X140511785Y-107878571D01*
X140416547Y-107926190D01*
X140035595Y-107926190D01*
X140987976Y-108116666D02*
X141464166Y-108116666D01*
X140892738Y-108402380D02*
X141226071Y-107402380D01*
X141559404Y-108402380D01*
X142416547Y-108402380D02*
X141845119Y-108402380D01*
X142130833Y-108402380D02*
X142130833Y-107402380D01*
X142035595Y-107545238D01*
X141940357Y-107640476D01*
X141845119Y-107688095D01*
X142797500Y-107497619D02*
X142845119Y-107450000D01*
X142940357Y-107402380D01*
X143178452Y-107402380D01*
X143273690Y-107450000D01*
X143321309Y-107497619D01*
X143368928Y-107592857D01*
X143368928Y-107688095D01*
X143321309Y-107830952D01*
X142749880Y-108402380D01*
X143368928Y-108402380D01*
X140035595Y-105862380D02*
X140035595Y-104862380D01*
X140416547Y-104862380D01*
X140511785Y-104910000D01*
X140559404Y-104957619D01*
X140607023Y-105052857D01*
X140607023Y-105195714D01*
X140559404Y-105290952D01*
X140511785Y-105338571D01*
X140416547Y-105386190D01*
X140035595Y-105386190D01*
X140987976Y-105576666D02*
X141464166Y-105576666D01*
X140892738Y-105862380D02*
X141226071Y-104862380D01*
X141559404Y-105862380D01*
X142416547Y-105862380D02*
X141845119Y-105862380D01*
X142130833Y-105862380D02*
X142130833Y-104862380D01*
X142035595Y-105005238D01*
X141940357Y-105100476D01*
X141845119Y-105148095D01*
X143368928Y-105862380D02*
X142797500Y-105862380D01*
X143083214Y-105862380D02*
X143083214Y-104862380D01*
X142987976Y-105005238D01*
X142892738Y-105100476D01*
X142797500Y-105148095D01*
X140607023Y-103322380D02*
X140273690Y-102846190D01*
X140035595Y-103322380D02*
X140035595Y-102322380D01*
X140416547Y-102322380D01*
X140511785Y-102370000D01*
X140559404Y-102417619D01*
X140607023Y-102512857D01*
X140607023Y-102655714D01*
X140559404Y-102750952D01*
X140511785Y-102798571D01*
X140416547Y-102846190D01*
X140035595Y-102846190D01*
X140940357Y-102322380D02*
X141607023Y-103322380D01*
X141607023Y-102322380D02*
X140940357Y-103322380D01*
X141749880Y-103417619D02*
X142511785Y-103417619D01*
X143273690Y-103322380D02*
X142702261Y-103322380D01*
X142987976Y-103322380D02*
X142987976Y-102322380D01*
X142892738Y-102465238D01*
X142797500Y-102560476D01*
X142702261Y-102608095D01*
X140035595Y-100782380D02*
X140035595Y-99782380D01*
X140416547Y-99782380D01*
X140511785Y-99830000D01*
X140559404Y-99877619D01*
X140607023Y-99972857D01*
X140607023Y-100115714D01*
X140559404Y-100210952D01*
X140511785Y-100258571D01*
X140416547Y-100306190D01*
X140035595Y-100306190D01*
X141368928Y-100258571D02*
X141511785Y-100306190D01*
X141559404Y-100353809D01*
X141607023Y-100449047D01*
X141607023Y-100591904D01*
X141559404Y-100687142D01*
X141511785Y-100734761D01*
X141416547Y-100782380D01*
X141035595Y-100782380D01*
X141035595Y-99782380D01*
X141368928Y-99782380D01*
X141464166Y-99830000D01*
X141511785Y-99877619D01*
X141559404Y-99972857D01*
X141559404Y-100068095D01*
X141511785Y-100163333D01*
X141464166Y-100210952D01*
X141368928Y-100258571D01*
X141035595Y-100258571D01*
X142559404Y-100782380D02*
X141987976Y-100782380D01*
X142273690Y-100782380D02*
X142273690Y-99782380D01*
X142178452Y-99925238D01*
X142083214Y-100020476D01*
X141987976Y-100068095D01*
X142940357Y-99877619D02*
X142987976Y-99830000D01*
X143083214Y-99782380D01*
X143321309Y-99782380D01*
X143416547Y-99830000D01*
X143464166Y-99877619D01*
X143511785Y-99972857D01*
X143511785Y-100068095D01*
X143464166Y-100210952D01*
X142892738Y-100782380D01*
X143511785Y-100782380D01*
X140035595Y-98242380D02*
X140035595Y-97242380D01*
X140416547Y-97242380D01*
X140511785Y-97290000D01*
X140559404Y-97337619D01*
X140607023Y-97432857D01*
X140607023Y-97575714D01*
X140559404Y-97670952D01*
X140511785Y-97718571D01*
X140416547Y-97766190D01*
X140035595Y-97766190D01*
X141368928Y-97718571D02*
X141511785Y-97766190D01*
X141559404Y-97813809D01*
X141607023Y-97909047D01*
X141607023Y-98051904D01*
X141559404Y-98147142D01*
X141511785Y-98194761D01*
X141416547Y-98242380D01*
X141035595Y-98242380D01*
X141035595Y-97242380D01*
X141368928Y-97242380D01*
X141464166Y-97290000D01*
X141511785Y-97337619D01*
X141559404Y-97432857D01*
X141559404Y-97528095D01*
X141511785Y-97623333D01*
X141464166Y-97670952D01*
X141368928Y-97718571D01*
X141035595Y-97718571D01*
X141987976Y-97337619D02*
X142035595Y-97290000D01*
X142130833Y-97242380D01*
X142368928Y-97242380D01*
X142464166Y-97290000D01*
X142511785Y-97337619D01*
X142559404Y-97432857D01*
X142559404Y-97528095D01*
X142511785Y-97670952D01*
X141940357Y-98242380D01*
X142559404Y-98242380D01*
X139892738Y-94702380D02*
X140226071Y-95702380D01*
X140559404Y-94702380D01*
X140892738Y-95702380D02*
X140892738Y-94702380D01*
X141130833Y-94702380D01*
X141273690Y-94750000D01*
X141368928Y-94845238D01*
X141416547Y-94940476D01*
X141464166Y-95130952D01*
X141464166Y-95273809D01*
X141416547Y-95464285D01*
X141368928Y-95559523D01*
X141273690Y-95654761D01*
X141130833Y-95702380D01*
X140892738Y-95702380D01*
X141892738Y-95702380D02*
X141892738Y-94702380D01*
X142130833Y-94702380D01*
X142273690Y-94750000D01*
X142368928Y-94845238D01*
X142416547Y-94940476D01*
X142464166Y-95130952D01*
X142464166Y-95273809D01*
X142416547Y-95464285D01*
X142368928Y-95559523D01*
X142273690Y-95654761D01*
X142130833Y-95702380D01*
X141892738Y-95702380D01*
X140607023Y-93162380D02*
X140273690Y-92686190D01*
X140035595Y-93162380D02*
X140035595Y-92162380D01*
X140416547Y-92162380D01*
X140511785Y-92210000D01*
X140559404Y-92257619D01*
X140607023Y-92352857D01*
X140607023Y-92495714D01*
X140559404Y-92590952D01*
X140511785Y-92638571D01*
X140416547Y-92686190D01*
X140035595Y-92686190D01*
X141368928Y-92638571D02*
X141035595Y-92638571D01*
X141035595Y-93162380D02*
X141035595Y-92162380D01*
X141511785Y-92162380D01*
X142416547Y-93162380D02*
X141845119Y-93162380D01*
X142130833Y-93162380D02*
X142130833Y-92162380D01*
X142035595Y-92305238D01*
X141940357Y-92400476D01*
X141845119Y-92448095D01*
X142702261Y-92162380D02*
X143035595Y-93162380D01*
X143368928Y-92162380D01*
X144178452Y-92162380D02*
X143702261Y-92162380D01*
X143654642Y-92638571D01*
X143702261Y-92590952D01*
X143797500Y-92543333D01*
X144035595Y-92543333D01*
X144130833Y-92590952D01*
X144178452Y-92638571D01*
X144226071Y-92733809D01*
X144226071Y-92971904D01*
X144178452Y-93067142D01*
X144130833Y-93114761D01*
X144035595Y-93162380D01*
X143797500Y-93162380D01*
X143702261Y-93114761D01*
X143654642Y-93067142D01*
X145130833Y-92162380D02*
X144654642Y-92162380D01*
X144607023Y-92638571D01*
X144654642Y-92590952D01*
X144749880Y-92543333D01*
X144987976Y-92543333D01*
X145083214Y-92590952D01*
X145130833Y-92638571D01*
X145178452Y-92733809D01*
X145178452Y-92971904D01*
X145130833Y-93067142D01*
X145083214Y-93114761D01*
X144987976Y-93162380D01*
X144749880Y-93162380D01*
X144654642Y-93114761D01*
X144607023Y-93067142D01*
X140559404Y-89670000D02*
X140464166Y-89622380D01*
X140321309Y-89622380D01*
X140178452Y-89670000D01*
X140083214Y-89765238D01*
X140035595Y-89860476D01*
X139987976Y-90050952D01*
X139987976Y-90193809D01*
X140035595Y-90384285D01*
X140083214Y-90479523D01*
X140178452Y-90574761D01*
X140321309Y-90622380D01*
X140416547Y-90622380D01*
X140559404Y-90574761D01*
X140607023Y-90527142D01*
X140607023Y-90193809D01*
X140416547Y-90193809D01*
X141035595Y-90622380D02*
X141035595Y-89622380D01*
X141607023Y-90622380D01*
X141607023Y-89622380D01*
X142083214Y-90622380D02*
X142083214Y-89622380D01*
X142321309Y-89622380D01*
X142464166Y-89670000D01*
X142559404Y-89765238D01*
X142607023Y-89860476D01*
X142654642Y-90050952D01*
X142654642Y-90193809D01*
X142607023Y-90384285D01*
X142559404Y-90479523D01*
X142464166Y-90574761D01*
X142321309Y-90622380D01*
X142083214Y-90622380D01*
X140607023Y-88082380D02*
X140273690Y-87606190D01*
X140035595Y-88082380D02*
X140035595Y-87082380D01*
X140416547Y-87082380D01*
X140511785Y-87130000D01*
X140559404Y-87177619D01*
X140607023Y-87272857D01*
X140607023Y-87415714D01*
X140559404Y-87510952D01*
X140511785Y-87558571D01*
X140416547Y-87606190D01*
X140035595Y-87606190D01*
X141368928Y-87558571D02*
X141035595Y-87558571D01*
X141035595Y-88082380D02*
X141035595Y-87082380D01*
X141511785Y-87082380D01*
X141845119Y-87177619D02*
X141892738Y-87130000D01*
X141987976Y-87082380D01*
X142226071Y-87082380D01*
X142321309Y-87130000D01*
X142368928Y-87177619D01*
X142416547Y-87272857D01*
X142416547Y-87368095D01*
X142368928Y-87510952D01*
X141797500Y-88082380D01*
X142416547Y-88082380D01*
X140607023Y-85542380D02*
X140273690Y-85066190D01*
X140035595Y-85542380D02*
X140035595Y-84542380D01*
X140416547Y-84542380D01*
X140511785Y-84590000D01*
X140559404Y-84637619D01*
X140607023Y-84732857D01*
X140607023Y-84875714D01*
X140559404Y-84970952D01*
X140511785Y-85018571D01*
X140416547Y-85066190D01*
X140035595Y-85066190D01*
X141368928Y-85018571D02*
X141035595Y-85018571D01*
X141035595Y-85542380D02*
X141035595Y-84542380D01*
X141511785Y-84542380D01*
X141797500Y-84542380D02*
X142416547Y-84542380D01*
X142083214Y-84923333D01*
X142226071Y-84923333D01*
X142321309Y-84970952D01*
X142368928Y-85018571D01*
X142416547Y-85113809D01*
X142416547Y-85351904D01*
X142368928Y-85447142D01*
X142321309Y-85494761D01*
X142226071Y-85542380D01*
X141940357Y-85542380D01*
X141845119Y-85494761D01*
X141797500Y-85447142D01*
X140368928Y-82478571D02*
X140511785Y-82526190D01*
X140559404Y-82573809D01*
X140607023Y-82669047D01*
X140607023Y-82811904D01*
X140559404Y-82907142D01*
X140511785Y-82954761D01*
X140416547Y-83002380D01*
X140035595Y-83002380D01*
X140035595Y-82002380D01*
X140368928Y-82002380D01*
X140464166Y-82050000D01*
X140511785Y-82097619D01*
X140559404Y-82192857D01*
X140559404Y-82288095D01*
X140511785Y-82383333D01*
X140464166Y-82430952D01*
X140368928Y-82478571D01*
X140035595Y-82478571D01*
X141226071Y-82002380D02*
X141416547Y-82002380D01*
X141511785Y-82050000D01*
X141607023Y-82145238D01*
X141654642Y-82335714D01*
X141654642Y-82669047D01*
X141607023Y-82859523D01*
X141511785Y-82954761D01*
X141416547Y-83002380D01*
X141226071Y-83002380D01*
X141130833Y-82954761D01*
X141035595Y-82859523D01*
X140987976Y-82669047D01*
X140987976Y-82335714D01*
X141035595Y-82145238D01*
X141130833Y-82050000D01*
X141226071Y-82002380D01*
X142273690Y-82002380D02*
X142464166Y-82002380D01*
X142559404Y-82050000D01*
X142654642Y-82145238D01*
X142702261Y-82335714D01*
X142702261Y-82669047D01*
X142654642Y-82859523D01*
X142559404Y-82954761D01*
X142464166Y-83002380D01*
X142273690Y-83002380D01*
X142178452Y-82954761D01*
X142083214Y-82859523D01*
X142035595Y-82669047D01*
X142035595Y-82335714D01*
X142083214Y-82145238D01*
X142178452Y-82050000D01*
X142273690Y-82002380D01*
X142987976Y-82002380D02*
X143559404Y-82002380D01*
X143273690Y-83002380D02*
X143273690Y-82002380D01*
X144083214Y-82002380D02*
X144178452Y-82002380D01*
X144273690Y-82050000D01*
X144321309Y-82097619D01*
X144368928Y-82192857D01*
X144416547Y-82383333D01*
X144416547Y-82621428D01*
X144368928Y-82811904D01*
X144321309Y-82907142D01*
X144273690Y-82954761D01*
X144178452Y-83002380D01*
X144083214Y-83002380D01*
X143987976Y-82954761D01*
X143940357Y-82907142D01*
X143892738Y-82811904D01*
X143845119Y-82621428D01*
X143845119Y-82383333D01*
X143892738Y-82192857D01*
X143940357Y-82097619D01*
X143987976Y-82050000D01*
X144083214Y-82002380D01*
X140607023Y-80462380D02*
X140273690Y-79986190D01*
X140035595Y-80462380D02*
X140035595Y-79462380D01*
X140416547Y-79462380D01*
X140511785Y-79510000D01*
X140559404Y-79557619D01*
X140607023Y-79652857D01*
X140607023Y-79795714D01*
X140559404Y-79890952D01*
X140511785Y-79938571D01*
X140416547Y-79986190D01*
X140035595Y-79986190D01*
X140987976Y-80414761D02*
X141130833Y-80462380D01*
X141368928Y-80462380D01*
X141464166Y-80414761D01*
X141511785Y-80367142D01*
X141559404Y-80271904D01*
X141559404Y-80176666D01*
X141511785Y-80081428D01*
X141464166Y-80033809D01*
X141368928Y-79986190D01*
X141178452Y-79938571D01*
X141083214Y-79890952D01*
X141035595Y-79843333D01*
X140987976Y-79748095D01*
X140987976Y-79652857D01*
X141035595Y-79557619D01*
X141083214Y-79510000D01*
X141178452Y-79462380D01*
X141416547Y-79462380D01*
X141559404Y-79510000D01*
X141845119Y-79462380D02*
X142416547Y-79462380D01*
X142130833Y-80462380D02*
X142130833Y-79462380D01*
D11*
%TO.C,G\u002A\u002A\u002A*%
G36*
X147994834Y-112838915D02*
G01*
X148017923Y-112867443D01*
X148025400Y-112899845D01*
X148028985Y-112911827D01*
X148040677Y-112930332D01*
X148061879Y-112956875D01*
X148093995Y-112992969D01*
X148138427Y-113040130D01*
X148196580Y-113099872D01*
X148269857Y-113173709D01*
X148359661Y-113263155D01*
X148389407Y-113292638D01*
X148753415Y-113653100D01*
X149397000Y-113653100D01*
X149397000Y-113259400D01*
X149422400Y-113259400D01*
X149422400Y-113653660D01*
X149659246Y-113650205D01*
X149896093Y-113646750D01*
X149890927Y-113418150D01*
X149734283Y-113259400D01*
X149422400Y-113259400D01*
X149397000Y-113259400D01*
X149317307Y-113259399D01*
X149237614Y-113259399D01*
X149144787Y-113165949D01*
X149103197Y-113123596D01*
X149076518Y-113093835D01*
X149061640Y-113071356D01*
X149055454Y-113050850D01*
X149054850Y-113027007D01*
X149055579Y-113013638D01*
X149055118Y-112972065D01*
X149045990Y-112947376D01*
X149036510Y-112938188D01*
X149020446Y-112912736D01*
X149019892Y-112899701D01*
X149046094Y-112899701D01*
X149062610Y-112914591D01*
X149073899Y-112916500D01*
X149088735Y-112905925D01*
X149092200Y-112891100D01*
X149083162Y-112870668D01*
X149063913Y-112866206D01*
X149047750Y-112878400D01*
X149046094Y-112899701D01*
X149019892Y-112899701D01*
X149018996Y-112878656D01*
X149031360Y-112847507D01*
X149043588Y-112835918D01*
X149075370Y-112828608D01*
X149105401Y-112840969D01*
X149125851Y-112868006D01*
X149130300Y-112891226D01*
X149124364Y-112922587D01*
X149111250Y-112937307D01*
X149098640Y-112951951D01*
X149092847Y-112985845D01*
X149092200Y-113010300D01*
X149093067Y-113042533D01*
X149098036Y-113066815D01*
X149110654Y-113089561D01*
X149134469Y-113117183D01*
X149172659Y-113155728D01*
X149253118Y-113235472D01*
X149390650Y-113227650D01*
X149394289Y-113095613D01*
X149395495Y-113035306D01*
X149394582Y-112994713D01*
X149390718Y-112968183D01*
X149383069Y-112950063D01*
X149370802Y-112934701D01*
X149370511Y-112934391D01*
X149351980Y-112901584D01*
X149352227Y-112891642D01*
X149384192Y-112891642D01*
X149393031Y-112908297D01*
X149411418Y-112913442D01*
X149426375Y-112900943D01*
X149428750Y-112890215D01*
X149418193Y-112873035D01*
X149406525Y-112868117D01*
X149388696Y-112873567D01*
X149384192Y-112891642D01*
X149352227Y-112891642D01*
X149352769Y-112869858D01*
X149368295Y-112844354D01*
X149393975Y-112830213D01*
X149425228Y-112832575D01*
X149448311Y-112847113D01*
X149470311Y-112879001D01*
X149466950Y-112911388D01*
X149447394Y-112935917D01*
X149435835Y-112948727D01*
X149428585Y-112965448D01*
X149424889Y-112991427D01*
X149423994Y-113032010D01*
X149425144Y-113092547D01*
X149425169Y-113093460D01*
X149428750Y-113227650D01*
X149595285Y-113231181D01*
X149761821Y-113234713D01*
X149846110Y-113322021D01*
X149930400Y-113409330D01*
X149930400Y-113653100D01*
X149965026Y-113653099D01*
X149987761Y-113658467D01*
X150016597Y-113676325D01*
X150055190Y-113709311D01*
X150091410Y-113744245D01*
X150183167Y-113835390D01*
X150175380Y-114684585D01*
X150167592Y-115533781D01*
X150195046Y-115553010D01*
X150218964Y-115581370D01*
X150222290Y-115612594D01*
X150207885Y-115639799D01*
X150178613Y-115656102D01*
X150151612Y-115657442D01*
X150118812Y-115643906D01*
X150104638Y-115617145D01*
X150105592Y-115612077D01*
X150136668Y-115612077D01*
X150140364Y-115622270D01*
X150156643Y-115631636D01*
X150174079Y-115622144D01*
X150182156Y-115604672D01*
X150176859Y-115586587D01*
X150167030Y-115583500D01*
X150143949Y-115592219D01*
X150136668Y-115612077D01*
X150105592Y-115612077D01*
X150111049Y-115583102D01*
X150121609Y-115566432D01*
X150128110Y-115557021D01*
X150133360Y-115545271D01*
X150137492Y-115528560D01*
X150140639Y-115504266D01*
X150142935Y-115469765D01*
X150144512Y-115422436D01*
X150145503Y-115359655D01*
X150146043Y-115278800D01*
X150146263Y-115177248D01*
X150146300Y-115080244D01*
X150146300Y-114625445D01*
X150072906Y-114698072D01*
X150027854Y-114739463D01*
X149993777Y-114762800D01*
X149966843Y-114770662D01*
X149964956Y-114770700D01*
X149930400Y-114770700D01*
X149930400Y-115156494D01*
X149930558Y-115267993D01*
X149931115Y-115356725D01*
X149932196Y-115425322D01*
X149933927Y-115476417D01*
X149936431Y-115512641D01*
X149939834Y-115536626D01*
X149944261Y-115551005D01*
X149949450Y-115558100D01*
X149965747Y-115585929D01*
X149966018Y-115620315D01*
X149953260Y-115644460D01*
X149930030Y-115655541D01*
X149897790Y-115659605D01*
X149869948Y-115655650D01*
X149862666Y-115651233D01*
X149854538Y-115628520D01*
X149855361Y-115612077D01*
X149882668Y-115612077D01*
X149886364Y-115622270D01*
X149902643Y-115631636D01*
X149920079Y-115622144D01*
X149928156Y-115604672D01*
X149922859Y-115586587D01*
X149913030Y-115583500D01*
X149889949Y-115592219D01*
X149882668Y-115612077D01*
X149855361Y-115612077D01*
X149856163Y-115596088D01*
X149866058Y-115566995D01*
X149873250Y-115558100D01*
X149878749Y-115550335D01*
X149883107Y-115535431D01*
X149886450Y-115510755D01*
X149888902Y-115473675D01*
X149890588Y-115421560D01*
X149891633Y-115351777D01*
X149892162Y-115261694D01*
X149892300Y-115156494D01*
X149892300Y-114770700D01*
X149676400Y-114770700D01*
X149676400Y-114805942D01*
X149671504Y-114828174D01*
X149654954Y-114855559D01*
X149623954Y-114891943D01*
X149584026Y-114932942D01*
X149491652Y-115024700D01*
X148429355Y-115024700D01*
X148239611Y-115024728D01*
X148073616Y-115024836D01*
X147929721Y-115025056D01*
X147806274Y-115025421D01*
X147701625Y-115025964D01*
X147614124Y-115026718D01*
X147542121Y-115027715D01*
X147483964Y-115028989D01*
X147438003Y-115030572D01*
X147402589Y-115032496D01*
X147376070Y-115034796D01*
X147356796Y-115037503D01*
X147343117Y-115040651D01*
X147333382Y-115044273D01*
X147328902Y-115046598D01*
X147301956Y-115060319D01*
X147284817Y-115060202D01*
X147265767Y-115045889D01*
X147264372Y-115044630D01*
X147242754Y-115012345D01*
X147240723Y-114988828D01*
X147267787Y-114988828D01*
X147275782Y-115005263D01*
X147276354Y-115005956D01*
X147293781Y-115018016D01*
X147310073Y-115010154D01*
X147320392Y-114991912D01*
X147315591Y-114982911D01*
X147294550Y-114976280D01*
X147281873Y-114978713D01*
X147267787Y-114988828D01*
X147240723Y-114988828D01*
X147239705Y-114977048D01*
X147253239Y-114951040D01*
X147282946Y-114936947D01*
X147316813Y-114940808D01*
X147342547Y-114961200D01*
X147345795Y-114965705D01*
X147350626Y-114969643D01*
X147358664Y-114973053D01*
X147371533Y-114975972D01*
X147390856Y-114978439D01*
X147418258Y-114980491D01*
X147455363Y-114982166D01*
X147503796Y-114983504D01*
X147565179Y-114984541D01*
X147641138Y-114985316D01*
X147733296Y-114985867D01*
X147843278Y-114986233D01*
X147972707Y-114986451D01*
X148123208Y-114986559D01*
X148296404Y-114986596D01*
X148424961Y-114986600D01*
X149491513Y-114986600D01*
X149564906Y-114913972D01*
X149605852Y-114870567D01*
X149629245Y-114837814D01*
X149638033Y-114811373D01*
X149638300Y-114806022D01*
X149634391Y-114780270D01*
X149617317Y-114771357D01*
X149603034Y-114770700D01*
X149579810Y-114765502D01*
X149551369Y-114748004D01*
X149513697Y-114715345D01*
X149482630Y-114684904D01*
X149397492Y-114599109D01*
X149397181Y-114572698D01*
X149421890Y-114572698D01*
X149504828Y-114656277D01*
X149544886Y-114696255D01*
X149576002Y-114724540D01*
X149599305Y-114739412D01*
X149615924Y-114739156D01*
X149626990Y-114722052D01*
X149633630Y-114686382D01*
X149636976Y-114630430D01*
X149638156Y-114552476D01*
X149638300Y-114453256D01*
X149638300Y-114166654D01*
X149565275Y-114095031D01*
X149526127Y-114059928D01*
X149490045Y-114033298D01*
X149463546Y-114019858D01*
X149460500Y-114019228D01*
X149428750Y-114015050D01*
X149421890Y-114572698D01*
X149397181Y-114572698D01*
X149390650Y-114018491D01*
X149231900Y-114020403D01*
X149073150Y-114022316D01*
X148734548Y-113682460D01*
X148787400Y-113682460D01*
X148795922Y-113692439D01*
X148819506Y-113717244D01*
X148855175Y-113753815D01*
X148899954Y-113799095D01*
X148935884Y-113835090D01*
X149084368Y-113983300D01*
X149397806Y-113983300D01*
X149422400Y-113983300D01*
X149462466Y-113983300D01*
X149484420Y-113986352D01*
X149507195Y-113997752D01*
X149535423Y-114020864D01*
X149573733Y-114059052D01*
X149589227Y-114075375D01*
X149675921Y-114167450D01*
X149676160Y-114450025D01*
X149676400Y-114732600D01*
X149892300Y-114732600D01*
X149892300Y-114106291D01*
X149892301Y-114002267D01*
X149892304Y-113908914D01*
X149892307Y-113828971D01*
X149892310Y-113765176D01*
X149892314Y-113720267D01*
X149892319Y-113696981D01*
X149892321Y-113694375D01*
X149880287Y-113691194D01*
X149846805Y-113688087D01*
X149795829Y-113685272D01*
X149731310Y-113682968D01*
X149657371Y-113681394D01*
X149460554Y-113678500D01*
X149930400Y-113678500D01*
X149930400Y-114203433D01*
X149930569Y-114316455D01*
X149931051Y-114421473D01*
X149931811Y-114515793D01*
X149932812Y-114596721D01*
X149934016Y-114661564D01*
X149935389Y-114707629D01*
X149936892Y-114732223D01*
X149937615Y-114735582D01*
X149953251Y-114741148D01*
X149976856Y-114731798D01*
X150010958Y-114705942D01*
X150058084Y-114661989D01*
X150064197Y-114655956D01*
X150146300Y-114574583D01*
X150146300Y-113837933D01*
X150067291Y-113758216D01*
X150018706Y-113712932D01*
X149981214Y-113685980D01*
X149959341Y-113678500D01*
X149930400Y-113678500D01*
X149460554Y-113678500D01*
X149422400Y-113677939D01*
X149422400Y-113983300D01*
X149397806Y-113983300D01*
X149390650Y-113684850D01*
X149089025Y-113681445D01*
X149004540Y-113680669D01*
X148929187Y-113680317D01*
X148866455Y-113680377D01*
X148819832Y-113680838D01*
X148792807Y-113681688D01*
X148787400Y-113682460D01*
X148734548Y-113682460D01*
X148730602Y-113678500D01*
X148043006Y-113678500D01*
X147891219Y-113678573D01*
X147762871Y-113678828D01*
X147656004Y-113679318D01*
X147568658Y-113680097D01*
X147498872Y-113681216D01*
X147444688Y-113682730D01*
X147404145Y-113684691D01*
X147375285Y-113687153D01*
X147356146Y-113690168D01*
X147344770Y-113693790D01*
X147339599Y-113697550D01*
X147311101Y-113715738D01*
X147279173Y-113714554D01*
X147252164Y-113697126D01*
X147238422Y-113666587D01*
X147238000Y-113659450D01*
X147238081Y-113659184D01*
X147269950Y-113659184D01*
X147277628Y-113673991D01*
X147294884Y-113684649D01*
X147309691Y-113676971D01*
X147320349Y-113659715D01*
X147312671Y-113644908D01*
X147295415Y-113634250D01*
X147280608Y-113641928D01*
X147269950Y-113659184D01*
X147238081Y-113659184D01*
X147247998Y-113626709D01*
X147272530Y-113606812D01*
X147303405Y-113602249D01*
X147332428Y-113615506D01*
X147342547Y-113627700D01*
X147346637Y-113633278D01*
X147352732Y-113637974D01*
X147362894Y-113641864D01*
X147379183Y-113645022D01*
X147403663Y-113647525D01*
X147438396Y-113649450D01*
X147485442Y-113650871D01*
X147546864Y-113651866D01*
X147624725Y-113652510D01*
X147721085Y-113652880D01*
X147838007Y-113653050D01*
X147977553Y-113653098D01*
X148031544Y-113653100D01*
X148704679Y-113653100D01*
X148350394Y-113298645D01*
X148269480Y-113218240D01*
X148194834Y-113145130D01*
X148128323Y-113081069D01*
X148071813Y-113027811D01*
X148027168Y-112987110D01*
X147996254Y-112960720D01*
X147980938Y-112950395D01*
X147979996Y-112950373D01*
X147952700Y-112949094D01*
X147924283Y-112931816D01*
X147905234Y-112905132D01*
X147904465Y-112902903D01*
X147905027Y-112894277D01*
X147939568Y-112894277D01*
X147943264Y-112904470D01*
X147959543Y-112913836D01*
X147976979Y-112904344D01*
X147985056Y-112886872D01*
X147979759Y-112868787D01*
X147969930Y-112865700D01*
X147946849Y-112874419D01*
X147939568Y-112894277D01*
X147905027Y-112894277D01*
X147906439Y-112872650D01*
X147925319Y-112844712D01*
X147953667Y-112828664D01*
X147962961Y-112827599D01*
X147994834Y-112838915D01*
G37*
X147994834Y-112838915D02*
X148017923Y-112867443D01*
X148025400Y-112899845D01*
X148028985Y-112911827D01*
X148040677Y-112930332D01*
X148061879Y-112956875D01*
X148093995Y-112992969D01*
X148138427Y-113040130D01*
X148196580Y-113099872D01*
X148269857Y-113173709D01*
X148359661Y-113263155D01*
X148389407Y-113292638D01*
X148753415Y-113653100D01*
X149397000Y-113653100D01*
X149397000Y-113259400D01*
X149422400Y-113259400D01*
X149422400Y-113653660D01*
X149659246Y-113650205D01*
X149896093Y-113646750D01*
X149890927Y-113418150D01*
X149734283Y-113259400D01*
X149422400Y-113259400D01*
X149397000Y-113259400D01*
X149317307Y-113259399D01*
X149237614Y-113259399D01*
X149144787Y-113165949D01*
X149103197Y-113123596D01*
X149076518Y-113093835D01*
X149061640Y-113071356D01*
X149055454Y-113050850D01*
X149054850Y-113027007D01*
X149055579Y-113013638D01*
X149055118Y-112972065D01*
X149045990Y-112947376D01*
X149036510Y-112938188D01*
X149020446Y-112912736D01*
X149019892Y-112899701D01*
X149046094Y-112899701D01*
X149062610Y-112914591D01*
X149073899Y-112916500D01*
X149088735Y-112905925D01*
X149092200Y-112891100D01*
X149083162Y-112870668D01*
X149063913Y-112866206D01*
X149047750Y-112878400D01*
X149046094Y-112899701D01*
X149019892Y-112899701D01*
X149018996Y-112878656D01*
X149031360Y-112847507D01*
X149043588Y-112835918D01*
X149075370Y-112828608D01*
X149105401Y-112840969D01*
X149125851Y-112868006D01*
X149130300Y-112891226D01*
X149124364Y-112922587D01*
X149111250Y-112937307D01*
X149098640Y-112951951D01*
X149092847Y-112985845D01*
X149092200Y-113010300D01*
X149093067Y-113042533D01*
X149098036Y-113066815D01*
X149110654Y-113089561D01*
X149134469Y-113117183D01*
X149172659Y-113155728D01*
X149253118Y-113235472D01*
X149390650Y-113227650D01*
X149394289Y-113095613D01*
X149395495Y-113035306D01*
X149394582Y-112994713D01*
X149390718Y-112968183D01*
X149383069Y-112950063D01*
X149370802Y-112934701D01*
X149370511Y-112934391D01*
X149351980Y-112901584D01*
X149352227Y-112891642D01*
X149384192Y-112891642D01*
X149393031Y-112908297D01*
X149411418Y-112913442D01*
X149426375Y-112900943D01*
X149428750Y-112890215D01*
X149418193Y-112873035D01*
X149406525Y-112868117D01*
X149388696Y-112873567D01*
X149384192Y-112891642D01*
X149352227Y-112891642D01*
X149352769Y-112869858D01*
X149368295Y-112844354D01*
X149393975Y-112830213D01*
X149425228Y-112832575D01*
X149448311Y-112847113D01*
X149470311Y-112879001D01*
X149466950Y-112911388D01*
X149447394Y-112935917D01*
X149435835Y-112948727D01*
X149428585Y-112965448D01*
X149424889Y-112991427D01*
X149423994Y-113032010D01*
X149425144Y-113092547D01*
X149425169Y-113093460D01*
X149428750Y-113227650D01*
X149595285Y-113231181D01*
X149761821Y-113234713D01*
X149846110Y-113322021D01*
X149930400Y-113409330D01*
X149930400Y-113653100D01*
X149965026Y-113653099D01*
X149987761Y-113658467D01*
X150016597Y-113676325D01*
X150055190Y-113709311D01*
X150091410Y-113744245D01*
X150183167Y-113835390D01*
X150175380Y-114684585D01*
X150167592Y-115533781D01*
X150195046Y-115553010D01*
X150218964Y-115581370D01*
X150222290Y-115612594D01*
X150207885Y-115639799D01*
X150178613Y-115656102D01*
X150151612Y-115657442D01*
X150118812Y-115643906D01*
X150104638Y-115617145D01*
X150105592Y-115612077D01*
X150136668Y-115612077D01*
X150140364Y-115622270D01*
X150156643Y-115631636D01*
X150174079Y-115622144D01*
X150182156Y-115604672D01*
X150176859Y-115586587D01*
X150167030Y-115583500D01*
X150143949Y-115592219D01*
X150136668Y-115612077D01*
X150105592Y-115612077D01*
X150111049Y-115583102D01*
X150121609Y-115566432D01*
X150128110Y-115557021D01*
X150133360Y-115545271D01*
X150137492Y-115528560D01*
X150140639Y-115504266D01*
X150142935Y-115469765D01*
X150144512Y-115422436D01*
X150145503Y-115359655D01*
X150146043Y-115278800D01*
X150146263Y-115177248D01*
X150146300Y-115080244D01*
X150146300Y-114625445D01*
X150072906Y-114698072D01*
X150027854Y-114739463D01*
X149993777Y-114762800D01*
X149966843Y-114770662D01*
X149964956Y-114770700D01*
X149930400Y-114770700D01*
X149930400Y-115156494D01*
X149930558Y-115267993D01*
X149931115Y-115356725D01*
X149932196Y-115425322D01*
X149933927Y-115476417D01*
X149936431Y-115512641D01*
X149939834Y-115536626D01*
X149944261Y-115551005D01*
X149949450Y-115558100D01*
X149965747Y-115585929D01*
X149966018Y-115620315D01*
X149953260Y-115644460D01*
X149930030Y-115655541D01*
X149897790Y-115659605D01*
X149869948Y-115655650D01*
X149862666Y-115651233D01*
X149854538Y-115628520D01*
X149855361Y-115612077D01*
X149882668Y-115612077D01*
X149886364Y-115622270D01*
X149902643Y-115631636D01*
X149920079Y-115622144D01*
X149928156Y-115604672D01*
X149922859Y-115586587D01*
X149913030Y-115583500D01*
X149889949Y-115592219D01*
X149882668Y-115612077D01*
X149855361Y-115612077D01*
X149856163Y-115596088D01*
X149866058Y-115566995D01*
X149873250Y-115558100D01*
X149878749Y-115550335D01*
X149883107Y-115535431D01*
X149886450Y-115510755D01*
X149888902Y-115473675D01*
X149890588Y-115421560D01*
X149891633Y-115351777D01*
X149892162Y-115261694D01*
X149892300Y-115156494D01*
X149892300Y-114770700D01*
X149676400Y-114770700D01*
X149676400Y-114805942D01*
X149671504Y-114828174D01*
X149654954Y-114855559D01*
X149623954Y-114891943D01*
X149584026Y-114932942D01*
X149491652Y-115024700D01*
X148429355Y-115024700D01*
X148239611Y-115024728D01*
X148073616Y-115024836D01*
X147929721Y-115025056D01*
X147806274Y-115025421D01*
X147701625Y-115025964D01*
X147614124Y-115026718D01*
X147542121Y-115027715D01*
X147483964Y-115028989D01*
X147438003Y-115030572D01*
X147402589Y-115032496D01*
X147376070Y-115034796D01*
X147356796Y-115037503D01*
X147343117Y-115040651D01*
X147333382Y-115044273D01*
X147328902Y-115046598D01*
X147301956Y-115060319D01*
X147284817Y-115060202D01*
X147265767Y-115045889D01*
X147264372Y-115044630D01*
X147242754Y-115012345D01*
X147240723Y-114988828D01*
X147267787Y-114988828D01*
X147275782Y-115005263D01*
X147276354Y-115005956D01*
X147293781Y-115018016D01*
X147310073Y-115010154D01*
X147320392Y-114991912D01*
X147315591Y-114982911D01*
X147294550Y-114976280D01*
X147281873Y-114978713D01*
X147267787Y-114988828D01*
X147240723Y-114988828D01*
X147239705Y-114977048D01*
X147253239Y-114951040D01*
X147282946Y-114936947D01*
X147316813Y-114940808D01*
X147342547Y-114961200D01*
X147345795Y-114965705D01*
X147350626Y-114969643D01*
X147358664Y-114973053D01*
X147371533Y-114975972D01*
X147390856Y-114978439D01*
X147418258Y-114980491D01*
X147455363Y-114982166D01*
X147503796Y-114983504D01*
X147565179Y-114984541D01*
X147641138Y-114985316D01*
X147733296Y-114985867D01*
X147843278Y-114986233D01*
X147972707Y-114986451D01*
X148123208Y-114986559D01*
X148296404Y-114986596D01*
X148424961Y-114986600D01*
X149491513Y-114986600D01*
X149564906Y-114913972D01*
X149605852Y-114870567D01*
X149629245Y-114837814D01*
X149638033Y-114811373D01*
X149638300Y-114806022D01*
X149634391Y-114780270D01*
X149617317Y-114771357D01*
X149603034Y-114770700D01*
X149579810Y-114765502D01*
X149551369Y-114748004D01*
X149513697Y-114715345D01*
X149482630Y-114684904D01*
X149397492Y-114599109D01*
X149397181Y-114572698D01*
X149421890Y-114572698D01*
X149504828Y-114656277D01*
X149544886Y-114696255D01*
X149576002Y-114724540D01*
X149599305Y-114739412D01*
X149615924Y-114739156D01*
X149626990Y-114722052D01*
X149633630Y-114686382D01*
X149636976Y-114630430D01*
X149638156Y-114552476D01*
X149638300Y-114453256D01*
X149638300Y-114166654D01*
X149565275Y-114095031D01*
X149526127Y-114059928D01*
X149490045Y-114033298D01*
X149463546Y-114019858D01*
X149460500Y-114019228D01*
X149428750Y-114015050D01*
X149421890Y-114572698D01*
X149397181Y-114572698D01*
X149390650Y-114018491D01*
X149231900Y-114020403D01*
X149073150Y-114022316D01*
X148734548Y-113682460D01*
X148787400Y-113682460D01*
X148795922Y-113692439D01*
X148819506Y-113717244D01*
X148855175Y-113753815D01*
X148899954Y-113799095D01*
X148935884Y-113835090D01*
X149084368Y-113983300D01*
X149397806Y-113983300D01*
X149422400Y-113983300D01*
X149462466Y-113983300D01*
X149484420Y-113986352D01*
X149507195Y-113997752D01*
X149535423Y-114020864D01*
X149573733Y-114059052D01*
X149589227Y-114075375D01*
X149675921Y-114167450D01*
X149676160Y-114450025D01*
X149676400Y-114732600D01*
X149892300Y-114732600D01*
X149892300Y-114106291D01*
X149892301Y-114002267D01*
X149892304Y-113908914D01*
X149892307Y-113828971D01*
X149892310Y-113765176D01*
X149892314Y-113720267D01*
X149892319Y-113696981D01*
X149892321Y-113694375D01*
X149880287Y-113691194D01*
X149846805Y-113688087D01*
X149795829Y-113685272D01*
X149731310Y-113682968D01*
X149657371Y-113681394D01*
X149460554Y-113678500D01*
X149930400Y-113678500D01*
X149930400Y-114203433D01*
X149930569Y-114316455D01*
X149931051Y-114421473D01*
X149931811Y-114515793D01*
X149932812Y-114596721D01*
X149934016Y-114661564D01*
X149935389Y-114707629D01*
X149936892Y-114732223D01*
X149937615Y-114735582D01*
X149953251Y-114741148D01*
X149976856Y-114731798D01*
X150010958Y-114705942D01*
X150058084Y-114661989D01*
X150064197Y-114655956D01*
X150146300Y-114574583D01*
X150146300Y-113837933D01*
X150067291Y-113758216D01*
X150018706Y-113712932D01*
X149981214Y-113685980D01*
X149959341Y-113678500D01*
X149930400Y-113678500D01*
X149460554Y-113678500D01*
X149422400Y-113677939D01*
X149422400Y-113983300D01*
X149397806Y-113983300D01*
X149390650Y-113684850D01*
X149089025Y-113681445D01*
X149004540Y-113680669D01*
X148929187Y-113680317D01*
X148866455Y-113680377D01*
X148819832Y-113680838D01*
X148792807Y-113681688D01*
X148787400Y-113682460D01*
X148734548Y-113682460D01*
X148730602Y-113678500D01*
X148043006Y-113678500D01*
X147891219Y-113678573D01*
X147762871Y-113678828D01*
X147656004Y-113679318D01*
X147568658Y-113680097D01*
X147498872Y-113681216D01*
X147444688Y-113682730D01*
X147404145Y-113684691D01*
X147375285Y-113687153D01*
X147356146Y-113690168D01*
X147344770Y-113693790D01*
X147339599Y-113697550D01*
X147311101Y-113715738D01*
X147279173Y-113714554D01*
X147252164Y-113697126D01*
X147238422Y-113666587D01*
X147238000Y-113659450D01*
X147238081Y-113659184D01*
X147269950Y-113659184D01*
X147277628Y-113673991D01*
X147294884Y-113684649D01*
X147309691Y-113676971D01*
X147320349Y-113659715D01*
X147312671Y-113644908D01*
X147295415Y-113634250D01*
X147280608Y-113641928D01*
X147269950Y-113659184D01*
X147238081Y-113659184D01*
X147247998Y-113626709D01*
X147272530Y-113606812D01*
X147303405Y-113602249D01*
X147332428Y-113615506D01*
X147342547Y-113627700D01*
X147346637Y-113633278D01*
X147352732Y-113637974D01*
X147362894Y-113641864D01*
X147379183Y-113645022D01*
X147403663Y-113647525D01*
X147438396Y-113649450D01*
X147485442Y-113650871D01*
X147546864Y-113651866D01*
X147624725Y-113652510D01*
X147721085Y-113652880D01*
X147838007Y-113653050D01*
X147977553Y-113653098D01*
X148031544Y-113653100D01*
X148704679Y-113653100D01*
X148350394Y-113298645D01*
X148269480Y-113218240D01*
X148194834Y-113145130D01*
X148128323Y-113081069D01*
X148071813Y-113027811D01*
X148027168Y-112987110D01*
X147996254Y-112960720D01*
X147980938Y-112950395D01*
X147979996Y-112950373D01*
X147952700Y-112949094D01*
X147924283Y-112931816D01*
X147905234Y-112905132D01*
X147904465Y-112902903D01*
X147905027Y-112894277D01*
X147939568Y-112894277D01*
X147943264Y-112904470D01*
X147959543Y-112913836D01*
X147976979Y-112904344D01*
X147985056Y-112886872D01*
X147979759Y-112868787D01*
X147969930Y-112865700D01*
X147946849Y-112874419D01*
X147939568Y-112894277D01*
X147905027Y-112894277D01*
X147906439Y-112872650D01*
X147925319Y-112844712D01*
X147953667Y-112828664D01*
X147962961Y-112827599D01*
X147994834Y-112838915D01*
D12*
%TO.C,SWD*%
X164230000Y-80054000D02*
X164230000Y-79419000D01*
X164865000Y-80054000D02*
X164230000Y-80054000D01*
%TO.C,J2*%
X137795000Y-114360000D02*
X136465000Y-114360000D01*
X136465000Y-114360000D02*
X136465000Y-113030000D01*
X136465000Y-111760000D02*
X136465000Y-78680000D01*
X139125000Y-78680000D02*
X136465000Y-78680000D01*
X139125000Y-111760000D02*
X139125000Y-78680000D01*
X139125000Y-111760000D02*
X136465000Y-111760000D01*
%TO.C,J1*%
X179070000Y-78680000D02*
X180400000Y-78680000D01*
X180400000Y-78680000D02*
X180400000Y-80010000D01*
X180400000Y-81280000D02*
X180400000Y-114360000D01*
X177740000Y-114360000D02*
X180400000Y-114360000D01*
X177740000Y-81280000D02*
X177740000Y-114360000D01*
X177740000Y-81280000D02*
X180400000Y-81280000D01*
%TO.C,U1*%
X148590000Y-110490000D02*
X148590000Y-82550000D01*
X148590000Y-82550000D02*
X168910000Y-82550000D01*
X168910000Y-82550000D02*
X168910000Y-110490000D01*
X168910000Y-110490000D02*
X148590000Y-110490000D01*
%TO.C,SWD*%
D10*
X159392857Y-79179761D02*
X159535714Y-79227380D01*
X159773809Y-79227380D01*
X159869047Y-79179761D01*
X159916666Y-79132142D01*
X159964285Y-79036904D01*
X159964285Y-78941666D01*
X159916666Y-78846428D01*
X159869047Y-78798809D01*
X159773809Y-78751190D01*
X159583333Y-78703571D01*
X159488095Y-78655952D01*
X159440476Y-78608333D01*
X159392857Y-78513095D01*
X159392857Y-78417857D01*
X159440476Y-78322619D01*
X159488095Y-78275000D01*
X159583333Y-78227380D01*
X159821428Y-78227380D01*
X159964285Y-78275000D01*
X160297619Y-78227380D02*
X160535714Y-79227380D01*
X160726190Y-78513095D01*
X160916666Y-79227380D01*
X161154761Y-78227380D01*
X161535714Y-79227380D02*
X161535714Y-78227380D01*
X161773809Y-78227380D01*
X161916666Y-78275000D01*
X162011904Y-78370238D01*
X162059523Y-78465476D01*
X162107142Y-78655952D01*
X162107142Y-78798809D01*
X162059523Y-78989285D01*
X162011904Y-79084523D01*
X161916666Y-79179761D01*
X161773809Y-79227380D01*
X161535714Y-79227380D01*
%TO.C,J2*%
X137416666Y-76802380D02*
X137416666Y-77516666D01*
X137369047Y-77659523D01*
X137273809Y-77754761D01*
X137130952Y-77802380D01*
X137035714Y-77802380D01*
X137845238Y-76897619D02*
X137892857Y-76850000D01*
X137988095Y-76802380D01*
X138226190Y-76802380D01*
X138321428Y-76850000D01*
X138369047Y-76897619D01*
X138416666Y-76992857D01*
X138416666Y-77088095D01*
X138369047Y-77230952D01*
X137797619Y-77802380D01*
X138416666Y-77802380D01*
%TO.C,J1*%
X178736666Y-76692380D02*
X178736666Y-77406666D01*
X178689047Y-77549523D01*
X178593809Y-77644761D01*
X178450952Y-77692380D01*
X178355714Y-77692380D01*
X179736666Y-77692380D02*
X179165238Y-77692380D01*
X179450952Y-77692380D02*
X179450952Y-76692380D01*
X179355714Y-76835238D01*
X179260476Y-76930476D01*
X179165238Y-76978095D01*
%TD*%
M02*
