G04 #@! TF.GenerationSoftware,KiCad,Pcbnew,(6.0.0-0)*
G04 #@! TF.CreationDate,2022-01-05T13:59:11-06:00*
G04 #@! TF.ProjectId,castellated_breakout,63617374-656c-46c6-9174-65645f627265,rev?*
G04 #@! TF.SameCoordinates,Original*
G04 #@! TF.FileFunction,Legend,Top*
G04 #@! TF.FilePolarity,Positive*
%FSLAX46Y46*%
G04 Gerber Fmt 4.6, Leading zero omitted, Abs format (unit mm)*
G04 Created by KiCad (PCBNEW (6.0.0-0)) date 2022-01-05 13:59:11*
%MOMM*%
%LPD*%
G01*
G04 APERTURE LIST*
%ADD10C,0.150000*%
%ADD11C,0.010000*%
%ADD12C,0.120000*%
G04 APERTURE END LIST*
D10*
X150892142Y-114085714D02*
X151130238Y-114752380D01*
X151368333Y-114085714D01*
X152273095Y-114752380D02*
X151701666Y-114752380D01*
X151987380Y-114752380D02*
X151987380Y-113752380D01*
X151892142Y-113895238D01*
X151796904Y-113990476D01*
X151701666Y-114038095D01*
X152701666Y-114657142D02*
X152749285Y-114704761D01*
X152701666Y-114752380D01*
X152654047Y-114704761D01*
X152701666Y-114657142D01*
X152701666Y-114752380D01*
X153130238Y-113847619D02*
X153177857Y-113800000D01*
X153273095Y-113752380D01*
X153511190Y-113752380D01*
X153606428Y-113800000D01*
X153654047Y-113847619D01*
X153701666Y-113942857D01*
X153701666Y-114038095D01*
X153654047Y-114180952D01*
X153082619Y-114752380D01*
X153701666Y-114752380D01*
X154130238Y-114657142D02*
X154177857Y-114704761D01*
X154130238Y-114752380D01*
X154082619Y-114704761D01*
X154130238Y-114657142D01*
X154130238Y-114752380D01*
X154796904Y-113752380D02*
X154892142Y-113752380D01*
X154987380Y-113800000D01*
X155035000Y-113847619D01*
X155082619Y-113942857D01*
X155130238Y-114133333D01*
X155130238Y-114371428D01*
X155082619Y-114561904D01*
X155035000Y-114657142D01*
X154987380Y-114704761D01*
X154892142Y-114752380D01*
X154796904Y-114752380D01*
X154701666Y-114704761D01*
X154654047Y-114657142D01*
X154606428Y-114561904D01*
X154558809Y-114371428D01*
X154558809Y-114133333D01*
X154606428Y-113942857D01*
X154654047Y-113847619D01*
X154701666Y-113800000D01*
X154796904Y-113752380D01*
X172353214Y-113434761D02*
X172496071Y-113482380D01*
X172734166Y-113482380D01*
X172829404Y-113434761D01*
X172877023Y-113387142D01*
X172924642Y-113291904D01*
X172924642Y-113196666D01*
X172877023Y-113101428D01*
X172829404Y-113053809D01*
X172734166Y-113006190D01*
X172543690Y-112958571D01*
X172448452Y-112910952D01*
X172400833Y-112863333D01*
X172353214Y-112768095D01*
X172353214Y-112672857D01*
X172400833Y-112577619D01*
X172448452Y-112530000D01*
X172543690Y-112482380D01*
X172781785Y-112482380D01*
X172924642Y-112530000D01*
X173257976Y-112482380D02*
X173496071Y-113482380D01*
X173686547Y-112768095D01*
X173877023Y-113482380D01*
X174115119Y-112482380D01*
X175067500Y-113387142D02*
X175019880Y-113434761D01*
X174877023Y-113482380D01*
X174781785Y-113482380D01*
X174638928Y-113434761D01*
X174543690Y-113339523D01*
X174496071Y-113244285D01*
X174448452Y-113053809D01*
X174448452Y-112910952D01*
X174496071Y-112720476D01*
X174543690Y-112625238D01*
X174638928Y-112530000D01*
X174781785Y-112482380D01*
X174877023Y-112482380D01*
X175019880Y-112530000D01*
X175067500Y-112577619D01*
X175972261Y-113482380D02*
X175496071Y-113482380D01*
X175496071Y-112482380D01*
X176305595Y-113482380D02*
X176305595Y-112482380D01*
X176877023Y-113482380D02*
X176448452Y-112910952D01*
X176877023Y-112482380D02*
X176305595Y-113053809D01*
X174591309Y-109942380D02*
X174591309Y-110656666D01*
X174543690Y-110799523D01*
X174448452Y-110894761D01*
X174305595Y-110942380D01*
X174210357Y-110942380D01*
X174924642Y-109942380D02*
X175496071Y-109942380D01*
X175210357Y-110942380D02*
X175210357Y-109942380D01*
X175829404Y-110942380D02*
X175829404Y-109942380D01*
X176067500Y-109942380D01*
X176210357Y-109990000D01*
X176305595Y-110085238D01*
X176353214Y-110180476D01*
X176400833Y-110370952D01*
X176400833Y-110513809D01*
X176353214Y-110704285D01*
X176305595Y-110799523D01*
X176210357Y-110894761D01*
X176067500Y-110942380D01*
X175829404Y-110942380D01*
X176829404Y-110942380D02*
X176829404Y-109942380D01*
X170067500Y-108402380D02*
X170067500Y-107402380D01*
X170305595Y-107402380D01*
X170448452Y-107450000D01*
X170543690Y-107545238D01*
X170591309Y-107640476D01*
X170638928Y-107830952D01*
X170638928Y-107973809D01*
X170591309Y-108164285D01*
X170543690Y-108259523D01*
X170448452Y-108354761D01*
X170305595Y-108402380D01*
X170067500Y-108402380D01*
X171400833Y-107878571D02*
X171543690Y-107926190D01*
X171591309Y-107973809D01*
X171638928Y-108069047D01*
X171638928Y-108211904D01*
X171591309Y-108307142D01*
X171543690Y-108354761D01*
X171448452Y-108402380D01*
X171067500Y-108402380D01*
X171067500Y-107402380D01*
X171400833Y-107402380D01*
X171496071Y-107450000D01*
X171543690Y-107497619D01*
X171591309Y-107592857D01*
X171591309Y-107688095D01*
X171543690Y-107783333D01*
X171496071Y-107830952D01*
X171400833Y-107878571D01*
X171067500Y-107878571D01*
X172591309Y-107450000D02*
X172496071Y-107402380D01*
X172353214Y-107402380D01*
X172210357Y-107450000D01*
X172115119Y-107545238D01*
X172067500Y-107640476D01*
X172019880Y-107830952D01*
X172019880Y-107973809D01*
X172067500Y-108164285D01*
X172115119Y-108259523D01*
X172210357Y-108354761D01*
X172353214Y-108402380D01*
X172448452Y-108402380D01*
X172591309Y-108354761D01*
X172638928Y-108307142D01*
X172638928Y-107973809D01*
X172448452Y-107973809D01*
X172829404Y-108497619D02*
X173591309Y-108497619D01*
X174115119Y-107402380D02*
X174115119Y-108116666D01*
X174067500Y-108259523D01*
X173972261Y-108354761D01*
X173829404Y-108402380D01*
X173734166Y-108402380D01*
X175162738Y-108402380D02*
X174829404Y-107926190D01*
X174591309Y-108402380D02*
X174591309Y-107402380D01*
X174972261Y-107402380D01*
X175067500Y-107450000D01*
X175115119Y-107497619D01*
X175162738Y-107592857D01*
X175162738Y-107735714D01*
X175115119Y-107830952D01*
X175067500Y-107878571D01*
X174972261Y-107926190D01*
X174591309Y-107926190D01*
X175543690Y-108354761D02*
X175686547Y-108402380D01*
X175924642Y-108402380D01*
X176019880Y-108354761D01*
X176067500Y-108307142D01*
X176115119Y-108211904D01*
X176115119Y-108116666D01*
X176067500Y-108021428D01*
X176019880Y-107973809D01*
X175924642Y-107926190D01*
X175734166Y-107878571D01*
X175638928Y-107830952D01*
X175591309Y-107783333D01*
X175543690Y-107688095D01*
X175543690Y-107592857D01*
X175591309Y-107497619D01*
X175638928Y-107450000D01*
X175734166Y-107402380D01*
X175972261Y-107402380D01*
X176115119Y-107450000D01*
X176400833Y-107402380D02*
X176972261Y-107402380D01*
X176686547Y-108402380D02*
X176686547Y-107402380D01*
X173734166Y-104862380D02*
X174305595Y-104862380D01*
X174019880Y-105862380D02*
X174019880Y-104862380D01*
X174543690Y-104862380D02*
X175210357Y-105862380D01*
X175210357Y-104862380D02*
X174543690Y-105862380D01*
X175353214Y-105957619D02*
X176115119Y-105957619D01*
X176877023Y-105862380D02*
X176305595Y-105862380D01*
X176591309Y-105862380D02*
X176591309Y-104862380D01*
X176496071Y-105005238D01*
X176400833Y-105100476D01*
X176305595Y-105148095D01*
X174115119Y-103274761D02*
X174257976Y-103322380D01*
X174496071Y-103322380D01*
X174591309Y-103274761D01*
X174638928Y-103227142D01*
X174686547Y-103131904D01*
X174686547Y-103036666D01*
X174638928Y-102941428D01*
X174591309Y-102893809D01*
X174496071Y-102846190D01*
X174305595Y-102798571D01*
X174210357Y-102750952D01*
X174162738Y-102703333D01*
X174115119Y-102608095D01*
X174115119Y-102512857D01*
X174162738Y-102417619D01*
X174210357Y-102370000D01*
X174305595Y-102322380D01*
X174543690Y-102322380D01*
X174686547Y-102370000D01*
X175019880Y-102322380D02*
X175257976Y-103322380D01*
X175448452Y-102608095D01*
X175638928Y-103322380D01*
X175877023Y-102322380D01*
X176448452Y-102322380D02*
X176638928Y-102322380D01*
X176734166Y-102370000D01*
X176829404Y-102465238D01*
X176877023Y-102655714D01*
X176877023Y-102989047D01*
X176829404Y-103179523D01*
X176734166Y-103274761D01*
X176638928Y-103322380D01*
X176448452Y-103322380D01*
X176353214Y-103274761D01*
X176257976Y-103179523D01*
X176210357Y-102989047D01*
X176210357Y-102655714D01*
X176257976Y-102465238D01*
X176353214Y-102370000D01*
X176448452Y-102322380D01*
X170448452Y-100734761D02*
X170591309Y-100782380D01*
X170829404Y-100782380D01*
X170924642Y-100734761D01*
X170972261Y-100687142D01*
X171019880Y-100591904D01*
X171019880Y-100496666D01*
X170972261Y-100401428D01*
X170924642Y-100353809D01*
X170829404Y-100306190D01*
X170638928Y-100258571D01*
X170543690Y-100210952D01*
X170496071Y-100163333D01*
X170448452Y-100068095D01*
X170448452Y-99972857D01*
X170496071Y-99877619D01*
X170543690Y-99830000D01*
X170638928Y-99782380D01*
X170877023Y-99782380D01*
X171019880Y-99830000D01*
X171448452Y-100782380D02*
X171448452Y-99782380D01*
X171829404Y-99782380D01*
X171924642Y-99830000D01*
X171972261Y-99877619D01*
X172019880Y-99972857D01*
X172019880Y-100115714D01*
X171972261Y-100210952D01*
X171924642Y-100258571D01*
X171829404Y-100306190D01*
X171448452Y-100306190D01*
X172448452Y-100782380D02*
X172448452Y-99782380D01*
X172686547Y-100877619D02*
X173448452Y-100877619D01*
X173686547Y-100782380D02*
X173686547Y-99782380D01*
X174019880Y-100496666D01*
X174353214Y-99782380D01*
X174353214Y-100782380D01*
X175019880Y-99782380D02*
X175210357Y-99782380D01*
X175305595Y-99830000D01*
X175400833Y-99925238D01*
X175448452Y-100115714D01*
X175448452Y-100449047D01*
X175400833Y-100639523D01*
X175305595Y-100734761D01*
X175210357Y-100782380D01*
X175019880Y-100782380D01*
X174924642Y-100734761D01*
X174829404Y-100639523D01*
X174781785Y-100449047D01*
X174781785Y-100115714D01*
X174829404Y-99925238D01*
X174924642Y-99830000D01*
X175019880Y-99782380D01*
X175829404Y-100734761D02*
X175972261Y-100782380D01*
X176210357Y-100782380D01*
X176305595Y-100734761D01*
X176353214Y-100687142D01*
X176400833Y-100591904D01*
X176400833Y-100496666D01*
X176353214Y-100401428D01*
X176305595Y-100353809D01*
X176210357Y-100306190D01*
X176019880Y-100258571D01*
X175924642Y-100210952D01*
X175877023Y-100163333D01*
X175829404Y-100068095D01*
X175829404Y-99972857D01*
X175877023Y-99877619D01*
X175924642Y-99830000D01*
X176019880Y-99782380D01*
X176257976Y-99782380D01*
X176400833Y-99830000D01*
X176829404Y-100782380D02*
X176829404Y-99782380D01*
X174448452Y-98194761D02*
X174591309Y-98242380D01*
X174829404Y-98242380D01*
X174924642Y-98194761D01*
X174972261Y-98147142D01*
X175019880Y-98051904D01*
X175019880Y-97956666D01*
X174972261Y-97861428D01*
X174924642Y-97813809D01*
X174829404Y-97766190D01*
X174638928Y-97718571D01*
X174543690Y-97670952D01*
X174496071Y-97623333D01*
X174448452Y-97528095D01*
X174448452Y-97432857D01*
X174496071Y-97337619D01*
X174543690Y-97290000D01*
X174638928Y-97242380D01*
X174877023Y-97242380D01*
X175019880Y-97290000D01*
X175448452Y-98242380D02*
X175448452Y-97242380D01*
X175686547Y-97242380D01*
X175829404Y-97290000D01*
X175924642Y-97385238D01*
X175972261Y-97480476D01*
X176019880Y-97670952D01*
X176019880Y-97813809D01*
X175972261Y-98004285D01*
X175924642Y-98099523D01*
X175829404Y-98194761D01*
X175686547Y-98242380D01*
X175448452Y-98242380D01*
X176400833Y-97956666D02*
X176877023Y-97956666D01*
X176305595Y-98242380D02*
X176638928Y-97242380D01*
X176972261Y-98242380D01*
X174496071Y-95654761D02*
X174638928Y-95702380D01*
X174877023Y-95702380D01*
X174972261Y-95654761D01*
X175019880Y-95607142D01*
X175067500Y-95511904D01*
X175067500Y-95416666D01*
X175019880Y-95321428D01*
X174972261Y-95273809D01*
X174877023Y-95226190D01*
X174686547Y-95178571D01*
X174591309Y-95130952D01*
X174543690Y-95083333D01*
X174496071Y-94988095D01*
X174496071Y-94892857D01*
X174543690Y-94797619D01*
X174591309Y-94750000D01*
X174686547Y-94702380D01*
X174924642Y-94702380D01*
X175067500Y-94750000D01*
X176067500Y-95607142D02*
X176019880Y-95654761D01*
X175877023Y-95702380D01*
X175781785Y-95702380D01*
X175638928Y-95654761D01*
X175543690Y-95559523D01*
X175496071Y-95464285D01*
X175448452Y-95273809D01*
X175448452Y-95130952D01*
X175496071Y-94940476D01*
X175543690Y-94845238D01*
X175638928Y-94750000D01*
X175781785Y-94702380D01*
X175877023Y-94702380D01*
X176019880Y-94750000D01*
X176067500Y-94797619D01*
X176972261Y-95702380D02*
X176496071Y-95702380D01*
X176496071Y-94702380D01*
X173019880Y-92162380D02*
X173257976Y-93162380D01*
X173448452Y-92448095D01*
X173638928Y-93162380D01*
X173877023Y-92162380D01*
X174257976Y-93162380D02*
X174257976Y-92162380D01*
X174829404Y-93162380D02*
X174400833Y-92590952D01*
X174829404Y-92162380D02*
X174257976Y-92733809D01*
X175257976Y-92162380D02*
X175257976Y-92971904D01*
X175305595Y-93067142D01*
X175353214Y-93114761D01*
X175448452Y-93162380D01*
X175638928Y-93162380D01*
X175734166Y-93114761D01*
X175781785Y-93067142D01*
X175829404Y-92971904D01*
X175829404Y-92162380D01*
X176305595Y-93162380D02*
X176305595Y-92162380D01*
X176686547Y-92162380D01*
X176781785Y-92210000D01*
X176829404Y-92257619D01*
X176877023Y-92352857D01*
X176877023Y-92495714D01*
X176829404Y-92590952D01*
X176781785Y-92638571D01*
X176686547Y-92686190D01*
X176305595Y-92686190D01*
X171257976Y-90574761D02*
X171400833Y-90622380D01*
X171638928Y-90622380D01*
X171734166Y-90574761D01*
X171781785Y-90527142D01*
X171829404Y-90431904D01*
X171829404Y-90336666D01*
X171781785Y-90241428D01*
X171734166Y-90193809D01*
X171638928Y-90146190D01*
X171448452Y-90098571D01*
X171353214Y-90050952D01*
X171305595Y-90003333D01*
X171257976Y-89908095D01*
X171257976Y-89812857D01*
X171305595Y-89717619D01*
X171353214Y-89670000D01*
X171448452Y-89622380D01*
X171686547Y-89622380D01*
X171829404Y-89670000D01*
X172257976Y-90622380D02*
X172257976Y-89622380D01*
X172638928Y-89622380D01*
X172734166Y-89670000D01*
X172781785Y-89717619D01*
X172829404Y-89812857D01*
X172829404Y-89955714D01*
X172781785Y-90050952D01*
X172734166Y-90098571D01*
X172638928Y-90146190D01*
X172257976Y-90146190D01*
X173257976Y-90622380D02*
X173257976Y-89622380D01*
X173496071Y-90717619D02*
X174257976Y-90717619D01*
X175067500Y-90527142D02*
X175019880Y-90574761D01*
X174877023Y-90622380D01*
X174781785Y-90622380D01*
X174638928Y-90574761D01*
X174543690Y-90479523D01*
X174496071Y-90384285D01*
X174448452Y-90193809D01*
X174448452Y-90050952D01*
X174496071Y-89860476D01*
X174543690Y-89765238D01*
X174638928Y-89670000D01*
X174781785Y-89622380D01*
X174877023Y-89622380D01*
X175019880Y-89670000D01*
X175067500Y-89717619D01*
X175972261Y-90622380D02*
X175496071Y-90622380D01*
X175496071Y-89622380D01*
X176305595Y-90622380D02*
X176305595Y-89622380D01*
X176877023Y-90622380D02*
X176448452Y-90050952D01*
X176877023Y-89622380D02*
X176305595Y-90193809D01*
X171829404Y-87082380D02*
X172162738Y-88082380D01*
X172496071Y-87082380D01*
X173400833Y-87987142D02*
X173353214Y-88034761D01*
X173210357Y-88082380D01*
X173115119Y-88082380D01*
X172972261Y-88034761D01*
X172877023Y-87939523D01*
X172829404Y-87844285D01*
X172781785Y-87653809D01*
X172781785Y-87510952D01*
X172829404Y-87320476D01*
X172877023Y-87225238D01*
X172972261Y-87130000D01*
X173115119Y-87082380D01*
X173210357Y-87082380D01*
X173353214Y-87130000D01*
X173400833Y-87177619D01*
X173829404Y-88082380D02*
X173829404Y-87082380D01*
X174210357Y-87082380D01*
X174305595Y-87130000D01*
X174353214Y-87177619D01*
X174400833Y-87272857D01*
X174400833Y-87415714D01*
X174353214Y-87510952D01*
X174305595Y-87558571D01*
X174210357Y-87606190D01*
X173829404Y-87606190D01*
X174591309Y-88177619D02*
X175353214Y-88177619D01*
X175448452Y-87082380D02*
X176019880Y-87082380D01*
X175734166Y-88082380D02*
X175734166Y-87082380D01*
X176257976Y-87082380D02*
X176924642Y-88082380D01*
X176924642Y-87082380D02*
X176257976Y-88082380D01*
X171591309Y-84542380D02*
X171924642Y-85542380D01*
X172257976Y-84542380D01*
X173162738Y-85447142D02*
X173115119Y-85494761D01*
X172972261Y-85542380D01*
X172877023Y-85542380D01*
X172734166Y-85494761D01*
X172638928Y-85399523D01*
X172591309Y-85304285D01*
X172543690Y-85113809D01*
X172543690Y-84970952D01*
X172591309Y-84780476D01*
X172638928Y-84685238D01*
X172734166Y-84590000D01*
X172877023Y-84542380D01*
X172972261Y-84542380D01*
X173115119Y-84590000D01*
X173162738Y-84637619D01*
X173591309Y-85542380D02*
X173591309Y-84542380D01*
X173972261Y-84542380D01*
X174067500Y-84590000D01*
X174115119Y-84637619D01*
X174162738Y-84732857D01*
X174162738Y-84875714D01*
X174115119Y-84970952D01*
X174067500Y-85018571D01*
X173972261Y-85066190D01*
X173591309Y-85066190D01*
X174353214Y-85637619D02*
X175115119Y-85637619D01*
X175924642Y-85542380D02*
X175591309Y-85066190D01*
X175353214Y-85542380D02*
X175353214Y-84542380D01*
X175734166Y-84542380D01*
X175829404Y-84590000D01*
X175877023Y-84637619D01*
X175924642Y-84732857D01*
X175924642Y-84875714D01*
X175877023Y-84970952D01*
X175829404Y-85018571D01*
X175734166Y-85066190D01*
X175353214Y-85066190D01*
X176257976Y-84542380D02*
X176924642Y-85542380D01*
X176924642Y-84542380D02*
X176257976Y-85542380D01*
X174496071Y-83002380D02*
X174496071Y-82002380D01*
X174877023Y-82002380D01*
X174972261Y-82050000D01*
X175019880Y-82097619D01*
X175067500Y-82192857D01*
X175067500Y-82335714D01*
X175019880Y-82430952D01*
X174972261Y-82478571D01*
X174877023Y-82526190D01*
X174496071Y-82526190D01*
X175448452Y-82716666D02*
X175924642Y-82716666D01*
X175353214Y-83002380D02*
X175686547Y-82002380D01*
X176019880Y-83002380D01*
X176829404Y-82002380D02*
X176353214Y-82002380D01*
X176305595Y-82478571D01*
X176353214Y-82430952D01*
X176448452Y-82383333D01*
X176686547Y-82383333D01*
X176781785Y-82430952D01*
X176829404Y-82478571D01*
X176877023Y-82573809D01*
X176877023Y-82811904D01*
X176829404Y-82907142D01*
X176781785Y-82954761D01*
X176686547Y-83002380D01*
X176448452Y-83002380D01*
X176353214Y-82954761D01*
X176305595Y-82907142D01*
X170448452Y-80414761D02*
X170591309Y-80462380D01*
X170829404Y-80462380D01*
X170924642Y-80414761D01*
X170972261Y-80367142D01*
X171019880Y-80271904D01*
X171019880Y-80176666D01*
X170972261Y-80081428D01*
X170924642Y-80033809D01*
X170829404Y-79986190D01*
X170638928Y-79938571D01*
X170543690Y-79890952D01*
X170496071Y-79843333D01*
X170448452Y-79748095D01*
X170448452Y-79652857D01*
X170496071Y-79557619D01*
X170543690Y-79510000D01*
X170638928Y-79462380D01*
X170877023Y-79462380D01*
X171019880Y-79510000D01*
X171448452Y-80462380D02*
X171448452Y-79462380D01*
X171829404Y-79462380D01*
X171924642Y-79510000D01*
X171972261Y-79557619D01*
X172019880Y-79652857D01*
X172019880Y-79795714D01*
X171972261Y-79890952D01*
X171924642Y-79938571D01*
X171829404Y-79986190D01*
X171448452Y-79986190D01*
X172448452Y-80462380D02*
X172448452Y-79462380D01*
X172686547Y-80557619D02*
X173448452Y-80557619D01*
X173686547Y-80462380D02*
X173686547Y-79462380D01*
X174019880Y-80176666D01*
X174353214Y-79462380D01*
X174353214Y-80462380D01*
X174829404Y-80462380D02*
X174829404Y-79462380D01*
X175257976Y-80414761D02*
X175400833Y-80462380D01*
X175638928Y-80462380D01*
X175734166Y-80414761D01*
X175781785Y-80367142D01*
X175829404Y-80271904D01*
X175829404Y-80176666D01*
X175781785Y-80081428D01*
X175734166Y-80033809D01*
X175638928Y-79986190D01*
X175448452Y-79938571D01*
X175353214Y-79890952D01*
X175305595Y-79843333D01*
X175257976Y-79748095D01*
X175257976Y-79652857D01*
X175305595Y-79557619D01*
X175353214Y-79510000D01*
X175448452Y-79462380D01*
X175686547Y-79462380D01*
X175829404Y-79510000D01*
X176448452Y-79462380D02*
X176638928Y-79462380D01*
X176734166Y-79510000D01*
X176829404Y-79605238D01*
X176877023Y-79795714D01*
X176877023Y-80129047D01*
X176829404Y-80319523D01*
X176734166Y-80414761D01*
X176638928Y-80462380D01*
X176448452Y-80462380D01*
X176353214Y-80414761D01*
X176257976Y-80319523D01*
X176210357Y-80129047D01*
X176210357Y-79795714D01*
X176257976Y-79605238D01*
X176353214Y-79510000D01*
X176448452Y-79462380D01*
X139892738Y-112482380D02*
X140226071Y-113482380D01*
X140559404Y-112482380D01*
X141226071Y-112958571D02*
X141368928Y-113006190D01*
X141416547Y-113053809D01*
X141464166Y-113149047D01*
X141464166Y-113291904D01*
X141416547Y-113387142D01*
X141368928Y-113434761D01*
X141273690Y-113482380D01*
X140892738Y-113482380D01*
X140892738Y-112482380D01*
X141226071Y-112482380D01*
X141321309Y-112530000D01*
X141368928Y-112577619D01*
X141416547Y-112672857D01*
X141416547Y-112768095D01*
X141368928Y-112863333D01*
X141321309Y-112910952D01*
X141226071Y-112958571D01*
X140892738Y-112958571D01*
X141845119Y-113196666D02*
X142321309Y-113196666D01*
X141749880Y-113482380D02*
X142083214Y-112482380D01*
X142416547Y-113482380D01*
X142607023Y-112482380D02*
X143178452Y-112482380D01*
X142892738Y-113482380D02*
X142892738Y-112482380D01*
X139987976Y-110894761D02*
X140130833Y-110942380D01*
X140368928Y-110942380D01*
X140464166Y-110894761D01*
X140511785Y-110847142D01*
X140559404Y-110751904D01*
X140559404Y-110656666D01*
X140511785Y-110561428D01*
X140464166Y-110513809D01*
X140368928Y-110466190D01*
X140178452Y-110418571D01*
X140083214Y-110370952D01*
X140035595Y-110323333D01*
X139987976Y-110228095D01*
X139987976Y-110132857D01*
X140035595Y-110037619D01*
X140083214Y-109990000D01*
X140178452Y-109942380D01*
X140416547Y-109942380D01*
X140559404Y-109990000D01*
X140892738Y-109942380D02*
X141130833Y-110942380D01*
X141321309Y-110228095D01*
X141511785Y-110942380D01*
X141749880Y-109942380D01*
X142130833Y-110942380D02*
X142130833Y-109942380D01*
X142368928Y-109942380D01*
X142511785Y-109990000D01*
X142607023Y-110085238D01*
X142654642Y-110180476D01*
X142702261Y-110370952D01*
X142702261Y-110513809D01*
X142654642Y-110704285D01*
X142607023Y-110799523D01*
X142511785Y-110894761D01*
X142368928Y-110942380D01*
X142130833Y-110942380D01*
X143130833Y-110942380D02*
X143130833Y-109942380D01*
X143797500Y-109942380D02*
X143987976Y-109942380D01*
X144083214Y-109990000D01*
X144178452Y-110085238D01*
X144226071Y-110275714D01*
X144226071Y-110609047D01*
X144178452Y-110799523D01*
X144083214Y-110894761D01*
X143987976Y-110942380D01*
X143797500Y-110942380D01*
X143702261Y-110894761D01*
X143607023Y-110799523D01*
X143559404Y-110609047D01*
X143559404Y-110275714D01*
X143607023Y-110085238D01*
X143702261Y-109990000D01*
X143797500Y-109942380D01*
X140035595Y-108402380D02*
X140035595Y-107402380D01*
X140416547Y-107402380D01*
X140511785Y-107450000D01*
X140559404Y-107497619D01*
X140607023Y-107592857D01*
X140607023Y-107735714D01*
X140559404Y-107830952D01*
X140511785Y-107878571D01*
X140416547Y-107926190D01*
X140035595Y-107926190D01*
X140987976Y-108116666D02*
X141464166Y-108116666D01*
X140892738Y-108402380D02*
X141226071Y-107402380D01*
X141559404Y-108402380D01*
X142416547Y-108402380D02*
X141845119Y-108402380D01*
X142130833Y-108402380D02*
X142130833Y-107402380D01*
X142035595Y-107545238D01*
X141940357Y-107640476D01*
X141845119Y-107688095D01*
X142797500Y-107497619D02*
X142845119Y-107450000D01*
X142940357Y-107402380D01*
X143178452Y-107402380D01*
X143273690Y-107450000D01*
X143321309Y-107497619D01*
X143368928Y-107592857D01*
X143368928Y-107688095D01*
X143321309Y-107830952D01*
X142749880Y-108402380D01*
X143368928Y-108402380D01*
X140035595Y-105862380D02*
X140035595Y-104862380D01*
X140416547Y-104862380D01*
X140511785Y-104910000D01*
X140559404Y-104957619D01*
X140607023Y-105052857D01*
X140607023Y-105195714D01*
X140559404Y-105290952D01*
X140511785Y-105338571D01*
X140416547Y-105386190D01*
X140035595Y-105386190D01*
X140987976Y-105576666D02*
X141464166Y-105576666D01*
X140892738Y-105862380D02*
X141226071Y-104862380D01*
X141559404Y-105862380D01*
X142416547Y-105862380D02*
X141845119Y-105862380D01*
X142130833Y-105862380D02*
X142130833Y-104862380D01*
X142035595Y-105005238D01*
X141940357Y-105100476D01*
X141845119Y-105148095D01*
X143368928Y-105862380D02*
X142797500Y-105862380D01*
X143083214Y-105862380D02*
X143083214Y-104862380D01*
X142987976Y-105005238D01*
X142892738Y-105100476D01*
X142797500Y-105148095D01*
X140607023Y-103322380D02*
X140273690Y-102846190D01*
X140035595Y-103322380D02*
X140035595Y-102322380D01*
X140416547Y-102322380D01*
X140511785Y-102370000D01*
X140559404Y-102417619D01*
X140607023Y-102512857D01*
X140607023Y-102655714D01*
X140559404Y-102750952D01*
X140511785Y-102798571D01*
X140416547Y-102846190D01*
X140035595Y-102846190D01*
X140940357Y-102322380D02*
X141607023Y-103322380D01*
X141607023Y-102322380D02*
X140940357Y-103322380D01*
X141749880Y-103417619D02*
X142511785Y-103417619D01*
X143273690Y-103322380D02*
X142702261Y-103322380D01*
X142987976Y-103322380D02*
X142987976Y-102322380D01*
X142892738Y-102465238D01*
X142797500Y-102560476D01*
X142702261Y-102608095D01*
X140035595Y-100782380D02*
X140035595Y-99782380D01*
X140416547Y-99782380D01*
X140511785Y-99830000D01*
X140559404Y-99877619D01*
X140607023Y-99972857D01*
X140607023Y-100115714D01*
X140559404Y-100210952D01*
X140511785Y-100258571D01*
X140416547Y-100306190D01*
X140035595Y-100306190D01*
X141368928Y-100258571D02*
X141511785Y-100306190D01*
X141559404Y-100353809D01*
X141607023Y-100449047D01*
X141607023Y-100591904D01*
X141559404Y-100687142D01*
X141511785Y-100734761D01*
X141416547Y-100782380D01*
X141035595Y-100782380D01*
X141035595Y-99782380D01*
X141368928Y-99782380D01*
X141464166Y-99830000D01*
X141511785Y-99877619D01*
X141559404Y-99972857D01*
X141559404Y-100068095D01*
X141511785Y-100163333D01*
X141464166Y-100210952D01*
X141368928Y-100258571D01*
X141035595Y-100258571D01*
X142559404Y-100782380D02*
X141987976Y-100782380D01*
X142273690Y-100782380D02*
X142273690Y-99782380D01*
X142178452Y-99925238D01*
X142083214Y-100020476D01*
X141987976Y-100068095D01*
X142940357Y-99877619D02*
X142987976Y-99830000D01*
X143083214Y-99782380D01*
X143321309Y-99782380D01*
X143416547Y-99830000D01*
X143464166Y-99877619D01*
X143511785Y-99972857D01*
X143511785Y-100068095D01*
X143464166Y-100210952D01*
X142892738Y-100782380D01*
X143511785Y-100782380D01*
X140035595Y-98242380D02*
X140035595Y-97242380D01*
X140416547Y-97242380D01*
X140511785Y-97290000D01*
X140559404Y-97337619D01*
X140607023Y-97432857D01*
X140607023Y-97575714D01*
X140559404Y-97670952D01*
X140511785Y-97718571D01*
X140416547Y-97766190D01*
X140035595Y-97766190D01*
X141368928Y-97718571D02*
X141511785Y-97766190D01*
X141559404Y-97813809D01*
X141607023Y-97909047D01*
X141607023Y-98051904D01*
X141559404Y-98147142D01*
X141511785Y-98194761D01*
X141416547Y-98242380D01*
X141035595Y-98242380D01*
X141035595Y-97242380D01*
X141368928Y-97242380D01*
X141464166Y-97290000D01*
X141511785Y-97337619D01*
X141559404Y-97432857D01*
X141559404Y-97528095D01*
X141511785Y-97623333D01*
X141464166Y-97670952D01*
X141368928Y-97718571D01*
X141035595Y-97718571D01*
X141987976Y-97337619D02*
X142035595Y-97290000D01*
X142130833Y-97242380D01*
X142368928Y-97242380D01*
X142464166Y-97290000D01*
X142511785Y-97337619D01*
X142559404Y-97432857D01*
X142559404Y-97528095D01*
X142511785Y-97670952D01*
X141940357Y-98242380D01*
X142559404Y-98242380D01*
X139892738Y-94702380D02*
X140226071Y-95702380D01*
X140559404Y-94702380D01*
X140892738Y-95702380D02*
X140892738Y-94702380D01*
X141130833Y-94702380D01*
X141273690Y-94750000D01*
X141368928Y-94845238D01*
X141416547Y-94940476D01*
X141464166Y-95130952D01*
X141464166Y-95273809D01*
X141416547Y-95464285D01*
X141368928Y-95559523D01*
X141273690Y-95654761D01*
X141130833Y-95702380D01*
X140892738Y-95702380D01*
X141892738Y-95702380D02*
X141892738Y-94702380D01*
X142130833Y-94702380D01*
X142273690Y-94750000D01*
X142368928Y-94845238D01*
X142416547Y-94940476D01*
X142464166Y-95130952D01*
X142464166Y-95273809D01*
X142416547Y-95464285D01*
X142368928Y-95559523D01*
X142273690Y-95654761D01*
X142130833Y-95702380D01*
X141892738Y-95702380D01*
X140607023Y-93162380D02*
X140273690Y-92686190D01*
X140035595Y-93162380D02*
X140035595Y-92162380D01*
X140416547Y-92162380D01*
X140511785Y-92210000D01*
X140559404Y-92257619D01*
X140607023Y-92352857D01*
X140607023Y-92495714D01*
X140559404Y-92590952D01*
X140511785Y-92638571D01*
X140416547Y-92686190D01*
X140035595Y-92686190D01*
X141368928Y-92638571D02*
X141035595Y-92638571D01*
X141035595Y-93162380D02*
X141035595Y-92162380D01*
X141511785Y-92162380D01*
X142416547Y-93162380D02*
X141845119Y-93162380D01*
X142130833Y-93162380D02*
X142130833Y-92162380D01*
X142035595Y-92305238D01*
X141940357Y-92400476D01*
X141845119Y-92448095D01*
X142702261Y-92162380D02*
X143035595Y-93162380D01*
X143368928Y-92162380D01*
X144178452Y-92162380D02*
X143702261Y-92162380D01*
X143654642Y-92638571D01*
X143702261Y-92590952D01*
X143797500Y-92543333D01*
X144035595Y-92543333D01*
X144130833Y-92590952D01*
X144178452Y-92638571D01*
X144226071Y-92733809D01*
X144226071Y-92971904D01*
X144178452Y-93067142D01*
X144130833Y-93114761D01*
X144035595Y-93162380D01*
X143797500Y-93162380D01*
X143702261Y-93114761D01*
X143654642Y-93067142D01*
X145130833Y-92162380D02*
X144654642Y-92162380D01*
X144607023Y-92638571D01*
X144654642Y-92590952D01*
X144749880Y-92543333D01*
X144987976Y-92543333D01*
X145083214Y-92590952D01*
X145130833Y-92638571D01*
X145178452Y-92733809D01*
X145178452Y-92971904D01*
X145130833Y-93067142D01*
X145083214Y-93114761D01*
X144987976Y-93162380D01*
X144749880Y-93162380D01*
X144654642Y-93114761D01*
X144607023Y-93067142D01*
X140559404Y-89670000D02*
X140464166Y-89622380D01*
X140321309Y-89622380D01*
X140178452Y-89670000D01*
X140083214Y-89765238D01*
X140035595Y-89860476D01*
X139987976Y-90050952D01*
X139987976Y-90193809D01*
X140035595Y-90384285D01*
X140083214Y-90479523D01*
X140178452Y-90574761D01*
X140321309Y-90622380D01*
X140416547Y-90622380D01*
X140559404Y-90574761D01*
X140607023Y-90527142D01*
X140607023Y-90193809D01*
X140416547Y-90193809D01*
X141035595Y-90622380D02*
X141035595Y-89622380D01*
X141607023Y-90622380D01*
X141607023Y-89622380D01*
X142083214Y-90622380D02*
X142083214Y-89622380D01*
X142321309Y-89622380D01*
X142464166Y-89670000D01*
X142559404Y-89765238D01*
X142607023Y-89860476D01*
X142654642Y-90050952D01*
X142654642Y-90193809D01*
X142607023Y-90384285D01*
X142559404Y-90479523D01*
X142464166Y-90574761D01*
X142321309Y-90622380D01*
X142083214Y-90622380D01*
X140607023Y-88082380D02*
X140273690Y-87606190D01*
X140035595Y-88082380D02*
X140035595Y-87082380D01*
X140416547Y-87082380D01*
X140511785Y-87130000D01*
X140559404Y-87177619D01*
X140607023Y-87272857D01*
X140607023Y-87415714D01*
X140559404Y-87510952D01*
X140511785Y-87558571D01*
X140416547Y-87606190D01*
X140035595Y-87606190D01*
X141368928Y-87558571D02*
X141035595Y-87558571D01*
X141035595Y-88082380D02*
X141035595Y-87082380D01*
X141511785Y-87082380D01*
X141845119Y-87177619D02*
X141892738Y-87130000D01*
X141987976Y-87082380D01*
X142226071Y-87082380D01*
X142321309Y-87130000D01*
X142368928Y-87177619D01*
X142416547Y-87272857D01*
X142416547Y-87368095D01*
X142368928Y-87510952D01*
X141797500Y-88082380D01*
X142416547Y-88082380D01*
X140607023Y-85542380D02*
X140273690Y-85066190D01*
X140035595Y-85542380D02*
X140035595Y-84542380D01*
X140416547Y-84542380D01*
X140511785Y-84590000D01*
X140559404Y-84637619D01*
X140607023Y-84732857D01*
X140607023Y-84875714D01*
X140559404Y-84970952D01*
X140511785Y-85018571D01*
X140416547Y-85066190D01*
X140035595Y-85066190D01*
X141368928Y-85018571D02*
X141035595Y-85018571D01*
X141035595Y-85542380D02*
X141035595Y-84542380D01*
X141511785Y-84542380D01*
X141797500Y-84542380D02*
X142416547Y-84542380D01*
X142083214Y-84923333D01*
X142226071Y-84923333D01*
X142321309Y-84970952D01*
X142368928Y-85018571D01*
X142416547Y-85113809D01*
X142416547Y-85351904D01*
X142368928Y-85447142D01*
X142321309Y-85494761D01*
X142226071Y-85542380D01*
X141940357Y-85542380D01*
X141845119Y-85494761D01*
X141797500Y-85447142D01*
X140368928Y-82478571D02*
X140511785Y-82526190D01*
X140559404Y-82573809D01*
X140607023Y-82669047D01*
X140607023Y-82811904D01*
X140559404Y-82907142D01*
X140511785Y-82954761D01*
X140416547Y-83002380D01*
X140035595Y-83002380D01*
X140035595Y-82002380D01*
X140368928Y-82002380D01*
X140464166Y-82050000D01*
X140511785Y-82097619D01*
X140559404Y-82192857D01*
X140559404Y-82288095D01*
X140511785Y-82383333D01*
X140464166Y-82430952D01*
X140368928Y-82478571D01*
X140035595Y-82478571D01*
X141226071Y-82002380D02*
X141416547Y-82002380D01*
X141511785Y-82050000D01*
X141607023Y-82145238D01*
X141654642Y-82335714D01*
X141654642Y-82669047D01*
X141607023Y-82859523D01*
X141511785Y-82954761D01*
X141416547Y-83002380D01*
X141226071Y-83002380D01*
X141130833Y-82954761D01*
X141035595Y-82859523D01*
X140987976Y-82669047D01*
X140987976Y-82335714D01*
X141035595Y-82145238D01*
X141130833Y-82050000D01*
X141226071Y-82002380D01*
X142273690Y-82002380D02*
X142464166Y-82002380D01*
X142559404Y-82050000D01*
X142654642Y-82145238D01*
X142702261Y-82335714D01*
X142702261Y-82669047D01*
X142654642Y-82859523D01*
X142559404Y-82954761D01*
X142464166Y-83002380D01*
X142273690Y-83002380D01*
X142178452Y-82954761D01*
X142083214Y-82859523D01*
X142035595Y-82669047D01*
X142035595Y-82335714D01*
X142083214Y-82145238D01*
X142178452Y-82050000D01*
X142273690Y-82002380D01*
X142987976Y-82002380D02*
X143559404Y-82002380D01*
X143273690Y-83002380D02*
X143273690Y-82002380D01*
X144083214Y-82002380D02*
X144178452Y-82002380D01*
X144273690Y-82050000D01*
X144321309Y-82097619D01*
X144368928Y-82192857D01*
X144416547Y-82383333D01*
X144416547Y-82621428D01*
X144368928Y-82811904D01*
X144321309Y-82907142D01*
X144273690Y-82954761D01*
X144178452Y-83002380D01*
X144083214Y-83002380D01*
X143987976Y-82954761D01*
X143940357Y-82907142D01*
X143892738Y-82811904D01*
X143845119Y-82621428D01*
X143845119Y-82383333D01*
X143892738Y-82192857D01*
X143940357Y-82097619D01*
X143987976Y-82050000D01*
X144083214Y-82002380D01*
X140607023Y-80462380D02*
X140273690Y-79986190D01*
X140035595Y-80462380D02*
X140035595Y-79462380D01*
X140416547Y-79462380D01*
X140511785Y-79510000D01*
X140559404Y-79557619D01*
X140607023Y-79652857D01*
X140607023Y-79795714D01*
X140559404Y-79890952D01*
X140511785Y-79938571D01*
X140416547Y-79986190D01*
X140035595Y-79986190D01*
X140987976Y-80414761D02*
X141130833Y-80462380D01*
X141368928Y-80462380D01*
X141464166Y-80414761D01*
X141511785Y-80367142D01*
X141559404Y-80271904D01*
X141559404Y-80176666D01*
X141511785Y-80081428D01*
X141464166Y-80033809D01*
X141368928Y-79986190D01*
X141178452Y-79938571D01*
X141083214Y-79890952D01*
X141035595Y-79843333D01*
X140987976Y-79748095D01*
X140987976Y-79652857D01*
X141035595Y-79557619D01*
X141083214Y-79510000D01*
X141178452Y-79462380D01*
X141416547Y-79462380D01*
X141559404Y-79510000D01*
X141845119Y-79462380D02*
X142416547Y-79462380D01*
X142130833Y-80462380D02*
X142130833Y-79462380D01*
G04 #@! TO.C,J3*
X167506666Y-80567380D02*
X167506666Y-81281666D01*
X167459047Y-81424523D01*
X167363809Y-81519761D01*
X167220952Y-81567380D01*
X167125714Y-81567380D01*
X167887619Y-80567380D02*
X168506666Y-80567380D01*
X168173333Y-80948333D01*
X168316190Y-80948333D01*
X168411428Y-80995952D01*
X168459047Y-81043571D01*
X168506666Y-81138809D01*
X168506666Y-81376904D01*
X168459047Y-81472142D01*
X168411428Y-81519761D01*
X168316190Y-81567380D01*
X168030476Y-81567380D01*
X167935238Y-81519761D01*
X167887619Y-81472142D01*
G04 #@! TO.C,J2*
X137416666Y-76802380D02*
X137416666Y-77516666D01*
X137369047Y-77659523D01*
X137273809Y-77754761D01*
X137130952Y-77802380D01*
X137035714Y-77802380D01*
X137845238Y-76897619D02*
X137892857Y-76850000D01*
X137988095Y-76802380D01*
X138226190Y-76802380D01*
X138321428Y-76850000D01*
X138369047Y-76897619D01*
X138416666Y-76992857D01*
X138416666Y-77088095D01*
X138369047Y-77230952D01*
X137797619Y-77802380D01*
X138416666Y-77802380D01*
G04 #@! TO.C,J1*
X178736666Y-76692380D02*
X178736666Y-77406666D01*
X178689047Y-77549523D01*
X178593809Y-77644761D01*
X178450952Y-77692380D01*
X178355714Y-77692380D01*
X179736666Y-77692380D02*
X179165238Y-77692380D01*
X179450952Y-77692380D02*
X179450952Y-76692380D01*
X179355714Y-76835238D01*
X179260476Y-76930476D01*
X179165238Y-76978095D01*
D11*
G04 #@! TO.C,G\u002A\u002A\u002A*
X147719834Y-112863915D02*
X147742923Y-112892443D01*
X147742923Y-112892443D02*
X147750400Y-112924845D01*
X147750400Y-112924845D02*
X147753985Y-112936827D01*
X147753985Y-112936827D02*
X147765677Y-112955332D01*
X147765677Y-112955332D02*
X147786879Y-112981875D01*
X147786879Y-112981875D02*
X147818995Y-113017969D01*
X147818995Y-113017969D02*
X147863427Y-113065130D01*
X147863427Y-113065130D02*
X147921580Y-113124872D01*
X147921580Y-113124872D02*
X147994857Y-113198709D01*
X147994857Y-113198709D02*
X148084661Y-113288155D01*
X148084661Y-113288155D02*
X148114407Y-113317638D01*
X148114407Y-113317638D02*
X148478415Y-113678100D01*
X148478415Y-113678100D02*
X149122000Y-113678100D01*
X149122000Y-113678100D02*
X149122000Y-113284400D01*
X149122000Y-113284400D02*
X149147400Y-113284400D01*
X149147400Y-113284400D02*
X149147400Y-113678660D01*
X149147400Y-113678660D02*
X149384246Y-113675205D01*
X149384246Y-113675205D02*
X149621093Y-113671750D01*
X149621093Y-113671750D02*
X149615927Y-113443150D01*
X149615927Y-113443150D02*
X149459283Y-113284400D01*
X149459283Y-113284400D02*
X149147400Y-113284400D01*
X149147400Y-113284400D02*
X149122000Y-113284400D01*
X149122000Y-113284400D02*
X149042307Y-113284399D01*
X149042307Y-113284399D02*
X148962614Y-113284399D01*
X148962614Y-113284399D02*
X148869787Y-113190949D01*
X148869787Y-113190949D02*
X148828197Y-113148596D01*
X148828197Y-113148596D02*
X148801518Y-113118835D01*
X148801518Y-113118835D02*
X148786640Y-113096356D01*
X148786640Y-113096356D02*
X148780454Y-113075850D01*
X148780454Y-113075850D02*
X148779850Y-113052007D01*
X148779850Y-113052007D02*
X148780579Y-113038638D01*
X148780579Y-113038638D02*
X148780118Y-112997065D01*
X148780118Y-112997065D02*
X148770990Y-112972376D01*
X148770990Y-112972376D02*
X148761510Y-112963188D01*
X148761510Y-112963188D02*
X148745446Y-112937736D01*
X148745446Y-112937736D02*
X148744892Y-112924701D01*
X148744892Y-112924701D02*
X148771094Y-112924701D01*
X148771094Y-112924701D02*
X148787610Y-112939591D01*
X148787610Y-112939591D02*
X148798899Y-112941500D01*
X148798899Y-112941500D02*
X148813735Y-112930925D01*
X148813735Y-112930925D02*
X148817200Y-112916100D01*
X148817200Y-112916100D02*
X148808162Y-112895668D01*
X148808162Y-112895668D02*
X148788913Y-112891206D01*
X148788913Y-112891206D02*
X148772750Y-112903400D01*
X148772750Y-112903400D02*
X148771094Y-112924701D01*
X148771094Y-112924701D02*
X148744892Y-112924701D01*
X148744892Y-112924701D02*
X148743996Y-112903656D01*
X148743996Y-112903656D02*
X148756360Y-112872507D01*
X148756360Y-112872507D02*
X148768588Y-112860918D01*
X148768588Y-112860918D02*
X148800370Y-112853608D01*
X148800370Y-112853608D02*
X148830401Y-112865969D01*
X148830401Y-112865969D02*
X148850851Y-112893006D01*
X148850851Y-112893006D02*
X148855300Y-112916226D01*
X148855300Y-112916226D02*
X148849364Y-112947587D01*
X148849364Y-112947587D02*
X148836250Y-112962307D01*
X148836250Y-112962307D02*
X148823640Y-112976951D01*
X148823640Y-112976951D02*
X148817847Y-113010845D01*
X148817847Y-113010845D02*
X148817200Y-113035300D01*
X148817200Y-113035300D02*
X148818067Y-113067533D01*
X148818067Y-113067533D02*
X148823036Y-113091815D01*
X148823036Y-113091815D02*
X148835654Y-113114561D01*
X148835654Y-113114561D02*
X148859469Y-113142183D01*
X148859469Y-113142183D02*
X148897659Y-113180728D01*
X148897659Y-113180728D02*
X148978118Y-113260472D01*
X148978118Y-113260472D02*
X149115650Y-113252650D01*
X149115650Y-113252650D02*
X149119289Y-113120613D01*
X149119289Y-113120613D02*
X149120495Y-113060306D01*
X149120495Y-113060306D02*
X149119582Y-113019713D01*
X149119582Y-113019713D02*
X149115718Y-112993183D01*
X149115718Y-112993183D02*
X149108069Y-112975063D01*
X149108069Y-112975063D02*
X149095802Y-112959701D01*
X149095802Y-112959701D02*
X149095511Y-112959391D01*
X149095511Y-112959391D02*
X149076980Y-112926584D01*
X149076980Y-112926584D02*
X149077227Y-112916642D01*
X149077227Y-112916642D02*
X149109192Y-112916642D01*
X149109192Y-112916642D02*
X149118031Y-112933297D01*
X149118031Y-112933297D02*
X149136418Y-112938442D01*
X149136418Y-112938442D02*
X149151375Y-112925943D01*
X149151375Y-112925943D02*
X149153750Y-112915215D01*
X149153750Y-112915215D02*
X149143193Y-112898035D01*
X149143193Y-112898035D02*
X149131525Y-112893117D01*
X149131525Y-112893117D02*
X149113696Y-112898567D01*
X149113696Y-112898567D02*
X149109192Y-112916642D01*
X149109192Y-112916642D02*
X149077227Y-112916642D01*
X149077227Y-112916642D02*
X149077769Y-112894858D01*
X149077769Y-112894858D02*
X149093295Y-112869354D01*
X149093295Y-112869354D02*
X149118975Y-112855213D01*
X149118975Y-112855213D02*
X149150228Y-112857575D01*
X149150228Y-112857575D02*
X149173311Y-112872113D01*
X149173311Y-112872113D02*
X149195311Y-112904001D01*
X149195311Y-112904001D02*
X149191950Y-112936388D01*
X149191950Y-112936388D02*
X149172394Y-112960917D01*
X149172394Y-112960917D02*
X149160835Y-112973727D01*
X149160835Y-112973727D02*
X149153585Y-112990448D01*
X149153585Y-112990448D02*
X149149889Y-113016427D01*
X149149889Y-113016427D02*
X149148994Y-113057010D01*
X149148994Y-113057010D02*
X149150144Y-113117547D01*
X149150144Y-113117547D02*
X149150169Y-113118460D01*
X149150169Y-113118460D02*
X149153750Y-113252650D01*
X149153750Y-113252650D02*
X149320285Y-113256181D01*
X149320285Y-113256181D02*
X149486821Y-113259713D01*
X149486821Y-113259713D02*
X149571110Y-113347021D01*
X149571110Y-113347021D02*
X149655400Y-113434330D01*
X149655400Y-113434330D02*
X149655400Y-113678100D01*
X149655400Y-113678100D02*
X149690026Y-113678099D01*
X149690026Y-113678099D02*
X149712761Y-113683467D01*
X149712761Y-113683467D02*
X149741597Y-113701325D01*
X149741597Y-113701325D02*
X149780190Y-113734311D01*
X149780190Y-113734311D02*
X149816410Y-113769245D01*
X149816410Y-113769245D02*
X149908167Y-113860390D01*
X149908167Y-113860390D02*
X149900380Y-114709585D01*
X149900380Y-114709585D02*
X149892592Y-115558781D01*
X149892592Y-115558781D02*
X149920046Y-115578010D01*
X149920046Y-115578010D02*
X149943964Y-115606370D01*
X149943964Y-115606370D02*
X149947290Y-115637594D01*
X149947290Y-115637594D02*
X149932885Y-115664799D01*
X149932885Y-115664799D02*
X149903613Y-115681102D01*
X149903613Y-115681102D02*
X149876612Y-115682442D01*
X149876612Y-115682442D02*
X149843812Y-115668906D01*
X149843812Y-115668906D02*
X149829638Y-115642145D01*
X149829638Y-115642145D02*
X149830592Y-115637077D01*
X149830592Y-115637077D02*
X149861668Y-115637077D01*
X149861668Y-115637077D02*
X149865364Y-115647270D01*
X149865364Y-115647270D02*
X149881643Y-115656636D01*
X149881643Y-115656636D02*
X149899079Y-115647144D01*
X149899079Y-115647144D02*
X149907156Y-115629672D01*
X149907156Y-115629672D02*
X149901859Y-115611587D01*
X149901859Y-115611587D02*
X149892030Y-115608500D01*
X149892030Y-115608500D02*
X149868949Y-115617219D01*
X149868949Y-115617219D02*
X149861668Y-115637077D01*
X149861668Y-115637077D02*
X149830592Y-115637077D01*
X149830592Y-115637077D02*
X149836049Y-115608102D01*
X149836049Y-115608102D02*
X149846609Y-115591432D01*
X149846609Y-115591432D02*
X149853110Y-115582021D01*
X149853110Y-115582021D02*
X149858360Y-115570271D01*
X149858360Y-115570271D02*
X149862492Y-115553560D01*
X149862492Y-115553560D02*
X149865639Y-115529266D01*
X149865639Y-115529266D02*
X149867935Y-115494765D01*
X149867935Y-115494765D02*
X149869512Y-115447436D01*
X149869512Y-115447436D02*
X149870503Y-115384655D01*
X149870503Y-115384655D02*
X149871043Y-115303800D01*
X149871043Y-115303800D02*
X149871263Y-115202248D01*
X149871263Y-115202248D02*
X149871300Y-115105244D01*
X149871300Y-115105244D02*
X149871300Y-114650445D01*
X149871300Y-114650445D02*
X149797906Y-114723072D01*
X149797906Y-114723072D02*
X149752854Y-114764463D01*
X149752854Y-114764463D02*
X149718777Y-114787800D01*
X149718777Y-114787800D02*
X149691843Y-114795662D01*
X149691843Y-114795662D02*
X149689956Y-114795700D01*
X149689956Y-114795700D02*
X149655400Y-114795700D01*
X149655400Y-114795700D02*
X149655400Y-115181494D01*
X149655400Y-115181494D02*
X149655558Y-115292993D01*
X149655558Y-115292993D02*
X149656115Y-115381725D01*
X149656115Y-115381725D02*
X149657196Y-115450322D01*
X149657196Y-115450322D02*
X149658927Y-115501417D01*
X149658927Y-115501417D02*
X149661431Y-115537641D01*
X149661431Y-115537641D02*
X149664834Y-115561626D01*
X149664834Y-115561626D02*
X149669261Y-115576005D01*
X149669261Y-115576005D02*
X149674450Y-115583100D01*
X149674450Y-115583100D02*
X149690747Y-115610929D01*
X149690747Y-115610929D02*
X149691018Y-115645315D01*
X149691018Y-115645315D02*
X149678260Y-115669460D01*
X149678260Y-115669460D02*
X149655030Y-115680541D01*
X149655030Y-115680541D02*
X149622790Y-115684605D01*
X149622790Y-115684605D02*
X149594948Y-115680650D01*
X149594948Y-115680650D02*
X149587666Y-115676233D01*
X149587666Y-115676233D02*
X149579538Y-115653520D01*
X149579538Y-115653520D02*
X149580361Y-115637077D01*
X149580361Y-115637077D02*
X149607668Y-115637077D01*
X149607668Y-115637077D02*
X149611364Y-115647270D01*
X149611364Y-115647270D02*
X149627643Y-115656636D01*
X149627643Y-115656636D02*
X149645079Y-115647144D01*
X149645079Y-115647144D02*
X149653156Y-115629672D01*
X149653156Y-115629672D02*
X149647859Y-115611587D01*
X149647859Y-115611587D02*
X149638030Y-115608500D01*
X149638030Y-115608500D02*
X149614949Y-115617219D01*
X149614949Y-115617219D02*
X149607668Y-115637077D01*
X149607668Y-115637077D02*
X149580361Y-115637077D01*
X149580361Y-115637077D02*
X149581163Y-115621088D01*
X149581163Y-115621088D02*
X149591058Y-115591995D01*
X149591058Y-115591995D02*
X149598250Y-115583100D01*
X149598250Y-115583100D02*
X149603749Y-115575335D01*
X149603749Y-115575335D02*
X149608107Y-115560431D01*
X149608107Y-115560431D02*
X149611450Y-115535755D01*
X149611450Y-115535755D02*
X149613902Y-115498675D01*
X149613902Y-115498675D02*
X149615588Y-115446560D01*
X149615588Y-115446560D02*
X149616633Y-115376777D01*
X149616633Y-115376777D02*
X149617162Y-115286694D01*
X149617162Y-115286694D02*
X149617300Y-115181494D01*
X149617300Y-115181494D02*
X149617300Y-114795700D01*
X149617300Y-114795700D02*
X149401400Y-114795700D01*
X149401400Y-114795700D02*
X149401400Y-114830942D01*
X149401400Y-114830942D02*
X149396504Y-114853174D01*
X149396504Y-114853174D02*
X149379954Y-114880559D01*
X149379954Y-114880559D02*
X149348954Y-114916943D01*
X149348954Y-114916943D02*
X149309026Y-114957942D01*
X149309026Y-114957942D02*
X149216652Y-115049700D01*
X149216652Y-115049700D02*
X148154355Y-115049700D01*
X148154355Y-115049700D02*
X147964611Y-115049728D01*
X147964611Y-115049728D02*
X147798616Y-115049836D01*
X147798616Y-115049836D02*
X147654721Y-115050056D01*
X147654721Y-115050056D02*
X147531274Y-115050421D01*
X147531274Y-115050421D02*
X147426625Y-115050964D01*
X147426625Y-115050964D02*
X147339124Y-115051718D01*
X147339124Y-115051718D02*
X147267121Y-115052715D01*
X147267121Y-115052715D02*
X147208964Y-115053989D01*
X147208964Y-115053989D02*
X147163003Y-115055572D01*
X147163003Y-115055572D02*
X147127589Y-115057496D01*
X147127589Y-115057496D02*
X147101070Y-115059796D01*
X147101070Y-115059796D02*
X147081796Y-115062503D01*
X147081796Y-115062503D02*
X147068117Y-115065651D01*
X147068117Y-115065651D02*
X147058382Y-115069273D01*
X147058382Y-115069273D02*
X147053902Y-115071598D01*
X147053902Y-115071598D02*
X147026956Y-115085319D01*
X147026956Y-115085319D02*
X147009817Y-115085202D01*
X147009817Y-115085202D02*
X146990767Y-115070889D01*
X146990767Y-115070889D02*
X146989372Y-115069630D01*
X146989372Y-115069630D02*
X146967754Y-115037345D01*
X146967754Y-115037345D02*
X146965723Y-115013828D01*
X146965723Y-115013828D02*
X146992787Y-115013828D01*
X146992787Y-115013828D02*
X147000782Y-115030263D01*
X147000782Y-115030263D02*
X147001354Y-115030956D01*
X147001354Y-115030956D02*
X147018781Y-115043016D01*
X147018781Y-115043016D02*
X147035073Y-115035154D01*
X147035073Y-115035154D02*
X147045392Y-115016912D01*
X147045392Y-115016912D02*
X147040591Y-115007911D01*
X147040591Y-115007911D02*
X147019550Y-115001280D01*
X147019550Y-115001280D02*
X147006873Y-115003713D01*
X147006873Y-115003713D02*
X146992787Y-115013828D01*
X146992787Y-115013828D02*
X146965723Y-115013828D01*
X146965723Y-115013828D02*
X146964705Y-115002048D01*
X146964705Y-115002048D02*
X146978239Y-114976040D01*
X146978239Y-114976040D02*
X147007946Y-114961947D01*
X147007946Y-114961947D02*
X147041813Y-114965808D01*
X147041813Y-114965808D02*
X147067547Y-114986200D01*
X147067547Y-114986200D02*
X147070795Y-114990705D01*
X147070795Y-114990705D02*
X147075626Y-114994643D01*
X147075626Y-114994643D02*
X147083664Y-114998053D01*
X147083664Y-114998053D02*
X147096533Y-115000972D01*
X147096533Y-115000972D02*
X147115856Y-115003439D01*
X147115856Y-115003439D02*
X147143258Y-115005491D01*
X147143258Y-115005491D02*
X147180363Y-115007166D01*
X147180363Y-115007166D02*
X147228796Y-115008504D01*
X147228796Y-115008504D02*
X147290179Y-115009541D01*
X147290179Y-115009541D02*
X147366138Y-115010316D01*
X147366138Y-115010316D02*
X147458296Y-115010867D01*
X147458296Y-115010867D02*
X147568278Y-115011233D01*
X147568278Y-115011233D02*
X147697707Y-115011451D01*
X147697707Y-115011451D02*
X147848208Y-115011559D01*
X147848208Y-115011559D02*
X148021404Y-115011596D01*
X148021404Y-115011596D02*
X148149961Y-115011600D01*
X148149961Y-115011600D02*
X149216513Y-115011600D01*
X149216513Y-115011600D02*
X149289906Y-114938972D01*
X149289906Y-114938972D02*
X149330852Y-114895567D01*
X149330852Y-114895567D02*
X149354245Y-114862814D01*
X149354245Y-114862814D02*
X149363033Y-114836373D01*
X149363033Y-114836373D02*
X149363300Y-114831022D01*
X149363300Y-114831022D02*
X149359391Y-114805270D01*
X149359391Y-114805270D02*
X149342317Y-114796357D01*
X149342317Y-114796357D02*
X149328034Y-114795700D01*
X149328034Y-114795700D02*
X149304810Y-114790502D01*
X149304810Y-114790502D02*
X149276369Y-114773004D01*
X149276369Y-114773004D02*
X149238697Y-114740345D01*
X149238697Y-114740345D02*
X149207630Y-114709904D01*
X149207630Y-114709904D02*
X149122492Y-114624109D01*
X149122492Y-114624109D02*
X149122181Y-114597698D01*
X149122181Y-114597698D02*
X149146890Y-114597698D01*
X149146890Y-114597698D02*
X149229828Y-114681277D01*
X149229828Y-114681277D02*
X149269886Y-114721255D01*
X149269886Y-114721255D02*
X149301002Y-114749540D01*
X149301002Y-114749540D02*
X149324305Y-114764412D01*
X149324305Y-114764412D02*
X149340924Y-114764156D01*
X149340924Y-114764156D02*
X149351990Y-114747052D01*
X149351990Y-114747052D02*
X149358630Y-114711382D01*
X149358630Y-114711382D02*
X149361976Y-114655430D01*
X149361976Y-114655430D02*
X149363156Y-114577476D01*
X149363156Y-114577476D02*
X149363300Y-114478256D01*
X149363300Y-114478256D02*
X149363300Y-114191654D01*
X149363300Y-114191654D02*
X149290275Y-114120031D01*
X149290275Y-114120031D02*
X149251127Y-114084928D01*
X149251127Y-114084928D02*
X149215045Y-114058298D01*
X149215045Y-114058298D02*
X149188546Y-114044858D01*
X149188546Y-114044858D02*
X149185500Y-114044228D01*
X149185500Y-114044228D02*
X149153750Y-114040050D01*
X149153750Y-114040050D02*
X149146890Y-114597698D01*
X149146890Y-114597698D02*
X149122181Y-114597698D01*
X149122181Y-114597698D02*
X149115650Y-114043491D01*
X149115650Y-114043491D02*
X148956900Y-114045403D01*
X148956900Y-114045403D02*
X148798150Y-114047316D01*
X148798150Y-114047316D02*
X148459548Y-113707460D01*
X148459548Y-113707460D02*
X148512400Y-113707460D01*
X148512400Y-113707460D02*
X148520922Y-113717439D01*
X148520922Y-113717439D02*
X148544506Y-113742244D01*
X148544506Y-113742244D02*
X148580175Y-113778815D01*
X148580175Y-113778815D02*
X148624954Y-113824095D01*
X148624954Y-113824095D02*
X148660884Y-113860090D01*
X148660884Y-113860090D02*
X148809368Y-114008300D01*
X148809368Y-114008300D02*
X149122806Y-114008300D01*
X149122806Y-114008300D02*
X149147400Y-114008300D01*
X149147400Y-114008300D02*
X149187466Y-114008300D01*
X149187466Y-114008300D02*
X149209420Y-114011352D01*
X149209420Y-114011352D02*
X149232195Y-114022752D01*
X149232195Y-114022752D02*
X149260423Y-114045864D01*
X149260423Y-114045864D02*
X149298733Y-114084052D01*
X149298733Y-114084052D02*
X149314227Y-114100375D01*
X149314227Y-114100375D02*
X149400921Y-114192450D01*
X149400921Y-114192450D02*
X149401160Y-114475025D01*
X149401160Y-114475025D02*
X149401400Y-114757600D01*
X149401400Y-114757600D02*
X149617300Y-114757600D01*
X149617300Y-114757600D02*
X149617300Y-114131291D01*
X149617300Y-114131291D02*
X149617301Y-114027267D01*
X149617301Y-114027267D02*
X149617304Y-113933914D01*
X149617304Y-113933914D02*
X149617307Y-113853971D01*
X149617307Y-113853971D02*
X149617310Y-113790176D01*
X149617310Y-113790176D02*
X149617314Y-113745267D01*
X149617314Y-113745267D02*
X149617319Y-113721981D01*
X149617319Y-113721981D02*
X149617321Y-113719375D01*
X149617321Y-113719375D02*
X149605287Y-113716194D01*
X149605287Y-113716194D02*
X149571805Y-113713087D01*
X149571805Y-113713087D02*
X149520829Y-113710272D01*
X149520829Y-113710272D02*
X149456310Y-113707968D01*
X149456310Y-113707968D02*
X149382371Y-113706394D01*
X149382371Y-113706394D02*
X149185554Y-113703500D01*
X149185554Y-113703500D02*
X149655400Y-113703500D01*
X149655400Y-113703500D02*
X149655400Y-114228433D01*
X149655400Y-114228433D02*
X149655569Y-114341455D01*
X149655569Y-114341455D02*
X149656051Y-114446473D01*
X149656051Y-114446473D02*
X149656811Y-114540793D01*
X149656811Y-114540793D02*
X149657812Y-114621721D01*
X149657812Y-114621721D02*
X149659016Y-114686564D01*
X149659016Y-114686564D02*
X149660389Y-114732629D01*
X149660389Y-114732629D02*
X149661892Y-114757223D01*
X149661892Y-114757223D02*
X149662615Y-114760582D01*
X149662615Y-114760582D02*
X149678251Y-114766148D01*
X149678251Y-114766148D02*
X149701856Y-114756798D01*
X149701856Y-114756798D02*
X149735958Y-114730942D01*
X149735958Y-114730942D02*
X149783084Y-114686989D01*
X149783084Y-114686989D02*
X149789197Y-114680956D01*
X149789197Y-114680956D02*
X149871300Y-114599583D01*
X149871300Y-114599583D02*
X149871300Y-113862933D01*
X149871300Y-113862933D02*
X149792291Y-113783216D01*
X149792291Y-113783216D02*
X149743706Y-113737932D01*
X149743706Y-113737932D02*
X149706214Y-113710980D01*
X149706214Y-113710980D02*
X149684341Y-113703500D01*
X149684341Y-113703500D02*
X149655400Y-113703500D01*
X149655400Y-113703500D02*
X149185554Y-113703500D01*
X149185554Y-113703500D02*
X149147400Y-113702939D01*
X149147400Y-113702939D02*
X149147400Y-114008300D01*
X149147400Y-114008300D02*
X149122806Y-114008300D01*
X149122806Y-114008300D02*
X149115650Y-113709850D01*
X149115650Y-113709850D02*
X148814025Y-113706445D01*
X148814025Y-113706445D02*
X148729540Y-113705669D01*
X148729540Y-113705669D02*
X148654187Y-113705317D01*
X148654187Y-113705317D02*
X148591455Y-113705377D01*
X148591455Y-113705377D02*
X148544832Y-113705838D01*
X148544832Y-113705838D02*
X148517807Y-113706688D01*
X148517807Y-113706688D02*
X148512400Y-113707460D01*
X148512400Y-113707460D02*
X148459548Y-113707460D01*
X148459548Y-113707460D02*
X148455602Y-113703500D01*
X148455602Y-113703500D02*
X147768006Y-113703500D01*
X147768006Y-113703500D02*
X147616219Y-113703573D01*
X147616219Y-113703573D02*
X147487871Y-113703828D01*
X147487871Y-113703828D02*
X147381004Y-113704318D01*
X147381004Y-113704318D02*
X147293658Y-113705097D01*
X147293658Y-113705097D02*
X147223872Y-113706216D01*
X147223872Y-113706216D02*
X147169688Y-113707730D01*
X147169688Y-113707730D02*
X147129145Y-113709691D01*
X147129145Y-113709691D02*
X147100285Y-113712153D01*
X147100285Y-113712153D02*
X147081146Y-113715168D01*
X147081146Y-113715168D02*
X147069770Y-113718790D01*
X147069770Y-113718790D02*
X147064599Y-113722550D01*
X147064599Y-113722550D02*
X147036101Y-113740738D01*
X147036101Y-113740738D02*
X147004173Y-113739554D01*
X147004173Y-113739554D02*
X146977164Y-113722126D01*
X146977164Y-113722126D02*
X146963422Y-113691587D01*
X146963422Y-113691587D02*
X146963000Y-113684450D01*
X146963000Y-113684450D02*
X146963081Y-113684184D01*
X146963081Y-113684184D02*
X146994950Y-113684184D01*
X146994950Y-113684184D02*
X147002628Y-113698991D01*
X147002628Y-113698991D02*
X147019884Y-113709649D01*
X147019884Y-113709649D02*
X147034691Y-113701971D01*
X147034691Y-113701971D02*
X147045349Y-113684715D01*
X147045349Y-113684715D02*
X147037671Y-113669908D01*
X147037671Y-113669908D02*
X147020415Y-113659250D01*
X147020415Y-113659250D02*
X147005608Y-113666928D01*
X147005608Y-113666928D02*
X146994950Y-113684184D01*
X146994950Y-113684184D02*
X146963081Y-113684184D01*
X146963081Y-113684184D02*
X146972998Y-113651709D01*
X146972998Y-113651709D02*
X146997530Y-113631812D01*
X146997530Y-113631812D02*
X147028405Y-113627249D01*
X147028405Y-113627249D02*
X147057428Y-113640506D01*
X147057428Y-113640506D02*
X147067547Y-113652700D01*
X147067547Y-113652700D02*
X147071637Y-113658278D01*
X147071637Y-113658278D02*
X147077732Y-113662974D01*
X147077732Y-113662974D02*
X147087894Y-113666864D01*
X147087894Y-113666864D02*
X147104183Y-113670022D01*
X147104183Y-113670022D02*
X147128663Y-113672525D01*
X147128663Y-113672525D02*
X147163396Y-113674450D01*
X147163396Y-113674450D02*
X147210442Y-113675871D01*
X147210442Y-113675871D02*
X147271864Y-113676866D01*
X147271864Y-113676866D02*
X147349725Y-113677510D01*
X147349725Y-113677510D02*
X147446085Y-113677880D01*
X147446085Y-113677880D02*
X147563007Y-113678050D01*
X147563007Y-113678050D02*
X147702553Y-113678098D01*
X147702553Y-113678098D02*
X147756544Y-113678100D01*
X147756544Y-113678100D02*
X148429679Y-113678100D01*
X148429679Y-113678100D02*
X148075394Y-113323645D01*
X148075394Y-113323645D02*
X147994480Y-113243240D01*
X147994480Y-113243240D02*
X147919834Y-113170130D01*
X147919834Y-113170130D02*
X147853323Y-113106069D01*
X147853323Y-113106069D02*
X147796813Y-113052811D01*
X147796813Y-113052811D02*
X147752168Y-113012110D01*
X147752168Y-113012110D02*
X147721254Y-112985720D01*
X147721254Y-112985720D02*
X147705938Y-112975395D01*
X147705938Y-112975395D02*
X147704996Y-112975373D01*
X147704996Y-112975373D02*
X147677700Y-112974094D01*
X147677700Y-112974094D02*
X147649283Y-112956816D01*
X147649283Y-112956816D02*
X147630234Y-112930132D01*
X147630234Y-112930132D02*
X147629465Y-112927903D01*
X147629465Y-112927903D02*
X147630027Y-112919277D01*
X147630027Y-112919277D02*
X147664568Y-112919277D01*
X147664568Y-112919277D02*
X147668264Y-112929470D01*
X147668264Y-112929470D02*
X147684543Y-112938836D01*
X147684543Y-112938836D02*
X147701979Y-112929344D01*
X147701979Y-112929344D02*
X147710056Y-112911872D01*
X147710056Y-112911872D02*
X147704759Y-112893787D01*
X147704759Y-112893787D02*
X147694930Y-112890700D01*
X147694930Y-112890700D02*
X147671849Y-112899419D01*
X147671849Y-112899419D02*
X147664568Y-112919277D01*
X147664568Y-112919277D02*
X147630027Y-112919277D01*
X147630027Y-112919277D02*
X147631439Y-112897650D01*
X147631439Y-112897650D02*
X147650319Y-112869712D01*
X147650319Y-112869712D02*
X147678667Y-112853664D01*
X147678667Y-112853664D02*
X147687961Y-112852599D01*
X147687961Y-112852599D02*
X147719834Y-112863915D01*
X147719834Y-112863915D02*
X147719834Y-112863915D01*
G36*
X149846609Y-115591432D02*
G01*
X149853110Y-115582021D01*
X149858360Y-115570271D01*
X149862492Y-115553560D01*
X149865639Y-115529266D01*
X149867935Y-115494765D01*
X149869512Y-115447436D01*
X149870503Y-115384655D01*
X149871043Y-115303800D01*
X149871263Y-115202248D01*
X149871300Y-115105244D01*
X149871300Y-114650445D01*
X149797906Y-114723072D01*
X149752854Y-114764463D01*
X149718777Y-114787800D01*
X149691843Y-114795662D01*
X149689956Y-114795700D01*
X149655400Y-114795700D01*
X149655400Y-115181494D01*
X149655558Y-115292993D01*
X149656115Y-115381725D01*
X149657196Y-115450322D01*
X149658927Y-115501417D01*
X149661431Y-115537641D01*
X149664834Y-115561626D01*
X149669261Y-115576005D01*
X149674450Y-115583100D01*
X149690747Y-115610929D01*
X149691018Y-115645315D01*
X149678260Y-115669460D01*
X149655030Y-115680541D01*
X149622790Y-115684605D01*
X149594948Y-115680650D01*
X149587666Y-115676233D01*
X149579538Y-115653520D01*
X149580361Y-115637077D01*
X149607668Y-115637077D01*
X149611364Y-115647270D01*
X149627643Y-115656636D01*
X149645079Y-115647144D01*
X149653156Y-115629672D01*
X149647859Y-115611587D01*
X149638030Y-115608500D01*
X149614949Y-115617219D01*
X149607668Y-115637077D01*
X149580361Y-115637077D01*
X149581163Y-115621088D01*
X149591058Y-115591995D01*
X149598250Y-115583100D01*
X149603749Y-115575335D01*
X149608107Y-115560431D01*
X149611450Y-115535755D01*
X149613902Y-115498675D01*
X149615588Y-115446560D01*
X149616633Y-115376777D01*
X149617162Y-115286694D01*
X149617300Y-115181494D01*
X149617300Y-114795700D01*
X149401400Y-114795700D01*
X149401400Y-114830942D01*
X149396504Y-114853174D01*
X149379954Y-114880559D01*
X149348954Y-114916943D01*
X149309026Y-114957942D01*
X149216652Y-115049700D01*
X148154355Y-115049700D01*
X147964611Y-115049728D01*
X147798616Y-115049836D01*
X147654721Y-115050056D01*
X147531274Y-115050421D01*
X147426625Y-115050964D01*
X147339124Y-115051718D01*
X147267121Y-115052715D01*
X147208964Y-115053989D01*
X147163003Y-115055572D01*
X147127589Y-115057496D01*
X147101070Y-115059796D01*
X147081796Y-115062503D01*
X147068117Y-115065651D01*
X147058382Y-115069273D01*
X147053902Y-115071598D01*
X147026956Y-115085319D01*
X147009817Y-115085202D01*
X146990767Y-115070889D01*
X146989372Y-115069630D01*
X146967754Y-115037345D01*
X146965723Y-115013828D01*
X146992787Y-115013828D01*
X147000782Y-115030263D01*
X147001354Y-115030956D01*
X147018781Y-115043016D01*
X147035073Y-115035154D01*
X147045392Y-115016912D01*
X147040591Y-115007911D01*
X147019550Y-115001280D01*
X147006873Y-115003713D01*
X146992787Y-115013828D01*
X146965723Y-115013828D01*
X146964705Y-115002048D01*
X146978239Y-114976040D01*
X147007946Y-114961947D01*
X147041813Y-114965808D01*
X147067547Y-114986200D01*
X147070795Y-114990705D01*
X147075626Y-114994643D01*
X147083664Y-114998053D01*
X147096533Y-115000972D01*
X147115856Y-115003439D01*
X147143258Y-115005491D01*
X147180363Y-115007166D01*
X147228796Y-115008504D01*
X147290179Y-115009541D01*
X147366138Y-115010316D01*
X147458296Y-115010867D01*
X147568278Y-115011233D01*
X147697707Y-115011451D01*
X147848208Y-115011559D01*
X148021404Y-115011596D01*
X148149961Y-115011600D01*
X149216513Y-115011600D01*
X149289906Y-114938972D01*
X149330852Y-114895567D01*
X149354245Y-114862814D01*
X149363033Y-114836373D01*
X149363300Y-114831022D01*
X149359391Y-114805270D01*
X149342317Y-114796357D01*
X149328034Y-114795700D01*
X149304810Y-114790502D01*
X149276369Y-114773004D01*
X149238697Y-114740345D01*
X149207630Y-114709904D01*
X149122492Y-114624109D01*
X149122181Y-114597698D01*
X149146890Y-114597698D01*
X149229828Y-114681277D01*
X149269886Y-114721255D01*
X149301002Y-114749540D01*
X149324305Y-114764412D01*
X149340924Y-114764156D01*
X149351990Y-114747052D01*
X149358630Y-114711382D01*
X149361976Y-114655430D01*
X149363156Y-114577476D01*
X149363300Y-114478256D01*
X149363300Y-114191654D01*
X149290275Y-114120031D01*
X149251127Y-114084928D01*
X149215045Y-114058298D01*
X149188546Y-114044858D01*
X149185500Y-114044228D01*
X149153750Y-114040050D01*
X149146890Y-114597698D01*
X149122181Y-114597698D01*
X149115650Y-114043491D01*
X148956900Y-114045403D01*
X148798150Y-114047316D01*
X148459548Y-113707460D01*
X148512400Y-113707460D01*
X148520922Y-113717439D01*
X148544506Y-113742244D01*
X148580175Y-113778815D01*
X148624954Y-113824095D01*
X148660884Y-113860090D01*
X148809368Y-114008300D01*
X149122806Y-114008300D01*
X149147400Y-114008300D01*
X149187466Y-114008300D01*
X149209420Y-114011352D01*
X149232195Y-114022752D01*
X149260423Y-114045864D01*
X149298733Y-114084052D01*
X149314227Y-114100375D01*
X149400921Y-114192450D01*
X149401160Y-114475025D01*
X149401400Y-114757600D01*
X149617300Y-114757600D01*
X149617300Y-114228433D01*
X149655400Y-114228433D01*
X149655569Y-114341455D01*
X149656051Y-114446473D01*
X149656811Y-114540793D01*
X149657812Y-114621721D01*
X149659016Y-114686564D01*
X149660389Y-114732629D01*
X149661892Y-114757223D01*
X149662615Y-114760582D01*
X149678251Y-114766148D01*
X149701856Y-114756798D01*
X149735958Y-114730942D01*
X149783084Y-114686989D01*
X149789197Y-114680956D01*
X149871300Y-114599583D01*
X149871300Y-113862933D01*
X149792291Y-113783216D01*
X149743706Y-113737932D01*
X149706214Y-113710980D01*
X149684341Y-113703500D01*
X149655400Y-113703500D01*
X149655400Y-114228433D01*
X149617300Y-114228433D01*
X149617300Y-114131291D01*
X149617301Y-114027267D01*
X149617304Y-113933914D01*
X149617307Y-113853971D01*
X149617310Y-113790176D01*
X149617314Y-113745267D01*
X149617319Y-113721981D01*
X149617321Y-113719375D01*
X149605287Y-113716194D01*
X149571805Y-113713087D01*
X149520829Y-113710272D01*
X149456310Y-113707968D01*
X149382371Y-113706394D01*
X149185554Y-113703500D01*
X149147400Y-113702939D01*
X149147400Y-114008300D01*
X149122806Y-114008300D01*
X149115650Y-113709850D01*
X148814025Y-113706445D01*
X148729540Y-113705669D01*
X148654187Y-113705317D01*
X148591455Y-113705377D01*
X148544832Y-113705838D01*
X148517807Y-113706688D01*
X148512400Y-113707460D01*
X148459548Y-113707460D01*
X148455602Y-113703500D01*
X147768006Y-113703500D01*
X147616219Y-113703573D01*
X147487871Y-113703828D01*
X147381004Y-113704318D01*
X147293658Y-113705097D01*
X147223872Y-113706216D01*
X147169688Y-113707730D01*
X147129145Y-113709691D01*
X147100285Y-113712153D01*
X147081146Y-113715168D01*
X147069770Y-113718790D01*
X147064599Y-113722550D01*
X147036101Y-113740738D01*
X147004173Y-113739554D01*
X146977164Y-113722126D01*
X146963422Y-113691587D01*
X146963000Y-113684450D01*
X146963081Y-113684184D01*
X146994950Y-113684184D01*
X147002628Y-113698991D01*
X147019884Y-113709649D01*
X147034691Y-113701971D01*
X147045349Y-113684715D01*
X147042209Y-113678660D01*
X149147400Y-113678660D01*
X149384246Y-113675205D01*
X149621093Y-113671750D01*
X149615927Y-113443150D01*
X149459283Y-113284400D01*
X149147400Y-113284400D01*
X149147400Y-113678660D01*
X147042209Y-113678660D01*
X147037671Y-113669908D01*
X147020415Y-113659250D01*
X147005608Y-113666928D01*
X146994950Y-113684184D01*
X146963081Y-113684184D01*
X146972998Y-113651709D01*
X146997530Y-113631812D01*
X147028405Y-113627249D01*
X147057428Y-113640506D01*
X147067547Y-113652700D01*
X147071637Y-113658278D01*
X147077732Y-113662974D01*
X147087894Y-113666864D01*
X147104183Y-113670022D01*
X147128663Y-113672525D01*
X147163396Y-113674450D01*
X147210442Y-113675871D01*
X147271864Y-113676866D01*
X147349725Y-113677510D01*
X147446085Y-113677880D01*
X147563007Y-113678050D01*
X147702553Y-113678098D01*
X147756544Y-113678100D01*
X148429679Y-113678100D01*
X148075394Y-113323645D01*
X147994480Y-113243240D01*
X147919834Y-113170130D01*
X147853323Y-113106069D01*
X147796813Y-113052811D01*
X147752168Y-113012110D01*
X147721254Y-112985720D01*
X147705938Y-112975395D01*
X147704996Y-112975373D01*
X147677700Y-112974094D01*
X147649283Y-112956816D01*
X147630234Y-112930132D01*
X147629465Y-112927903D01*
X147630027Y-112919277D01*
X147664568Y-112919277D01*
X147668264Y-112929470D01*
X147684543Y-112938836D01*
X147701979Y-112929344D01*
X147710056Y-112911872D01*
X147704759Y-112893787D01*
X147694930Y-112890700D01*
X147671849Y-112899419D01*
X147664568Y-112919277D01*
X147630027Y-112919277D01*
X147631439Y-112897650D01*
X147650319Y-112869712D01*
X147678667Y-112853664D01*
X147687961Y-112852599D01*
X147719834Y-112863915D01*
X147742923Y-112892443D01*
X147750400Y-112924845D01*
X147753985Y-112936827D01*
X147765677Y-112955332D01*
X147786879Y-112981875D01*
X147818995Y-113017969D01*
X147863427Y-113065130D01*
X147921580Y-113124872D01*
X147994857Y-113198709D01*
X148084661Y-113288155D01*
X148114407Y-113317638D01*
X148478415Y-113678100D01*
X149122000Y-113678100D01*
X149122000Y-113284400D01*
X149042307Y-113284399D01*
X148962614Y-113284399D01*
X148869787Y-113190949D01*
X148828197Y-113148596D01*
X148801518Y-113118835D01*
X148786640Y-113096356D01*
X148780454Y-113075850D01*
X148779850Y-113052007D01*
X148780579Y-113038638D01*
X148780118Y-112997065D01*
X148770990Y-112972376D01*
X148761510Y-112963188D01*
X148745446Y-112937736D01*
X148744892Y-112924701D01*
X148771094Y-112924701D01*
X148787610Y-112939591D01*
X148798899Y-112941500D01*
X148813735Y-112930925D01*
X148817200Y-112916100D01*
X148808162Y-112895668D01*
X148788913Y-112891206D01*
X148772750Y-112903400D01*
X148771094Y-112924701D01*
X148744892Y-112924701D01*
X148743996Y-112903656D01*
X148756360Y-112872507D01*
X148768588Y-112860918D01*
X148800370Y-112853608D01*
X148830401Y-112865969D01*
X148850851Y-112893006D01*
X148855300Y-112916226D01*
X148849364Y-112947587D01*
X148836250Y-112962307D01*
X148823640Y-112976951D01*
X148817847Y-113010845D01*
X148817200Y-113035300D01*
X148818067Y-113067533D01*
X148823036Y-113091815D01*
X148835654Y-113114561D01*
X148859469Y-113142183D01*
X148897659Y-113180728D01*
X148978118Y-113260472D01*
X149115650Y-113252650D01*
X149119289Y-113120613D01*
X149120495Y-113060306D01*
X149119582Y-113019713D01*
X149115718Y-112993183D01*
X149108069Y-112975063D01*
X149095802Y-112959701D01*
X149095511Y-112959391D01*
X149076980Y-112926584D01*
X149077227Y-112916642D01*
X149109192Y-112916642D01*
X149118031Y-112933297D01*
X149136418Y-112938442D01*
X149151375Y-112925943D01*
X149153750Y-112915215D01*
X149143193Y-112898035D01*
X149131525Y-112893117D01*
X149113696Y-112898567D01*
X149109192Y-112916642D01*
X149077227Y-112916642D01*
X149077769Y-112894858D01*
X149093295Y-112869354D01*
X149118975Y-112855213D01*
X149150228Y-112857575D01*
X149173311Y-112872113D01*
X149195311Y-112904001D01*
X149191950Y-112936388D01*
X149172394Y-112960917D01*
X149160835Y-112973727D01*
X149153585Y-112990448D01*
X149149889Y-113016427D01*
X149148994Y-113057010D01*
X149150144Y-113117547D01*
X149150169Y-113118460D01*
X149153750Y-113252650D01*
X149320285Y-113256181D01*
X149486821Y-113259713D01*
X149571110Y-113347021D01*
X149655400Y-113434330D01*
X149655400Y-113678100D01*
X149690026Y-113678099D01*
X149712761Y-113683467D01*
X149741597Y-113701325D01*
X149780190Y-113734311D01*
X149816410Y-113769245D01*
X149908167Y-113860390D01*
X149900380Y-114709585D01*
X149892592Y-115558781D01*
X149920046Y-115578010D01*
X149943964Y-115606370D01*
X149947290Y-115637594D01*
X149932885Y-115664799D01*
X149903613Y-115681102D01*
X149876612Y-115682442D01*
X149843812Y-115668906D01*
X149829638Y-115642145D01*
X149830592Y-115637077D01*
X149861668Y-115637077D01*
X149865364Y-115647270D01*
X149881643Y-115656636D01*
X149899079Y-115647144D01*
X149907156Y-115629672D01*
X149901859Y-115611587D01*
X149892030Y-115608500D01*
X149868949Y-115617219D01*
X149861668Y-115637077D01*
X149830592Y-115637077D01*
X149836049Y-115608102D01*
X149846609Y-115591432D01*
G37*
X149846609Y-115591432D02*
X149853110Y-115582021D01*
X149858360Y-115570271D01*
X149862492Y-115553560D01*
X149865639Y-115529266D01*
X149867935Y-115494765D01*
X149869512Y-115447436D01*
X149870503Y-115384655D01*
X149871043Y-115303800D01*
X149871263Y-115202248D01*
X149871300Y-115105244D01*
X149871300Y-114650445D01*
X149797906Y-114723072D01*
X149752854Y-114764463D01*
X149718777Y-114787800D01*
X149691843Y-114795662D01*
X149689956Y-114795700D01*
X149655400Y-114795700D01*
X149655400Y-115181494D01*
X149655558Y-115292993D01*
X149656115Y-115381725D01*
X149657196Y-115450322D01*
X149658927Y-115501417D01*
X149661431Y-115537641D01*
X149664834Y-115561626D01*
X149669261Y-115576005D01*
X149674450Y-115583100D01*
X149690747Y-115610929D01*
X149691018Y-115645315D01*
X149678260Y-115669460D01*
X149655030Y-115680541D01*
X149622790Y-115684605D01*
X149594948Y-115680650D01*
X149587666Y-115676233D01*
X149579538Y-115653520D01*
X149580361Y-115637077D01*
X149607668Y-115637077D01*
X149611364Y-115647270D01*
X149627643Y-115656636D01*
X149645079Y-115647144D01*
X149653156Y-115629672D01*
X149647859Y-115611587D01*
X149638030Y-115608500D01*
X149614949Y-115617219D01*
X149607668Y-115637077D01*
X149580361Y-115637077D01*
X149581163Y-115621088D01*
X149591058Y-115591995D01*
X149598250Y-115583100D01*
X149603749Y-115575335D01*
X149608107Y-115560431D01*
X149611450Y-115535755D01*
X149613902Y-115498675D01*
X149615588Y-115446560D01*
X149616633Y-115376777D01*
X149617162Y-115286694D01*
X149617300Y-115181494D01*
X149617300Y-114795700D01*
X149401400Y-114795700D01*
X149401400Y-114830942D01*
X149396504Y-114853174D01*
X149379954Y-114880559D01*
X149348954Y-114916943D01*
X149309026Y-114957942D01*
X149216652Y-115049700D01*
X148154355Y-115049700D01*
X147964611Y-115049728D01*
X147798616Y-115049836D01*
X147654721Y-115050056D01*
X147531274Y-115050421D01*
X147426625Y-115050964D01*
X147339124Y-115051718D01*
X147267121Y-115052715D01*
X147208964Y-115053989D01*
X147163003Y-115055572D01*
X147127589Y-115057496D01*
X147101070Y-115059796D01*
X147081796Y-115062503D01*
X147068117Y-115065651D01*
X147058382Y-115069273D01*
X147053902Y-115071598D01*
X147026956Y-115085319D01*
X147009817Y-115085202D01*
X146990767Y-115070889D01*
X146989372Y-115069630D01*
X146967754Y-115037345D01*
X146965723Y-115013828D01*
X146992787Y-115013828D01*
X147000782Y-115030263D01*
X147001354Y-115030956D01*
X147018781Y-115043016D01*
X147035073Y-115035154D01*
X147045392Y-115016912D01*
X147040591Y-115007911D01*
X147019550Y-115001280D01*
X147006873Y-115003713D01*
X146992787Y-115013828D01*
X146965723Y-115013828D01*
X146964705Y-115002048D01*
X146978239Y-114976040D01*
X147007946Y-114961947D01*
X147041813Y-114965808D01*
X147067547Y-114986200D01*
X147070795Y-114990705D01*
X147075626Y-114994643D01*
X147083664Y-114998053D01*
X147096533Y-115000972D01*
X147115856Y-115003439D01*
X147143258Y-115005491D01*
X147180363Y-115007166D01*
X147228796Y-115008504D01*
X147290179Y-115009541D01*
X147366138Y-115010316D01*
X147458296Y-115010867D01*
X147568278Y-115011233D01*
X147697707Y-115011451D01*
X147848208Y-115011559D01*
X148021404Y-115011596D01*
X148149961Y-115011600D01*
X149216513Y-115011600D01*
X149289906Y-114938972D01*
X149330852Y-114895567D01*
X149354245Y-114862814D01*
X149363033Y-114836373D01*
X149363300Y-114831022D01*
X149359391Y-114805270D01*
X149342317Y-114796357D01*
X149328034Y-114795700D01*
X149304810Y-114790502D01*
X149276369Y-114773004D01*
X149238697Y-114740345D01*
X149207630Y-114709904D01*
X149122492Y-114624109D01*
X149122181Y-114597698D01*
X149146890Y-114597698D01*
X149229828Y-114681277D01*
X149269886Y-114721255D01*
X149301002Y-114749540D01*
X149324305Y-114764412D01*
X149340924Y-114764156D01*
X149351990Y-114747052D01*
X149358630Y-114711382D01*
X149361976Y-114655430D01*
X149363156Y-114577476D01*
X149363300Y-114478256D01*
X149363300Y-114191654D01*
X149290275Y-114120031D01*
X149251127Y-114084928D01*
X149215045Y-114058298D01*
X149188546Y-114044858D01*
X149185500Y-114044228D01*
X149153750Y-114040050D01*
X149146890Y-114597698D01*
X149122181Y-114597698D01*
X149115650Y-114043491D01*
X148956900Y-114045403D01*
X148798150Y-114047316D01*
X148459548Y-113707460D01*
X148512400Y-113707460D01*
X148520922Y-113717439D01*
X148544506Y-113742244D01*
X148580175Y-113778815D01*
X148624954Y-113824095D01*
X148660884Y-113860090D01*
X148809368Y-114008300D01*
X149122806Y-114008300D01*
X149147400Y-114008300D01*
X149187466Y-114008300D01*
X149209420Y-114011352D01*
X149232195Y-114022752D01*
X149260423Y-114045864D01*
X149298733Y-114084052D01*
X149314227Y-114100375D01*
X149400921Y-114192450D01*
X149401160Y-114475025D01*
X149401400Y-114757600D01*
X149617300Y-114757600D01*
X149617300Y-114228433D01*
X149655400Y-114228433D01*
X149655569Y-114341455D01*
X149656051Y-114446473D01*
X149656811Y-114540793D01*
X149657812Y-114621721D01*
X149659016Y-114686564D01*
X149660389Y-114732629D01*
X149661892Y-114757223D01*
X149662615Y-114760582D01*
X149678251Y-114766148D01*
X149701856Y-114756798D01*
X149735958Y-114730942D01*
X149783084Y-114686989D01*
X149789197Y-114680956D01*
X149871300Y-114599583D01*
X149871300Y-113862933D01*
X149792291Y-113783216D01*
X149743706Y-113737932D01*
X149706214Y-113710980D01*
X149684341Y-113703500D01*
X149655400Y-113703500D01*
X149655400Y-114228433D01*
X149617300Y-114228433D01*
X149617300Y-114131291D01*
X149617301Y-114027267D01*
X149617304Y-113933914D01*
X149617307Y-113853971D01*
X149617310Y-113790176D01*
X149617314Y-113745267D01*
X149617319Y-113721981D01*
X149617321Y-113719375D01*
X149605287Y-113716194D01*
X149571805Y-113713087D01*
X149520829Y-113710272D01*
X149456310Y-113707968D01*
X149382371Y-113706394D01*
X149185554Y-113703500D01*
X149147400Y-113702939D01*
X149147400Y-114008300D01*
X149122806Y-114008300D01*
X149115650Y-113709850D01*
X148814025Y-113706445D01*
X148729540Y-113705669D01*
X148654187Y-113705317D01*
X148591455Y-113705377D01*
X148544832Y-113705838D01*
X148517807Y-113706688D01*
X148512400Y-113707460D01*
X148459548Y-113707460D01*
X148455602Y-113703500D01*
X147768006Y-113703500D01*
X147616219Y-113703573D01*
X147487871Y-113703828D01*
X147381004Y-113704318D01*
X147293658Y-113705097D01*
X147223872Y-113706216D01*
X147169688Y-113707730D01*
X147129145Y-113709691D01*
X147100285Y-113712153D01*
X147081146Y-113715168D01*
X147069770Y-113718790D01*
X147064599Y-113722550D01*
X147036101Y-113740738D01*
X147004173Y-113739554D01*
X146977164Y-113722126D01*
X146963422Y-113691587D01*
X146963000Y-113684450D01*
X146963081Y-113684184D01*
X146994950Y-113684184D01*
X147002628Y-113698991D01*
X147019884Y-113709649D01*
X147034691Y-113701971D01*
X147045349Y-113684715D01*
X147042209Y-113678660D01*
X149147400Y-113678660D01*
X149384246Y-113675205D01*
X149621093Y-113671750D01*
X149615927Y-113443150D01*
X149459283Y-113284400D01*
X149147400Y-113284400D01*
X149147400Y-113678660D01*
X147042209Y-113678660D01*
X147037671Y-113669908D01*
X147020415Y-113659250D01*
X147005608Y-113666928D01*
X146994950Y-113684184D01*
X146963081Y-113684184D01*
X146972998Y-113651709D01*
X146997530Y-113631812D01*
X147028405Y-113627249D01*
X147057428Y-113640506D01*
X147067547Y-113652700D01*
X147071637Y-113658278D01*
X147077732Y-113662974D01*
X147087894Y-113666864D01*
X147104183Y-113670022D01*
X147128663Y-113672525D01*
X147163396Y-113674450D01*
X147210442Y-113675871D01*
X147271864Y-113676866D01*
X147349725Y-113677510D01*
X147446085Y-113677880D01*
X147563007Y-113678050D01*
X147702553Y-113678098D01*
X147756544Y-113678100D01*
X148429679Y-113678100D01*
X148075394Y-113323645D01*
X147994480Y-113243240D01*
X147919834Y-113170130D01*
X147853323Y-113106069D01*
X147796813Y-113052811D01*
X147752168Y-113012110D01*
X147721254Y-112985720D01*
X147705938Y-112975395D01*
X147704996Y-112975373D01*
X147677700Y-112974094D01*
X147649283Y-112956816D01*
X147630234Y-112930132D01*
X147629465Y-112927903D01*
X147630027Y-112919277D01*
X147664568Y-112919277D01*
X147668264Y-112929470D01*
X147684543Y-112938836D01*
X147701979Y-112929344D01*
X147710056Y-112911872D01*
X147704759Y-112893787D01*
X147694930Y-112890700D01*
X147671849Y-112899419D01*
X147664568Y-112919277D01*
X147630027Y-112919277D01*
X147631439Y-112897650D01*
X147650319Y-112869712D01*
X147678667Y-112853664D01*
X147687961Y-112852599D01*
X147719834Y-112863915D01*
X147742923Y-112892443D01*
X147750400Y-112924845D01*
X147753985Y-112936827D01*
X147765677Y-112955332D01*
X147786879Y-112981875D01*
X147818995Y-113017969D01*
X147863427Y-113065130D01*
X147921580Y-113124872D01*
X147994857Y-113198709D01*
X148084661Y-113288155D01*
X148114407Y-113317638D01*
X148478415Y-113678100D01*
X149122000Y-113678100D01*
X149122000Y-113284400D01*
X149042307Y-113284399D01*
X148962614Y-113284399D01*
X148869787Y-113190949D01*
X148828197Y-113148596D01*
X148801518Y-113118835D01*
X148786640Y-113096356D01*
X148780454Y-113075850D01*
X148779850Y-113052007D01*
X148780579Y-113038638D01*
X148780118Y-112997065D01*
X148770990Y-112972376D01*
X148761510Y-112963188D01*
X148745446Y-112937736D01*
X148744892Y-112924701D01*
X148771094Y-112924701D01*
X148787610Y-112939591D01*
X148798899Y-112941500D01*
X148813735Y-112930925D01*
X148817200Y-112916100D01*
X148808162Y-112895668D01*
X148788913Y-112891206D01*
X148772750Y-112903400D01*
X148771094Y-112924701D01*
X148744892Y-112924701D01*
X148743996Y-112903656D01*
X148756360Y-112872507D01*
X148768588Y-112860918D01*
X148800370Y-112853608D01*
X148830401Y-112865969D01*
X148850851Y-112893006D01*
X148855300Y-112916226D01*
X148849364Y-112947587D01*
X148836250Y-112962307D01*
X148823640Y-112976951D01*
X148817847Y-113010845D01*
X148817200Y-113035300D01*
X148818067Y-113067533D01*
X148823036Y-113091815D01*
X148835654Y-113114561D01*
X148859469Y-113142183D01*
X148897659Y-113180728D01*
X148978118Y-113260472D01*
X149115650Y-113252650D01*
X149119289Y-113120613D01*
X149120495Y-113060306D01*
X149119582Y-113019713D01*
X149115718Y-112993183D01*
X149108069Y-112975063D01*
X149095802Y-112959701D01*
X149095511Y-112959391D01*
X149076980Y-112926584D01*
X149077227Y-112916642D01*
X149109192Y-112916642D01*
X149118031Y-112933297D01*
X149136418Y-112938442D01*
X149151375Y-112925943D01*
X149153750Y-112915215D01*
X149143193Y-112898035D01*
X149131525Y-112893117D01*
X149113696Y-112898567D01*
X149109192Y-112916642D01*
X149077227Y-112916642D01*
X149077769Y-112894858D01*
X149093295Y-112869354D01*
X149118975Y-112855213D01*
X149150228Y-112857575D01*
X149173311Y-112872113D01*
X149195311Y-112904001D01*
X149191950Y-112936388D01*
X149172394Y-112960917D01*
X149160835Y-112973727D01*
X149153585Y-112990448D01*
X149149889Y-113016427D01*
X149148994Y-113057010D01*
X149150144Y-113117547D01*
X149150169Y-113118460D01*
X149153750Y-113252650D01*
X149320285Y-113256181D01*
X149486821Y-113259713D01*
X149571110Y-113347021D01*
X149655400Y-113434330D01*
X149655400Y-113678100D01*
X149690026Y-113678099D01*
X149712761Y-113683467D01*
X149741597Y-113701325D01*
X149780190Y-113734311D01*
X149816410Y-113769245D01*
X149908167Y-113860390D01*
X149900380Y-114709585D01*
X149892592Y-115558781D01*
X149920046Y-115578010D01*
X149943964Y-115606370D01*
X149947290Y-115637594D01*
X149932885Y-115664799D01*
X149903613Y-115681102D01*
X149876612Y-115682442D01*
X149843812Y-115668906D01*
X149829638Y-115642145D01*
X149830592Y-115637077D01*
X149861668Y-115637077D01*
X149865364Y-115647270D01*
X149881643Y-115656636D01*
X149899079Y-115647144D01*
X149907156Y-115629672D01*
X149901859Y-115611587D01*
X149892030Y-115608500D01*
X149868949Y-115617219D01*
X149861668Y-115637077D01*
X149830592Y-115637077D01*
X149836049Y-115608102D01*
X149846609Y-115591432D01*
D12*
G04 #@! TO.C,J3*
X165935000Y-77385000D02*
X165935000Y-76750000D01*
X166570000Y-77385000D02*
X165935000Y-77385000D01*
G04 #@! TO.C,J2*
X137795000Y-114360000D02*
X136465000Y-114360000D01*
X136465000Y-114360000D02*
X136465000Y-113030000D01*
X136465000Y-111760000D02*
X136465000Y-78680000D01*
X139125000Y-78680000D02*
X136465000Y-78680000D01*
X139125000Y-111760000D02*
X139125000Y-78680000D01*
X139125000Y-111760000D02*
X136465000Y-111760000D01*
G04 #@! TO.C,J1*
X179070000Y-78680000D02*
X180400000Y-78680000D01*
X180400000Y-78680000D02*
X180400000Y-80010000D01*
X180400000Y-81280000D02*
X180400000Y-114360000D01*
X177740000Y-114360000D02*
X180400000Y-114360000D01*
X177740000Y-81280000D02*
X177740000Y-114360000D01*
X177740000Y-81280000D02*
X180400000Y-81280000D01*
G04 #@! TO.C,U1*
X148590000Y-110490000D02*
X148590000Y-82550000D01*
X148590000Y-82550000D02*
X168910000Y-82550000D01*
X168910000Y-82550000D02*
X168910000Y-110490000D01*
X168910000Y-110490000D02*
X148590000Y-110490000D01*
G04 #@! TD*
M02*
